<?xml version="1.0" encoding="utf-8"?>
<!-- Generator: Adobe Illustrator 27.7.0, SVG Export Plug-In . SVG Version: 6.00 Build 0)  -->
<svg version="1.1" id="Capa_1" xmlns="http://www.w3.org/2000/svg" xmlns:xlink="http://www.w3.org/1999/xlink" x="0px" y="0px"
	 viewBox="0 0 750 500" style="enable-background:new 0 0 750 500;" xml:space="preserve">
<style type="text/css">
	.st0{opacity:0.8;fill:#FFD3AB;enable-background:new    ;}
	.st1{fill:none;stroke:#2B1C0D;stroke-miterlimit:10;}
	.st2{fill:none;stroke:#2B1C0D;stroke-linecap:round;stroke-linejoin:round;stroke-miterlimit:10;}
	.st3{fill:#EF8318;}
	.st4{fill:none;stroke:#263238;stroke-linecap:round;stroke-linejoin:round;stroke-miterlimit:10;}
	.st5{fill:#2B1C0D;stroke:#2B1C0D;stroke-linecap:round;stroke-linejoin:round;stroke-miterlimit:10;}
	.st6{fill:none;stroke:#2B1C0D;stroke-width:1;stroke-miterlimit:9.9999;}
	.st7{fill:none;stroke:#2B1C0D;stroke-width:1;stroke-miterlimit:10.0003;}
	.st8{fill:none;stroke:#2B1C0D;stroke-width:1;stroke-miterlimit:10;}
	.st9{fill:none;stroke:#2B1C0D;stroke-width:1;stroke-miterlimit:9.9996;}
	.st10{fill:#EF8318;stroke:#2B1C0D;stroke-linecap:round;stroke-linejoin:round;stroke-miterlimit:10;}
	.st11{fill:#FFFFFF;stroke:#263238;stroke-linecap:round;stroke-linejoin:round;stroke-miterlimit:10;}
	.st12{fill:#FFFFFF;stroke:#2B1C0D;stroke-linecap:round;stroke-linejoin:round;stroke-miterlimit:10;}
	.st13{fill:#C2C2C2;stroke:#2B1C0D;stroke-linecap:round;stroke-linejoin:round;stroke-miterlimit:10;}
	.st14{fill:#E8E8E8;stroke:#2B1C0D;stroke-linecap:round;stroke-linejoin:round;stroke-miterlimit:10;}
	.st15{fill:#2B1C0D;}
	.st16{fill:#2B1C0D;stroke:#2B1C0D;stroke-miterlimit:10;}
	.st17{fill:#D58129;stroke:#2B1C0D;stroke-linecap:round;stroke-linejoin:round;stroke-miterlimit:10;}
</style>
<g id="Background_Simple">
	<g>
		<path class="st0" d="M562.51,15.06c-77.73,2.03-112.37,51.21-213.26,71.92c-102.74,8-149.98-29.63-225.18-10.1
			C43.18,97.9,0.81,216.39,40.51,321.93S204.9,470.27,262.43,460.78c45.97-7.58,82.88-32.9,134.47-45.72
			c53.17-1.96,95.81,12.15,142.09,6.72c57.91-6.79,165.42-82.33,173.48-194.61C720.54,114.9,646.15,12.88,562.51,15.06z"/>
	</g>
</g>
<g id="Floor">
	<g>
		<line class="st1" x1="83.31" y1="464.43" x2="696.98" y2="464.43"/>
		<line class="st1" x1="51.45" y1="464.43" x2="67.97" y2="464.43"/>
	</g>
</g>
<g id="Plant">
	<g>
		<path class="st2" d="M573.03,321.57c0,0,17.97,28.72,25.49,56.49c5.34,19.75,5.58,58.94,5.58,58.94s0.36-116.28,27.12-161.31"/>
		<path class="st2" d="M645.67,175.03c0,0-25.91,41.63-33.13,84.95c-7.22,43.33-8.92,150.79-8.92,150.79
			c-0.42-22.51-3.82-104.92-11.04-140.6s-20.39-61.59-20.39-61.59"/>
		<g>
			<path class="st3" d="M577.81,221.22c0,0,21.68,1,31.81-15.28c10.12-16.28,3.47-31.84-6.05-32.98
				c-9.52-1.14-13.65,10.63-17.18,4.99c-3.53-5.65,10.12-16.28-5.17-26.06c-15.3-9.78-22.43,4.25-27.28-0.76
				c-4.85-5.01-1.36-18.11-11.46-23.86c-10.1-5.75-14.82,1.41-20.41,1.65c-5.59,0.24-23.2-9.25-30.22-1.8s9.79,25.47,1.89,26.01
				c-7.9,0.53-11.1,15.93-4.69,25.9c6.42,9.97,27.07,13.91,23.04,19.11c-4.03,5.2-23.75,4.88-15.72,16.52s35.31,12.4,39.24,13.78
				c3.92,1.38-12.56,4.4-9.78,15.3c2.79,10.89,25.45,12.24,40.03,5.24C580.43,241.98,577.81,221.22,577.81,221.22z"/>
			<path class="st4" d="M515.24,147.8c0,0,46.06,30.11,62.57,73.42"/>
			<polyline class="st4" points="512.98,168.89 543.86,171.9 536.33,146.3 			"/>
			<polyline class="st4" points="537.83,204.29 568.71,204.29 570.97,176.42 			"/>
		</g>
		<g>
			<path class="st3" d="M641.32,184.33c0,0-17.6,0.81-25.82-12.4c-8.22-13.21-2.81-25.85,4.91-26.77
				c7.73-0.92,11.08,8.63,13.94,4.05s-8.22-13.21,4.2-21.15c12.42-7.94,18.2,3.45,22.14-0.62s1.1-14.7,9.3-19.37
				c8.2-4.67,12.03,1.14,16.57,1.34c4.54,0.19,18.83-7.51,24.53-1.46s-7.94,20.68-1.53,21.11s9.01,12.93,3.81,21.03
				c-5.21,8.09-21.97,11.29-18.7,15.51c3.27,4.22,19.28,3.96,12.76,13.41s-28.67,10.07-31.85,11.18c-3.19,1.12,10.2,3.57,7.94,12.42
				c-2.26,8.84-20.66,9.94-32.5,4.25C639.19,201.18,641.32,184.33,641.32,184.33z"/>
			<path class="st2" d="M692.11,124.74c0,0-37.39,24.44-50.79,59.6"/>
			<polyline class="st2" points="693.95,141.85 668.88,144.3 674.99,123.51 			"/>
			<polyline class="st2" points="673.77,170.59 648.71,170.59 646.87,147.97 			"/>
		</g>
		<g>
			<path class="st3" d="M583.74,341.96c0,0,14.28,0.66,20.95-10.06s2.28-20.97-3.98-21.72c-6.27-0.75-8.99,7-11.31,3.28
				s6.67-10.72-3.41-17.16c-10.07-6.44-14.77,2.8-17.96-0.5c-3.2-3.3-0.89-11.92-7.54-15.71c-6.65-3.79-9.76,0.93-13.44,1.08
				c-3.68,0.16-15.28-6.09-19.9-1.18c-4.63,4.91,6.45,16.78,1.24,17.13c-5.2,0.35-7.31,10.49-3.09,17.06
				c4.23,6.56,17.83,9.16,15.17,12.58c-2.65,3.42-15.64,3.22-10.35,10.88c5.29,7.66,23.26,8.17,25.84,9.07
				c2.58,0.91-8.27,2.9-6.44,10.07s16.76,8.06,26.36,3.45C585.47,355.63,583.74,341.96,583.74,341.96z"/>
			<path class="st4" d="M542.53,293.61c0,0,30.33,19.83,41.2,48.35"/>
			<polyline class="st4" points="541.04,307.5 561.38,309.48 556.42,292.62 			"/>
			<polyline class="st2" points="557.41,330.81 577.75,330.81 579.23,312.46 			"/>
		</g>
		<g>
			<path class="st3" d="M626.09,286.04c0,0-21.51-2.89-28.56-20.72s2.28-31.94,11.85-31.36c9.57,0.58,11.53,12.9,16.01,7.98
				s-7.05-17.83,9.75-24.71c16.8-6.88,21.3,8.19,26.98,4.13c5.67-4.06,4.57-17.57,15.54-21.42c10.97-3.85,14.33,4.04,19.79,5.27
				c5.46,1.24,24.48-4.95,30.06,3.64s-14.19,23.31-6.51,25.25s8.07,17.66-0.02,26.32c-8.1,8.66-29.12,8.85-26.09,14.68
				c3.03,5.83,22.5,9.05,12.51,19.06s-36.96,5.88-41.07,6.54c-4.11,0.65,11.57,6.58,6.88,16.8s-27.23,7.49-40.32-2
				C619.79,305.99,626.09,286.04,626.09,286.04z"/>
			<path class="st2" d="M700.78,225c0,0-50.7,21.38-74.69,61.04"/>
			<polyline class="st2" points="699.23,246.15 668.31,243.59 680.3,219.74 			"/>
			<polyline class="st2" points="668.45,276.53 638.07,271.01 640.83,243.19 			"/>
		</g>
		<path class="st5" d="M568.86,382.44c-1.54,4.14-2.42,39.37-2.42,44.05c0,30.98,17.09,38.17,38.17,38.17
			c21.08,0,38.17-5.53,38.17-38.17c0-4.68-0.88-39.91-2.42-44.05H568.86z"/>
	</g>
</g>
<g id="Graphics">
	<g>
		<g>
			<line class="st1" x1="78.36" y1="386.32" x2="78.36" y2="402.59"/>
			<line class="st1" x1="86.5" y1="394.45" x2="70.23" y2="394.45"/>
		</g>
		<g>
			<line class="st1" x1="388.91" y1="357.93" x2="388.91" y2="367.96"/>
			<line class="st1" x1="393.92" y1="362.94" x2="383.89" y2="362.94"/>
		</g>
		<g>
			<line class="st1" x1="441.92" y1="18.35" x2="441.92" y2="28.38"/>
			<line class="st1" x1="446.94" y1="23.36" x2="436.91" y2="23.36"/>
		</g>
		<g>
			<line class="st1" x1="647.23" y1="354.39" x2="647.23" y2="364.43"/>
			<line class="st1" x1="652.25" y1="359.41" x2="642.21" y2="359.41"/>
		</g>
		<g>
			<line class="st1" x1="435.55" y1="405.58" x2="435.55" y2="429.93"/>
			<line class="st1" x1="447.73" y1="417.76" x2="423.38" y2="417.76"/>
		</g>
		<g>
			<line class="st1" x1="63.39" y1="55.24" x2="63.39" y2="79.59"/>
			<line class="st1" x1="75.56" y1="67.41" x2="51.21" y2="67.41"/>
		</g>
		<circle class="st1" cx="149.55" cy="365.37" r="4.39"/>
		<path class="st1" d="M60.99,247.07c0,2.43-1.97,4.39-4.39,4.39c-2.43,0-4.39-1.97-4.39-4.39c0-2.43,1.97-4.39,4.39-4.39
			C59.03,242.67,60.99,244.64,60.99,247.07z"/>
		<circle class="st1" cx="149.89" cy="414.38" r="2.7"/>
		<circle class="st1" cx="202.62" cy="367.06" r="2.7"/>
		<circle class="st1" cx="310.78" cy="29.73" r="2.7"/>
		<circle class="st1" cx="455.1" cy="391.05" r="3.04"/>
		<circle class="st1" cx="684.55" cy="338.4" r="3.04"/>
		<circle class="st1" cx="603.15" cy="80.43" r="3.04"/>
		<ellipse class="st6" cx="40.31" cy="157.43" rx="9.74" ry="9.74"/>
		
			<ellipse transform="matrix(0.2288 -0.9735 0.9735 0.2288 368.5738 694.0895)" class="st7" cx="622.35" cy="114.42" rx="9.74" ry="9.74"/>
		<ellipse class="st8" cx="530.84" cy="389.06" rx="9.74" ry="9.74"/>
		<ellipse class="st9" cx="161.18" cy="30.92" rx="9.74" ry="9.74"/>
	</g>
</g>
<g id="Device">
	<g>
		<rect x="300.61" y="305.67" class="st5" width="39.08" height="157.65"/>
		<rect x="83.5" y="45.62" class="st5" width="493.16" height="299.13"/>
		<rect x="73.56" y="45.62" class="st10" width="493.16" height="299.13"/>
		<g>
			<rect x="91.33" y="56.4" class="st11" width="457.62" height="277.57"/>
			<rect x="91.33" y="317.25" class="st11" width="457.62" height="16.72"/>
		</g>
		<polygon class="st5" points="322.28,445.64 177.4,455 177.4,464.43 462.89,464.43 462.89,455 		"/>
		<rect x="91.33" y="56.4" class="st12" width="457.62" height="277.57"/>
		<rect x="91.33" y="282.35" class="st13" width="457.62" height="51.62"/>
		<g>
			<rect x="133.39" y="294.92" class="st14" width="369.21" height="15.15"/>
			<rect x="133.39" y="299.68" class="st12" width="369.21" height="5.63"/>
			<polygon class="st14" points="128.74,302.34 110.7,291.92 110.7,312.75 			"/>
		</g>
		<rect x="539.58" y="56.4" class="st14" width="9.38" height="277.57"/>
		<rect x="539.58" y="109.96" class="st13" width="9.38" height="146.88"/>
		<rect x="91.33" y="56.4" class="st5" width="457.62" height="10.69"/>
		<rect x="91.33" y="325.92" class="st5" width="457.62" height="8.05"/>
	</g>
</g>
<g id="Text">
	<g>
		<path class="st3" d="M432.13,234.21H203.77c-5.48,0-9.92-4.44-9.92-9.92v-50.32c0-5.48,4.44-9.92,9.92-9.92h228.36
			c5.48,0,9.92,4.44,9.92,9.92v50.32C442.05,229.77,437.61,234.21,432.13,234.21z"/>
		<g>
			<path class="st15" d="M216.74,217.23c-2.25,0-4.12-0.48-5.61-1.44s-2.62-2.29-3.39-4c-0.77-1.7-1.22-3.68-1.35-5.92l4.81-1.3
				c0.1,1.38,0.31,2.71,0.65,4c0.34,1.28,0.89,2.33,1.66,3.15c0.77,0.82,1.85,1.23,3.23,1.23c1.41,0,2.48-0.39,3.2-1.18
				s1.08-1.92,1.08-3.39c0-1.76-0.4-3.19-1.2-4.26c-0.8-1.07-1.81-2.16-3.03-3.25l-6.55-5.78c-1.28-1.12-2.23-2.35-2.84-3.68
				c-0.61-1.33-0.92-2.98-0.92-4.94c0-2.86,0.82-5.07,2.46-6.64c1.64-1.57,3.87-2.36,6.69-2.36c1.54,0,2.9,0.2,4.07,0.6
				c1.17,0.4,2.15,1.02,2.94,1.85c0.79,0.83,1.41,1.89,1.88,3.15c0.46,1.27,0.78,2.75,0.94,4.45l-4.62,1.25
				c-0.1-1.28-0.29-2.46-0.58-3.54c-0.29-1.08-0.79-1.94-1.52-2.6c-0.72-0.66-1.76-0.99-3.11-0.99s-2.4,0.36-3.15,1.08
				s-1.13,1.79-1.13,3.2c0,1.19,0.2,2.17,0.6,2.94c0.4,0.77,1.05,1.56,1.95,2.36l6.6,5.78c1.48,1.28,2.78,2.82,3.9,4.6
				s1.69,3.89,1.69,6.33c0,1.93-0.4,3.59-1.2,4.98c-0.8,1.4-1.9,2.46-3.3,3.2C220.18,216.86,218.57,217.23,216.74,217.23z"/>
			<path class="st15" d="M234.6,216.8v-34.96H228v-4.04h18.44v4.04h-6.4v34.96L234.6,216.8L234.6,216.8z"/>
			<path class="st15" d="M247.99,216.8l8.28-39h5.25l8.33,39h-5.15l-1.78-9.82h-7.94l-1.88,9.82L247.99,216.8L247.99,216.8z
				 M255.69,203.07h6.5l-3.27-17.57L255.69,203.07z"/>
			<path class="st15" d="M273.8,216.8v-39h7.85c2.6,0,4.75,0.35,6.45,1.04c1.7,0.69,2.96,1.8,3.78,3.32s1.23,3.52,1.23,5.99
				c0,1.51-0.16,2.88-0.48,4.12c-0.32,1.24-0.84,2.28-1.54,3.13c-0.71,0.85-1.64,1.47-2.79,1.85l5.54,19.55h-5.25l-5.1-18.3h-4.24
				v18.3L273.8,216.8L273.8,216.8z M279.24,194.6h2.07c1.54,0,2.79-0.19,3.76-0.58c0.96-0.39,1.67-1.04,2.12-1.97
				c0.45-0.93,0.67-2.23,0.67-3.9c0-2.28-0.42-3.92-1.25-4.93s-2.49-1.52-4.96-1.52h-2.41L279.24,194.6L279.24,194.6z"/>
			<path class="st15" d="M303.07,216.8v-34.96h-6.6v-4.04h18.44v4.04h-6.4v34.96L303.07,216.8L303.07,216.8z"/>
			<path class="st15" d="M329.7,216.8v-39h8.47c2.89,0,5.18,0.44,6.86,1.32c1.69,0.88,2.89,2.21,3.61,3.97
				c0.72,1.77,1.08,3.96,1.08,6.6v14.35c0,2.76-0.36,5.09-1.08,6.98s-1.89,3.33-3.51,4.31s-3.8,1.47-6.52,1.47L329.7,216.8
				L329.7,216.8z M335.14,212.9h3.08c1.99,0,3.4-0.39,4.24-1.16c0.83-0.77,1.34-1.89,1.52-3.37s0.26-3.26,0.26-5.34v-12.66
				c0-2.02-0.13-3.66-0.38-4.91c-0.26-1.25-0.82-2.17-1.69-2.74c-0.87-0.58-2.23-0.87-4.09-0.87h-2.94L335.14,212.9L335.14,212.9z"
				/>
			<path class="st15" d="M355.07,216.8v-39h15.12v4.04h-9.68v12.9h7.85v3.85h-7.85v14.3h9.77v3.9h-15.21V216.8z"/>
			<path class="st15" d="M374.57,216.8l0.72-39h5.34l6.89,31.63l6.93-31.63h5.3l0.72,39h-4.38l-0.43-28.31l-6.6,28.31h-3.08
				l-6.55-28.31L379,216.8H374.57z"/>
			<path class="st15" d="M416.41,217.23c-2.63,0-4.74-0.51-6.31-1.54s-2.7-2.5-3.37-4.41c-0.67-1.91-1.01-4.15-1.01-6.72v-14.78
				c0-2.57,0.34-4.77,1.04-6.62c0.69-1.85,1.81-3.26,3.37-4.24c1.56-0.98,3.65-1.47,6.28-1.47s4.72,0.5,6.26,1.49
				c1.54,1,2.66,2.41,3.35,4.24s1.04,4.03,1.04,6.6v14.83c0,2.54-0.35,4.75-1.04,6.64s-1.81,3.36-3.35,4.41
				C421.13,216.71,419.04,217.23,416.41,217.23z M416.41,212.94c1.44,0,2.54-0.3,3.27-0.89c0.74-0.59,1.24-1.43,1.49-2.5
				c0.26-1.07,0.39-2.33,0.39-3.78v-17.09c0-1.44-0.13-2.69-0.39-3.73s-0.75-1.85-1.49-2.41s-1.83-0.84-3.27-0.84
				s-2.54,0.28-3.3,0.84c-0.75,0.56-1.26,1.36-1.52,2.41c-0.26,1.04-0.39,2.29-0.39,3.73v17.09c0,1.44,0.13,2.71,0.39,3.78
				c0.26,1.08,0.76,1.91,1.52,2.5C413.87,212.65,414.97,212.94,416.41,212.94z"/>
		</g>
	</g>
</g>
<g id="Icon">
	<g>
		<circle class="st3" cx="311.15" cy="115.63" r="37.43"/>
		<g>
			<path class="st12" d="M267.81,112.97l1.38,12.85c0.27,2.55,2.68,4.32,5.2,3.8c9.14-1.87,29.56-5.73,42.05-5.52
				c16.47,0.27,31.37,8.59,31.37,8.59l-0.15-7.5c-0.24-11.59-2.01-23.09-5.27-34.21l-2.16-7.36c0,0-11.54,12.79-28.36,18.13
				c-12.66,4.02-31.5,5.78-40.04,6.4C269.36,108.34,267.55,110.52,267.81,112.97z"/>
			<path class="st1" d="M340.49,87.44l-0.11-0.38c0,0-11.74,12.6-28.65,17.68c-0.91,0.27-1.86,0.54-2.83,0.79"/>
			<path class="st1" d="M305.09,106.42c-2.87,0.62-5.87,1.15-8.88,1.61"/>
			<g>
				<path class="st5" d="M348.07,135.18c-0.07,0.01-0.15,0.01-0.22,0.01c-1.38,0.03-2.53-1.07-2.56-2.46l-0.15-7.5
					c-0.23-11.36-1.97-22.65-5.17-33.55l-2.16-7.36c-0.39-1.33,0.37-2.72,1.7-3.11c1.33-0.39,2.72,0.37,3.11,1.7l2.16,7.36
					c3.33,11.33,5.13,23.06,5.37,34.86l0.15,7.5C350.33,133.95,349.35,135.04,348.07,135.18z"/>
			</g>
			<path class="st5" d="M297.54,105.1c-9.9,1.73-20.07,2.65-25.72,3.06c-2.46,0.18-4.27,2.36-4.01,4.81l1.38,12.85
				c0.27,2.55,2.68,4.32,5.2,3.8c5.65-1.16,15.6-3.07,25.32-4.31L297.54,105.1z"/>
			<path class="st12" d="M280.78,126.17c0,0,4,8.13,4.62,8.88c0.23,0.28,0.67,0.48,1.13,0.63c1.1,0.35,2.05,1.06,2.69,2.02
				c2.86,4.33,10.16,15.39,10.53,15.79c0.46,0.49,1.59,0.92,2.22,0.44s5.3-5.05,4.95-7.06c-0.35-2-0.97-1.39-2.01-2.23
				c-0.84-0.68-4.08-6.46-5.31-8.7c-0.3-0.54-0.27-1.19,0.07-1.7l1.09-1.66c0,0-4.76-3.84-4.83-4.51c-0.07-0.67,1.91-1.16,1.98-1.84
				c0.06-0.69-1.69-3.08-1.69-3.08L280.78,126.17z"/>
			<path class="st16" d="M297.8,130.08l3.49,1.29c0.14,0.05,0.19,0.22,0.1,0.33l-0.63,0.88L297.8,130.08z"/>
			<line class="st1" x1="289.12" y1="133.35" x2="288.11" y2="134.13"/>
			<line class="st1" x1="295.93" y1="128.07" x2="289.99" y2="132.67"/>
			
				<rect x="284.78" y="114.46" transform="matrix(0.9943 -0.1068 0.1068 0.9943 -10.7162 31.2835)" class="st3" width="3.89" height="2.48"/>
		</g>
	</g>
</g>
<g id="Character">
	<g>
		<path class="st12" d="M273.75,420.95c0,0-2.33,39.6-2.33,40.23s-2.93,10.46-2.51,11.93s3.77,1.88,6.07,2.09
			c2.3,0.21,7.11,0.84,9,0.84c1.88,0,8.58-0.42,9.83-0.84c1.26-0.42,2.93-1.67,1.46-2.72c-1.46-1.05-5.02-1.46-9.21-6.28
			c-4.18-4.81-5.23-6.9-5.23-6.9l8.81-37.93L273.75,420.95z"/>
		<path class="st5" d="M271.42,461.18c0,0,1.62,0.69,3.26,1.11c1.65,0.41,5.08,1.65,5.08,1.65l1.08-4.64l5.23,4.91
			c0,0-0.41,1.1-0.69,3.16c-0.27,2.06-0.55,4.25-0.55,4.25l3.15,0.96l1.23-5.62l4.25,3.02l-0.96,3.84c0,0,1.1,0.96,2.88,0.41
			s1.78,0.14,1.37,1.23c-0.41,1.1-3.84,1.92-6.86,2.19s-13.44-0.55-15.91-1.1c-2.47-0.55-4.25-0.69-5.49-1.51
			c-1.23-0.82-0.27-3.57-0.14-4.12c0.14-0.55,7.68,2.19,8.37,2.19s1.92-3.43,1.92-3.43l-9.6-2.61
			C269.06,467.09,269.25,461.45,271.42,461.18z"/>
		<g>
			<path class="st5" d="M195.31,459.66c0,0-2.32,0.66-4.31,2.46c-1.99,1.81-1.88,7.72-1.88,7.72L195.31,459.66z"/>
			<path class="st5" d="M201.84,469.71c0,0-5.78-1.81-7.95-1.99s-4.88,0-4.88,0s-1.63,0.54-1.63,1.81s-0.28,3.08,4.06,3.8
				s8.41,0,10.4-1.09C203.83,471.16,201.84,469.71,201.84,469.71z"/>
			<path class="st12" d="M214.96,413.63c0,0-14.44,38.91-15.69,40.59c-1.26,1.67-9.71,12.36-9.92,14.46
				c-0.21,2.09,10.62,2.29,12.5,1.04c1.88-1.26,4.12-12.15,5.37-14.45c1.26-2.3,27.2-38.7,27.2-38.7L214.96,413.63z"/>
			<path class="st5" d="M206.72,459.23c0,0-3.79-2.35-5.78-2.71s-3.98-0.54-3.98-0.54l-2.71,4.16l10.12,4.88
				C204.37,465.01,206,461.76,206.72,459.23z"/>
		</g>
		<g>
			<path class="st12" d="M242.4,295.72l-0.31,6.81c0,0-17.95,46.1-26.61,68.69s-10.83,39.91-10.83,39.91s7.74,7.12,28.77,10.52
				c21.04,3.4,41.15,4.02,52.6,4.02s24.44-3.71,24.44-3.71s-9.9-60.64-17.95-88.18c-8.04-27.54-12.69-31.87-12.69-31.87l-1.24-8.66
				L242.4,295.72z"/>
			<g>
				<line class="st2" x1="255.54" y1="342.58" x2="253.23" y2="423.82"/>
				<line class="st2" x1="255.71" y1="336.56" x2="255.62" y2="339.76"/>
				<path class="st12" d="M273.28,304.12c1.29-0.27,2.56-0.59,3.78-0.97"/>
				<path class="st12" d="M245.81,304.7c0,0,11.49,1.56,22.73,0.19"/>
			</g>
		</g>
		<g>
			<path class="st12" d="M319.5,222.83c0,0-0.91-4.09-1.06-6.82c-0.15-2.73-2.73-6.36-2.42-7.88c0.3-1.52,1.82-1.36,2.58-0.91
				c0.76,0.45,1.67,1.97,1.67,1.97s2.12-6.52,2.12-9.39c0-2.88,1.82-2.58,2.58-0.61c0.76,1.97-0.3,9.55-0.3,9.55
				s2.88,0.76,4.24,1.36c1.36,0.61,3.94,1.82,3.49,5.61s-0.91,5.91-1.82,5.91s-1.67-1.21-1.67-1.21s0,4.09-1.36,5.3
				s-4.09,1.36-4.09,1.36S323.74,224.04,319.5,222.83z"/>
			<path class="st12" d="M328.9,220.4c0,0,0.91-3.49,0.91-3.94"/>
			<line class="st2" x1="320.26" y1="209.19" x2="319.35" y2="213.43"/>
		</g>
		<path class="st17" d="M315.73,227.07l2.85-4.83c0,0,1.1-1.54,3.73-0.66c0.03,0.01,0.05,0.02,0.08,0.03
			c2.39,0.81,3.72,3.37,3.07,5.81l-0.73,2.73C324.74,230.14,319.03,226.85,315.73,227.07z"/>
		<g>
			<path class="st12" d="M196.6,323.91c0,0,0.69,3.62,1.03,6.2c0.34,2.59,2.07,7.76,3.27,8.45c1.21,0.69,2.76,1.55,1.03,2.07
				c-1.72,0.52-2.76,0.69-4.31-0.52s-2.59-2.59-2.59-2.59s-1.21,5.34-2.07,7.93s-3.45,6.72-3.45,6.72s0.69,2.93-0.34,3.45
				c-1.03,0.52-2.59-1.72-2.59-1.72s-1.55-0.34-2.24-1.55s-1.55-10.34-1.38-12.07c0.17-1.72,7.14-17.7,7.14-17.7L196.6,323.91z"/>
			<path class="st12" d="M186.81,342.87c-0.55,1-1.07,2.27-1.07,2.76c0,0.69,0.86,8.27,0.86,8.27"/>
			<polyline class="st12" points="189.54,352.18 188.85,348.04 190.23,342.18 			"/>
			<path class="st12" d="M190.74,350.11c0,0,0.41-4.16,1.38-7.76"/>
			<path class="st12" d="M192.47,334.25c0,0-0.17,1.55-1.38,2.76c-1.21,1.21-3.62,2.93-3.62,2.93"/>
		</g>
		<path class="st10" d="M238.66,250.56c0,0-14.05,6.81-14.93,8.56c-0.88,1.76-18.45,33.16-20.86,36.23
			c-2.42,3.07-9.88,7.03-10.76,10.1c-0.88,3.07-0.22,11.42-0.22,11.42l-1.76,5.71c0,0,0.22,1.98,3.29,2.64
			c3.07,0.66,3.07,0.66,3.07,0.66l5.27-5.05c0,0,11.42-2.85,16.03-8.34s15.81-31.18,15.81-31.18l-1.76,17.35
			c0,0,11.42,1.76,25.03,0.66c13.61-1.1,28.55-3.29,28.55-3.29l-1.98-20.2c0,0,32.5-5.27,34.26-6.81s3.29-5.71,3.51-7.25
			s5.71-30.96,5.71-30.96s-1.98-3.29-6.59-4.17s-9.22,1.54-9.44,2.85c-0.22,1.32-9.66,20.42-9.66,20.42s-0.66-0.44-3.07,0.66
			c-2.42,1.1-3.51,1.54-3.51,1.54s-11.64-4.61-16.47-4.17s-9.44,1.1-9.44,1.1s-8.56-3.95-14.93-2.2
			C247.44,248.59,238.66,250.56,238.66,250.56z"/>
		<polyline class="st4" points="268.96,277.79 283.45,275.82 273.79,280.87 		"/>
		<polyline class="st4" points="233.83,271.42 233.61,281.31 230.31,277.13 		"/>
		<path class="st4" d="M193.86,317.76c0,0,0.66,2.2,5.93,2.2"/>
		<g>
			<g>
				<path class="st12" d="M275.63,209.18c0,0,1.48,2.75,2.11,5.08c0.63,2.33,3.17,4.86,3.81,8.67s0.63,7.19,0.21,8.88
					s-3.81,2.11-3.81,2.11s-5.29-1.69-5.71-8.04C271.82,219.54,275.63,209.18,275.63,209.18z"/>
				<path class="st12" d="M278.81,216.18c0,0,1.37,0.5,1.99,0.5s1.74,0.12,1.37,1.61s-1.24,1.99-1.24,1.99L278.81,216.18z"/>
			</g>
			<path class="st5" d="M263.36,198.39c0,0-5.29-2.54-8.88-0.63c-3.6,1.9-14.17,11.42-14.38,14.59s-0.42,7.83-0.42,9.73
				s-7.61,5.92-10.36,12.48s7.4,19.46,14.17,18.4s8.67-4.23,11.21-4.23s10.57,6.34,15.23,5.08c4.65-1.27,11.84-8.67,12.06-13.32
				c0.21-4.65-4.86-9.52-5.71-13.11c-0.85-3.6,0.21-7.19,1.06-9.94s-1.06-11.42-1.06-11.42s4.65,0.63,2.54-4.02
				c-2.12-4.65-4.02-6.34-8.46-6.77C265.9,194.79,263.36,198.39,263.36,198.39z"/>
		</g>
	</g>
</g>
</svg>
