<?xml version="1.0" encoding="utf-8"?>
<!-- Generator: Adobe Illustrator 27.7.0, SVG Export Plug-In . SVG Version: 6.00 Build 0)  -->
<svg version="1.1" id="Capa_1" xmlns="http://www.w3.org/2000/svg" xmlns:xlink="http://www.w3.org/1999/xlink" x="0px" y="0px"
	 viewBox="0 0 500 500" style="enable-background:new 0 0 500 500;" xml:space="preserve">
<style type="text/css">
	.st0{opacity:0.8;}
	.st1{fill:#FFD3AB;}
	.st2{opacity:0.8;fill:#FFD3AB;enable-background:new    ;}
	.st3{opacity:0.3;}
	.st4{fill:none;stroke:#2B1C0D;stroke-miterlimit:10;}
	.st5{opacity:0.8;fill:#C3AF9A;enable-background:new    ;}
	.st6{fill:#2B1C0D;stroke:#2B1C0D;stroke-miterlimit:10;}
	.st7{fill:#EF8318;stroke:#2B1C0D;stroke-linecap:round;stroke-linejoin:round;stroke-miterlimit:10;}
	.st8{fill:#2B1C0D;stroke:#2B1C0D;stroke-linecap:round;stroke-linejoin:round;stroke-miterlimit:10;}
	.st9{fill:#FFFFFF;stroke:#2B1C0D;stroke-linecap:round;stroke-linejoin:round;stroke-miterlimit:10;}
	.st10{fill:none;stroke:#263238;stroke-linecap:round;stroke-linejoin:round;stroke-miterlimit:10;}
	.st11{fill:none;stroke:#2B1C0D;stroke-linecap:round;stroke-linejoin:round;stroke-miterlimit:10;}
	.st12{fill:#EF8318;stroke:#2B1C0D;stroke-miterlimit:10;}
	.st13{fill:none;stroke:#FFFFFF;stroke-linecap:round;stroke-linejoin:round;stroke-miterlimit:10;}
	.st14{fill:none;stroke:#2B1C0D;stroke-width:0.75;stroke-linecap:round;stroke-linejoin:round;stroke-miterlimit:10;}
	.st15{fill:#FFFFFF;stroke:#2B1C0D;stroke-width:0.75;stroke-linecap:round;stroke-linejoin:round;stroke-miterlimit:10;}
</style>
<g id="Background_Simple">
	<g class="st0">
		<path class="st1" d="M183.51,78.44c-7,0.07-13.98,0.33-20.91,1.12C82.69,88.68-1.81,176.9,35.44,259.57
			c8.88,19.7,24.83,32.9,37.89,49.65c29.7,38.1,35.64,84.88,60.87,124.79c19.55,30.94,56.56,46.33,91.54,51.66
			c38.01,5.8,69.99-1.19,101.87-21.87c35.74-23.18,47.58-60.95,58.24-99.78c4.79-17.46,9.77-35.45,18.97-51.18
			c11.52-19.7,27.35-36.96,40.19-55.81c13.36-19.6,24.83-41.12,28.33-64.62c11.21-75.25-78.71-138.66-147.72-139.43
			c-24.43-0.27-47.58,8.25-70.38,15.53C230.61,76.36,209.41,78.17,183.51,78.44z"/>
		<path class="st2" d="M183.51,78.44c-7,0.07-13.98,0.33-20.91,1.12C82.69,88.68-1.81,176.9,35.44,259.57
			c8.88,19.7,24.83,32.9,37.89,49.65c29.7,38.1,35.64,84.88,60.87,124.79c19.55,30.94,56.56,46.33,91.54,51.66
			c38.01,5.8,69.99-1.19,101.87-21.87c35.74-23.18,47.58-60.95,58.24-99.78c4.79-17.46,9.77-35.45,18.97-51.18
			c11.52-19.7,27.35-36.96,40.19-55.81c13.36-19.6,24.83-41.12,28.33-64.62c11.21-75.25-78.71-138.66-147.72-139.43
			c-24.43-0.27-47.58,8.25-70.38,15.53C230.61,76.36,209.41,78.17,183.51,78.44z"/>
	</g>
</g>
<g id="Grid">
	<g class="st3">
		<g>
			<line class="st4" x1="33.51" y1="53.85" x2="33.51" y2="471.78"/>
			<line class="st4" x1="81.42" y1="53.85" x2="81.42" y2="471.78"/>
			<line class="st4" x1="129.34" y1="53.85" x2="129.34" y2="471.78"/>
			<line class="st4" x1="177.25" y1="53.85" x2="177.25" y2="471.78"/>
			<line class="st4" x1="225.16" y1="53.85" x2="225.16" y2="471.78"/>
			<line class="st4" x1="273.07" y1="53.85" x2="273.07" y2="471.78"/>
			<line class="st4" x1="320.98" y1="53.85" x2="320.98" y2="471.78"/>
			<line class="st4" x1="368.89" y1="53.85" x2="368.89" y2="471.78"/>
			<line class="st4" x1="416.8" y1="53.85" x2="416.8" y2="471.78"/>
			<line class="st4" x1="464.71" y1="53.85" x2="464.71" y2="471.78"/>
		</g>
		<g>
			<line class="st4" x1="486.09" y1="95.13" x2="12.14" y2="95.13"/>
			<line class="st4" x1="486.09" y1="143.04" x2="12.14" y2="143.04"/>
			<line class="st4" x1="486.09" y1="190.95" x2="12.14" y2="190.95"/>
			<line class="st4" x1="486.09" y1="238.86" x2="12.14" y2="238.86"/>
			<line class="st4" x1="486.09" y1="286.77" x2="12.14" y2="286.77"/>
			<line class="st4" x1="486.09" y1="334.68" x2="12.14" y2="334.68"/>
			<line class="st4" x1="486.09" y1="382.59" x2="12.14" y2="382.59"/>
			<line class="st4" x1="486.09" y1="430.5" x2="12.14" y2="430.5"/>
		</g>
	</g>
</g>
<g id="Arrows_2">
	<path class="st5" d="M223.98,81.28l-3.21-37.87c-0.2-2.34-1.45-4.46-3.39-5.78c-1.95-1.31-4.38-1.68-6.63-0.99L173.2,48.19
		c-4.1,1.26-6.4,5.61-5.14,9.7c1.26,4.1,5.6,6.4,9.7,5.14l16.13-4.96l-60.38,79.85l-38.36-1.16c-2.33-0.06-4.56,0.91-6.09,2.66
		L41.25,194.3c-2.82,3.23-2.48,8.14,0.75,10.95c1.47,1.28,3.29,1.91,5.1,1.91c2.17,0,4.32-0.9,5.86-2.66l45.41-52.11l38.69,1.17
		c2.51,0.07,4.91-1.07,6.43-3.08l63.65-84.17l1.38,16.27c0.34,4.05,3.74,7.11,7.73,7.11c0.22,0,0.44-0.01,0.66-0.03
		C221.17,89.31,224.34,85.55,223.98,81.28z"/>
	<path class="st5" d="M426.3,334.46L422.7,292c-0.15-1.81-0.76-3.57-1.9-4.99c-2.34-2.91-6.11-3.98-9.5-2.94l-42.33,13.03
		c-4.49,1.38-7.36,5.97-6.27,10.54c1.19,5,6.33,7.88,11.17,6.4l18.31-5.63l-50.34,66.48c-2.85,3.77-2.22,9.12,1.42,12.12l0,0
		c3.87,3.18,9.6,2.51,12.63-1.48l51.3-67.76l1.57,18.47c0.39,4.6,4.24,8.07,8.77,8.07c0.89,0,1.81-0.13,2.73-0.43
		C424.22,342.59,426.65,338.6,426.3,334.46z"/>
	<path class="st5" d="M261.25,413.43l-3.6-42.46c-0.15-1.81-0.76-3.57-1.9-4.99c-2.34-2.91-6.11-3.98-9.49-2.94l-42.33,13.03
		c-4.49,1.38-7.36,5.97-6.27,10.54c1.19,5,6.33,7.88,11.17,6.4l18.31-5.63l-51.4,67.97c-2.85,3.77-2.22,9.11,1.43,12.12l0,0
		c3.87,3.18,9.61,2.51,12.63-1.49l52.36-69.25l1.57,18.47c0.39,4.6,4.24,8.07,8.77,8.07c0.89,0,1.81-0.13,2.73-0.43
		C259.17,421.57,261.6,417.57,261.25,413.43z"/>
	<path class="st5" d="M324.63,47.96l-1.99-23.45c-0.08-1-0.42-1.97-1.05-2.76c-1.29-1.61-3.37-2.2-5.24-1.62l-23.38,7.2
		c-2.48,0.76-4.07,3.3-3.47,5.82c0.66,2.76,3.5,4.36,6.17,3.53l10.11-3.11l-28.39,37.55c-1.57,2.08-1.23,5.03,0.79,6.69l0,0
		c2.14,1.76,5.31,1.39,6.98-0.82l28.93-38.25l0.86,10.2c0.22,2.54,2.34,4.46,4.84,4.46c0.49,0,1-0.07,1.51-0.24
		C323.48,52.45,324.82,50.24,324.63,47.96z"/>
</g>
<g id="Arrow_1">
	<path class="st6" d="M457.21,170.23l-7.44-87.81c-0.46-5.43-3.35-10.35-7.86-13.4c-4.51-3.05-10.16-3.89-15.37-2.29l-87.07,26.79
		c-9.5,2.92-14.83,13-11.91,22.5c2.92,9.5,12.99,14.83,22.5,11.91l37.4-11.51l-140,185.14l-88.94-2.7
		c-5.4-0.15-10.57,2.1-14.12,6.17L33.53,432.29c-6.53,7.5-5.75,18.87,1.75,25.4c3.41,2.97,7.62,4.43,11.82,4.43
		c5.02,0,10.02-2.09,13.58-6.17l105.28-120.83l89.71,2.72c5.81,0.15,11.38-2.48,14.9-7.14l147.57-195.16l3.2,37.73
		c0.8,9.39,8.66,16.48,17.92,16.48c0.51,0,1.02-0.02,1.54-0.07C450.7,188.84,458.05,180.13,457.21,170.23z"/>
	<path class="st7" d="M464.85,162.92l-7.44-87.81c-0.46-5.43-3.35-10.35-7.86-13.4c-4.51-3.05-10.16-3.89-15.37-2.29l-87.07,26.79
		c-9.5,2.92-14.83,13-11.91,22.5c2.92,9.5,12.99,14.83,22.5,11.91l37.4-11.51l-140,185.14l-88.94-2.7
		c-5.4-0.15-10.57,2.1-14.12,6.17L41.17,424.98c-6.53,7.5-5.75,18.87,1.75,25.4c3.41,2.97,7.62,4.43,11.82,4.43
		c5.02,0,10.02-2.09,13.58-6.17L173.6,327.8l89.71,2.72c5.81,0.15,11.38-2.48,14.9-7.14l147.57-195.16l3.2,37.73
		c0.8,9.39,8.66,16.48,17.92,16.48c0.51,0,1.02-0.02,1.54-0.07C458.34,181.53,465.69,172.82,464.85,162.92z"/>
</g>
<g id="Character">
	<g>
		<path class="st8" d="M227.68,245.08l-16.65-0.97l-6.8-2.13c0,0-15.99-18.7-29.81-28.73s-41.19-28.46-43.63-24.93
			c-2.44,3.52,2.98,87.8,2.98,87.8s-5.15,2.71-5.96,4.34s-27.1,62.6-27.1,62.6s-4.61-1.36-5.42,0.27c-0.81,1.63-3.79,8.94-3.79,8.94
			l-13.82-1.35c0,0-9.76-2.44-15.18-4.34s-4.06,2.44-2.71,4.34c1.36,1.9,18.16,17.07,18.16,17.07l10.57,7.59
			c0,0,4.34,1.08,5.42-0.81s11.92-14.36,11.92-14.36s2.98-2.17,4.34-3.52c1.35-1.36,3.25-6.5,3.25-6.5l28.18-34.69l15.18-17.07
			h85.91c0,0,4.88-2.17,7.05-7.86c2.17-5.69,2.17-5.69,2.17-5.69L227.68,245.08z M150.02,272.34l4.88-36.31l23.85,29.81
			L150.02,272.34z"/>
		<g>
			<path class="st9" d="M332.31,165.44l-18.84,9.53l-4.88,10.42l23.27-0.22c0,0,5.76-12.41,5.98-16.18
				C338.08,165.22,332.31,165.44,332.31,165.44z"/>
			<path class="st9" d="M325.9,176.94c0,0-1.08-7.59,0-8.67s14.36-9.21,17.07-9.21c2.71,0,9.76,2.17,10.03,2.98s0.81,3.52,0.81,4.61
				s-8.13,7.59-9.21,8.94C343.52,176.94,325.9,176.94,325.9,176.94z"/>
		</g>
		<path class="st9" d="M300.64,196.3l10.24-0.39c0,0,13.72-18.55,16.62-21.84s10.82-10.24,19.52-11.4c8.7-1.16,9.86,3.09,9.86,4.64
			s-8.5,16.62-12.37,24.74c-3.86,8.12-7.73,12.95-8.7,14.88c-0.97,1.93-11.21,19.91-13.14,23.19c-1.93,3.29-13.14,11.6-14.69,13.53
			s-13.72,20.68-21.26,26.67c-7.54,5.99-20.48,11.79-20.48,11.79s-5.99,4.25-9.47,5.99c-3.48,1.74-7.34,1.35-8.7,0.77
			s-11.98-9.47-17.78-18.94s-5.8-23.58-5.41-24.93c0.39-1.35,3.67-3.48,4.64-3.67s10.82-2.71,10.82-2.71l7.92-5.8
			c0,0,0.58-3.09,1.35-4.06s16.62-18.36,16.62-18.36l5.99-6.96l14.11-3.67L300.64,196.3z"/>
		<g>
			<g>
				<path class="st10" d="M257.63,254.94c4.48,0.04,10.11-0.36,17.05-1.57"/>
				<path class="st10" d="M242.85,252.34c0,0,3.46,2.06,11.98,2.51"/>
				<path class="st10" d="M254.7,262.31c1.06,0.25,2.13,0.43,3.18,0.54"/>
				<path class="st10" d="M240,255.8c0,0,5.72,3.76,12.21,5.82"/>
				<path class="st11" d="M277.92,239.19c-6.1,1.59-17.94,4.67-23.83,6.04"/>
				<path class="st11" d="M281.73,238.19c0,0-0.64,0.17-1.74,0.46"/>
			</g>
			<path class="st11" d="M297.9,215.22c-0.67,1.05-1.25,1.97-1.7,2.73"/>
			<path class="st11" d="M310.88,195.91c0,0-7.04,10.2-11.7,17.32"/>
			<path class="st11" d="M308.95,197.46c0,0-10.63,7.15-15.07,11.98"/>
		</g>
		<g>
			<path class="st9" d="M286.14,154.36c0,0-10.63,5.99-10.63,7.34s0,2.9,0,2.9s-6.38,4.44-8.7,5.8c-2.32,1.35,2.13,4.83,2.13,4.83
				l-5.99,14.49c0,0,1.74,3.09,3.09,3.29c1.35,0.19,8.5,0.39,8.5,0.39l2.51,6.76l25.12-5.22l-1.16-4.06c0,0,10.05-4.25,14.11-7.15
				s6.57-14.49,3.29-21.64c-3.29-7.15-6.38-11.02-9.66-12.75c-3.29-1.74-11.02-1.74-11.02-1.74s5.6-5.8,0.19-5.99
				s-7.73,4.25-7.73,4.25s-3.48-5.22-6.38-1.35C280.93,148.37,286.14,154.36,286.14,154.36z"/>
			<polygon class="st8" points="274.55,193.4 280.35,193.29 276.64,197.88 			"/>
			<path class="st11" d="M278.99,163.45c0,0,4.06-1.35,5.41,3.09"/>
			<path class="st11" d="M279.77,166.73l-2.51,2.32c0,0,0.58,0.77,3.67,1.74"/>
			<path class="st11" d="M271.65,178.13c0,0,1.55,2.13,6.96,0"/>
		</g>
		<path class="st6" d="M308.75,149.34c-3.29-1.74-11.02-1.74-11.02-1.74s5.6-5.8,0.19-5.99s-7.73,4.25-7.73,4.25
			s-3.48-5.22-6.38-1.35c-2.9,3.86,2.32,9.86,2.32,9.86s1.74,0.97,4.06,1.74s6.76,1.35,7.34,2.51c0.58,1.16-7.73,4.25-6.96,5.99
			c0.77,1.74,2.51,6.76,2.51,6.76s-3.48,4.25-2.9,4.83c0.58,0.58,2.13,2.32,2.71,2.32s5.02-2.9,5.6-2.9c0.58,0,3.48,0.19,3.09,4.44
			s-5.41,6.18-7.73,6.57c-2.32,0.39-2.32,0.39-2.32,0.39s2.51,2.13,3.29,3.29c0.77,1.16,6.18,0.58,6.18,0.58s10.05-4.25,14.11-7.15
			s6.57-14.49,3.29-21.64C315.13,154.94,312.04,151.08,308.75,149.34z"/>
		<g>
			<path class="st12" d="M268.17,216.4c0,0-4.44,30.15-4.83,34.01c-0.39,3.87-0.39,23.38-0.39,23.38l7.73,7.54l6.96-8.89
				l-5.41-26.67l-2.71-29.95L268.17,216.4z"/>
			<polygon class="st12" points="270.49,206.54 268.17,216.4 283.82,206.35 			"/>
		</g>
		<polygon class="st9" points="301.02,190.89 271.84,199.59 272.81,211.37 304.5,196.11 		"/>
		<g>
			<polygon class="st9" points="272.23,202.1 265.85,201.71 273.2,209.25 			"/>
			<polygon class="st9" points="265.85,201.71 266.24,210.41 270.49,206.54 			"/>
		</g>
		<path class="st13" d="M153.28,233.04c0,0-10.03-17.89-14.63-25.75"/>
		<line class="st13" x1="135.93" y1="211.63" x2="142.98" y2="217.59"/>
		<g>
			<path class="st13" d="M111.54,326.27c0,0,23.58-14.09,38.21-23.04"/>
			<path class="st13" d="M133.22,308.11c0,0,13.01-5.96,16.26-8.94"/>
		</g>
	</g>
</g>
<g id="Device">
	<g>
		<polygon class="st9" points="188.36,203.64 163.62,214.27 192.42,256.79 208.26,238.04 		"/>
		<polygon class="st12" points="188.16,205.77 166.18,214.97 192.67,254.08 206.48,237.42 		"/>
		<polygon class="st9" points="208.26,238.04 247.11,231.67 242.85,252.34 192.42,256.79 		"/>
		<g>
			<polygon class="st14" points="230.18,238.47 230.92,236.51 227.09,237.12 226.24,239.06 			"/>
			<polygon class="st15" points="206.24,250.26 210.28,249.79 211.49,247.93 207.7,248.38 			"/>
			<polygon class="st14" points="230.83,239.29 230.02,241.43 233.48,240.94 234.28,238.77 			"/>
			<polygon class="st14" points="233.15,244.43 237.59,243.89 238.56,241.14 234.14,241.76 			"/>
			<polygon class="st15" points="218.39,243.98 214.81,244.49 213.3,246.8 217.16,246.34 			"/>
			<polygon class="st15" points="220.53,239.91 221.52,238.01 218.75,238.45 217.5,240.36 			"/>
			<polygon class="st15" points="216.65,247.31 212.66,247.79 211.45,249.65 215.68,249.16 			"/>
			<polygon class="st15" points="213.63,244.66 210.23,245.14 208.48,247.38 212.14,246.94 			"/>
			<polygon class="st14" points="234.64,237.81 235.39,235.8 231.94,236.35 231.2,238.32 			"/>
			<polygon class="st15" points="199.9,251.9 198.02,254.08 202.51,253.57 204.2,251.4 			"/>
			<polygon class="st15" points="221.77,249.36 220.84,251.49 225.45,250.97 226.26,248.84 			"/>
			<polygon class="st15" points="210.81,250.64 209.4,252.79 214.06,252.26 215.18,250.13 			"/>
			<polygon class="st14" points="226.46,250.86 229.95,250.46 230.75,248.32 227.26,248.72 			"/>
			<polygon class="st14" points="234.49,240.8 238.9,240.18 239.67,237.97 235.3,238.62 			"/>
			<polygon class="st15" points="223.85,242.3 224.77,240.19 221.11,240.73 220.01,242.85 			"/>
			<polygon class="st15" points="211.39,242.18 207.86,242.71 206.03,244.82 209.74,244.29 			"/>
			<polygon class="st15" points="225.19,239.22 226.03,237.29 222.63,237.83 221.63,239.75 			"/>
			<polygon class="st15" points="211.03,244.11 214.28,243.65 215.65,241.55 212.68,241.99 			"/>
			<polygon class="st14" points="231.79,245.5 228.33,245.91 227.62,247.77 231.1,247.37 			"/>
			<polygon class="st14" points="237.26,244.84 232.8,245.38 232.1,247.25 236.6,246.73 			"/>
			<polygon class="st14" points="233.12,241.9 229.66,242.39 228.69,244.96 232.15,244.55 			"/>
			<polygon class="st15" points="215.47,243.49 218.91,243 220.01,240.9 216.85,241.37 			"/>
			<polygon class="st15" points="205.46,251.26 203.77,253.43 208.24,252.92 209.64,250.77 			"/>
			<polygon class="st14" points="235.66,237.66 240.01,237.01 240.73,234.95 236.41,235.64 			"/>
			<polygon class="st14" points="231.75,248.2 230.96,250.35 235.51,249.83 236.27,247.68 			"/>
			<polygon class="st15" points="212.19,241.15 213.66,239.26 210.39,239.78 208.76,241.66 			"/>
			<polygon class="st15" points="216.26,250 215.14,252.14 219.81,251.61 220.73,249.48 			"/>
			<polygon class="st15" points="223.43,243.27 219.49,243.83 218.25,246.21 222.37,245.72 			"/>
			<polygon class="st14" points="227.32,246.03 222.99,246.55 222.18,248.41 226.62,247.89 			"/>
			<polygon class="st15" points="206.44,248.53 202.4,249.02 200.78,250.89 204.98,250.41 			"/>
			<polygon class="st14" points="228.64,242.54 224.48,243.12 223.41,245.59 227.68,245.08 			"/>
			<polygon class="st15" points="221.95,246.67 217.74,247.18 216.77,249.04 221.15,248.53 			"/>
			<polygon class="st14" points="229.81,239.44 225.82,240.03 224.9,242.15 229,241.58 			"/>
			<polygon class="st15" points="208.95,245.32 205.14,245.86 203.28,248.01 207.22,247.53 			"/>
			<polygon class="st15" points="216.31,240.54 217.55,238.64 214.97,239.05 213.48,240.96 			"/>
		</g>
	</g>
</g>
</svg>
