<?xml version="1.0" encoding="utf-8"?>
<!-- Generator: Adobe Illustrator 27.7.0, SVG Export Plug-In . SVG Version: 6.00 Build 0)  -->
<svg version="1.1" xmlns="http://www.w3.org/2000/svg" xmlns:xlink="http://www.w3.org/1999/xlink" x="0px" y="0px"
	 viewBox="0 0 500 500" style="enable-background:new 0 0 500 500;" xml:space="preserve">
<style type="text/css">
	.st0{opacity:0.8;enable-background:new    ;}
	.st1{fill:#ECD1AE;stroke:#ECD1AE;stroke-linecap:round;stroke-linejoin:round;stroke-miterlimit:10;}
	.st2{fill:none;stroke:#291D10;stroke-linecap:round;stroke-linejoin:round;stroke-miterlimit:10;}
	.st3{fill:#CCCCCC;}
	.st4{fill:#FFFFFF;stroke:#291D10;stroke-linecap:round;stroke-linejoin:round;stroke-miterlimit:10;}
	.st5{fill:#291D10;stroke:#291D10;stroke-linecap:round;stroke-linejoin:round;stroke-miterlimit:10;}
	.st6{fill:#C6FF00;}
	.st7{fill:#291D10;}
	.st8{fill:#D58129;stroke:#291D10;stroke-linecap:round;stroke-linejoin:round;stroke-miterlimit:10;}
	.st9{fill:none;stroke:#291D10;stroke-miterlimit:10;}
	.st10{fill:#D58129;}
	.st11{fill:#BEAD99;stroke:#291D10;stroke-linecap:round;stroke-linejoin:round;stroke-miterlimit:10;}
	.st12{fill:none;stroke:#FFFFFF;stroke-linecap:round;stroke-linejoin:round;stroke-miterlimit:10;}
</style>
<g id="Background_Simple">
	<g class="st0">
		<path class="st1" d="M132.36,86.75c0,0-61.84,50.89-84.82,113.76c-22.98,62.87-5.29,133.52,47.88,177.42
			c53.17,43.9,132.09,19.64,206.42,38.69c74.34,19.05,147.16-3.82,164.07-81.69c16.91-77.87-36.64-94.09-62.13-174.5
			C378.28,80.01,280.19-24.69,132.36,86.75z"/>
	</g>
</g>
<g id="Floor">
	<g>
		<line class="st2" x1="49.92" y1="425.46" x2="462" y2="425.46"/>
		<line class="st2" x1="32.4" y1="425.46" x2="38.85" y2="425.46"/>
	</g>
</g>
<g id="Icons">
	<g>
		<path class="st2" d="M226.64,134.38h-51.65c-0.91,0-1.66-0.74-1.66-1.66v-31.26c0-0.91,0.74-1.66,1.66-1.66h51.65
			c0.91,0,1.66,0.74,1.66,1.66v31.26C228.29,133.64,227.55,134.38,226.64,134.38z"/>
		<rect x="173.33" y="120.2" class="st2" width="54.96" height="7.98"/>
		<circle class="st2" cx="219.65" cy="106.46" r="3.77"/>
		<circle class="st2" cx="213.89" cy="106.46" r="3.77"/>
		<line class="st2" x1="178.21" y1="105.35" x2="193.28" y2="105.35"/>
	</g>
	<g>
		<path class="st2" d="M110,288.57H58.35c-0.91,0-1.66-0.74-1.66-1.66v-31.26c0-0.91,0.74-1.66,1.66-1.66H110
			c0.91,0,1.66,0.74,1.66,1.66v31.26C111.66,287.83,110.91,288.57,110,288.57z"/>
		<rect x="56.7" y="274.39" class="st2" width="54.96" height="7.98"/>
		<path class="st2" d="M106.78,260.65c0,2.08-1.69,3.77-3.77,3.77c-2.08,0-3.77-1.69-3.77-3.77c0-2.08,1.69-3.77,3.77-3.77
			C105.09,256.88,106.78,258.57,106.78,260.65z"/>
		<circle class="st2" cx="97.25" cy="260.65" r="3.77"/>
		<line class="st2" x1="61.57" y1="259.54" x2="76.64" y2="259.54"/>
	</g>
	<g>
		<rect x="366.56" y="66.57" class="st2" width="34.15" height="34.15"/>
		<polygon class="st2" points="394.19,81.01 385.48,81.01 385.48,72.31 381.79,72.31 381.79,81.01 373.09,81.01 373.09,84.7 
			381.79,84.7 381.79,93.41 385.48,93.41 385.48,84.7 394.19,84.7 		"/>
		<rect x="400.64" y="66.57" class="st2" width="34.15" height="34.15"/>
		<rect x="408.61" y="81.01" class="st2" width="18.19" height="3.16"/>
		<rect x="366.56" y="100.65" class="st2" width="34.15" height="34.15"/>
		<polygon class="st2" points="389.79,108.18 383.64,114.33 377.49,108.18 374.88,110.79 381.03,116.94 374.88,123.09 377.49,125.7 
			383.64,119.55 389.79,125.7 392.4,123.09 386.25,116.94 392.4,110.79 		"/>
		<rect x="400.64" y="100.65" class="st2" width="34.15" height="34.15"/>
		<g>
			<rect x="408.61" y="115.09" class="st2" width="18.19" height="3.16"/>
			<path class="st2" d="M417.71,112.2c1.26,0,2.29-1.02,2.29-2.29c0-1.26-1.02-2.29-2.29-2.29s-2.29,1.02-2.29,2.29
				C415.42,111.18,416.45,112.2,417.71,112.2z"/>
			<circle class="st2" cx="417.71" cy="123.8" r="2.29"/>
		</g>
	</g>
	<g>
		<rect x="36.08" y="366" class="st2" width="21.57" height="21.57"/>
		<polygon class="st2" points="53.52,375.12 48.03,375.12 48.03,369.63 45.7,369.63 45.7,375.12 40.2,375.12 40.2,377.46 
			45.7,377.46 45.7,382.95 48.03,382.95 48.03,377.46 53.52,377.46 		"/>
		<rect x="57.6" y="366" class="st2" width="21.57" height="21.57"/>
		<rect x="62.64" y="375.12" class="st2" width="11.49" height="2"/>
		<rect x="36.08" y="387.53" class="st2" width="21.57" height="21.57"/>
		<polygon class="st2" points="50.75,392.28 46.86,396.17 42.98,392.28 41.33,393.93 45.21,397.82 41.33,401.7 42.98,403.35 
			46.86,399.46 50.75,403.35 52.4,401.7 48.51,397.82 52.4,393.93 		"/>
		<rect x="57.6" y="387.53" class="st2" width="21.57" height="21.57"/>
		<g>
			<rect x="62.64" y="396.65" class="st2" width="11.49" height="2"/>
			<circle class="st2" cx="68.38" cy="393.38" r="1.44"/>
			<path class="st2" d="M68.38,400.7c-0.8,0-1.44,0.65-1.44,1.44c0,0.8,0.65,1.44,1.44,1.44s1.44-0.65,1.44-1.44
				C69.83,401.35,69.18,400.7,68.38,400.7z"/>
		</g>
	</g>
	<g>
		<g>
			<path class="st2" d="M297.48,109.2c-0.13,0.03-0.2,0.13-0.2,0.23l0.03,1.48c0,0.4-0.2,0.56-0.56,0.56h-1.95
				c-0.36,0-0.56-0.17-0.56-0.56l0.07-1.52c0-0.1-0.07-0.2-0.2-0.23c-3.76-0.46-5.93-2.74-5.93-5.9v-1.42c0-0.36,0.2-0.56,0.56-0.56
				h3.43c0.36,0,0.56,0.17,0.56,0.43v0.46c0,1.68,1.09,3.13,3.33,3.13c2.11,0,3-1.29,3-2.6c0-2.34-4.29-2.7-7.45-4.75
				c-2.04-1.25-3.46-2.87-3.46-5.67c0-3.46,2.14-5.9,5.93-6.46c0.13-0.03,0.2-0.13,0.2-0.23l-0.07-1.78c0-0.4,0.2-0.56,0.56-0.56
				h1.88c0.36,0,0.56,0.2,0.56,0.56l-0.03,1.75c0,0.1,0.07,0.2,0.2,0.23c3.96,0.43,6.2,2.83,6.2,6.23v1.09
				c0,0.36-0.2,0.56-0.56,0.56h-3.46c-0.36,0-0.56-0.13-0.56-0.33v-0.33c0-1.75-0.99-3.33-3.3-3.33c-1.85,0-2.97,0.96-2.97,2.44
				c0,2.14,3,2.47,6.1,3.82c3.39,1.52,4.88,3.63,4.88,6.53C303.71,106.1,301.5,108.67,297.48,109.2z"/>
		</g>
		<circle class="st2" cx="295.66" cy="97.54" r="18.74"/>
	</g>
	<g>
		<g>
			<path class="st2" d="M147.33,74.35c-0.09,0.02-0.13,0.09-0.13,0.15l0.02,0.99c0,0.26-0.13,0.38-0.38,0.38h-1.3
				c-0.24,0-0.38-0.11-0.38-0.38l0.04-1.02c0-0.07-0.04-0.13-0.13-0.15c-2.52-0.31-3.97-1.83-3.97-3.95v-0.95
				c0-0.24,0.13-0.38,0.38-0.38h2.3c0.24,0,0.38,0.11,0.38,0.29v0.31c0,1.13,0.73,2.1,2.23,2.1c1.41,0,2.01-0.86,2.01-1.74
				c0-1.57-2.87-1.81-4.99-3.18c-1.37-0.84-2.32-1.92-2.32-3.8c0-2.32,1.43-3.95,3.97-4.33c0.09-0.02,0.13-0.09,0.13-0.15
				l-0.04-1.19c0-0.26,0.13-0.38,0.38-0.38h1.26c0.24,0,0.38,0.13,0.38,0.38l-0.02,1.17c0,0.07,0.04,0.13,0.13,0.15
				c2.65,0.29,4.15,1.9,4.15,4.17v0.73c0,0.24-0.13,0.38-0.38,0.38h-2.32c-0.24,0-0.38-0.09-0.38-0.22v-0.22
				c0-1.17-0.66-2.23-2.21-2.23c-1.24,0-1.99,0.64-1.99,1.63c0,1.43,2.01,1.66,4.08,2.56c2.27,1.02,3.27,2.43,3.27,4.37
				C151.5,72.28,150.02,74,147.33,74.35z"/>
		</g>
		
			<ellipse transform="matrix(0.7071 -0.7071 0.7071 0.7071 -4.2615 122.8024)" class="st2" cx="146.1" cy="66.55" rx="12.55" ry="12.55"/>
	</g>
	<g>
		<g>
			<path class="st2" d="M50.19,200.07c-0.09,0.02-0.13,0.09-0.13,0.15l0.02,0.99c0,0.26-0.13,0.38-0.38,0.38h-1.3
				c-0.24,0-0.38-0.11-0.38-0.38l0.04-1.02c0-0.07-0.04-0.13-0.13-0.15c-2.52-0.31-3.97-1.83-3.97-3.95v-0.95
				c0-0.24,0.13-0.38,0.38-0.38h2.3c0.24,0,0.38,0.11,0.38,0.29v0.31c0,1.13,0.73,2.1,2.23,2.1c1.41,0,2.01-0.86,2.01-1.74
				c0-1.57-2.87-1.81-4.99-3.18c-1.37-0.84-2.32-1.92-2.32-3.8c0-2.32,1.43-3.95,3.97-4.33c0.09-0.02,0.13-0.09,0.13-0.15
				l-0.04-1.19c0-0.26,0.13-0.38,0.38-0.38h1.26c0.24,0,0.38,0.13,0.38,0.38l-0.02,1.17c0,0.07,0.04,0.13,0.13,0.15
				c2.65,0.29,4.15,1.9,4.15,4.17v0.73c0,0.24-0.13,0.38-0.38,0.38h-2.32c-0.24,0-0.38-0.09-0.38-0.22v-0.22
				c0-1.17-0.66-2.23-2.21-2.23c-1.24,0-1.99,0.64-1.99,1.63c0,1.43,2.01,1.66,4.08,2.56c2.27,1.02,3.27,2.43,3.27,4.37
				C54.36,197.99,52.88,199.71,50.19,200.07z"/>
		</g>
		
			<ellipse transform="matrix(0.7071 -0.7071 0.7071 0.7071 -121.6062 90.9387)" class="st2" cx="48.97" cy="192.26" rx="12.55" ry="12.55"/>
	</g>
	<g>
		<g>
			<path class="st2" d="M463.22,371.81c-0.09,0.02-0.13,0.09-0.13,0.15l0.02,0.99c0,0.26-0.13,0.38-0.38,0.38h-1.3
				c-0.24,0-0.38-0.11-0.38-0.38l0.04-1.02c0-0.07-0.04-0.13-0.13-0.15c-2.52-0.31-3.97-1.83-3.97-3.95v-0.95
				c0-0.24,0.13-0.38,0.38-0.38h2.3c0.24,0,0.38,0.11,0.38,0.29v0.31c0,1.13,0.73,2.1,2.23,2.1c1.41,0,2.01-0.86,2.01-1.74
				c0-1.57-2.87-1.81-4.99-3.18c-1.37-0.84-2.32-1.92-2.32-3.8c0-2.32,1.43-3.95,3.97-4.33c0.09-0.02,0.13-0.09,0.13-0.15
				l-0.04-1.19c0-0.26,0.13-0.38,0.38-0.38h1.26c0.24,0,0.38,0.13,0.38,0.38l-0.02,1.17c0,0.07,0.04,0.13,0.13,0.15
				c2.65,0.29,4.15,1.9,4.15,4.17v0.73c0,0.24-0.13,0.38-0.38,0.38h-2.32c-0.24,0-0.38-0.09-0.38-0.22v-0.22
				c0-1.17-0.66-2.23-2.21-2.23c-1.24,0-1.99,0.64-1.99,1.63c0,1.43,2.01,1.66,4.08,2.56c2.27,1.02,3.27,2.43,3.27,4.37
				C467.39,369.73,465.91,371.45,463.22,371.81z"/>
		</g>
		<circle class="st2" cx="462" cy="364" r="12.55"/>
	</g>
</g>
<g id="Device">
	<g>
		<path class="st3" d="M421.85,448.51c0,3.34-76.58,6.04-171.05,6.04s-171.05-2.71-171.05-6.04s76.58-6.04,171.05-6.04
			S421.85,445.18,421.85,448.51z"/>
		<g id="XMLID_139_">
			<path class="st4" d="M238.5,394.21c0,0,8.32,35.76,4.7,41.64c-4.73,7.69-55.14,12.32-55.14,12.32h111.15
				c0,0,13.93-3.91,9.74-15.11c-3.24-8.66-18.79-38.85-18.79-38.85H238.5z"/>
			<path class="st4" d="M236.06,394.21c0,0,8.87,36.06,4.7,41.64c-4.17,5.58-52.71,9.84-52.71,9.84h111.68c0,0,9.39-3.8,6.78-12.63
				c-2.61-8.83-18.79-38.85-18.79-38.85H236.06z"/>
			<path class="st5" d="M287.73,394.21h-51.66c0,0,5.25,21.37,5.77,33.75h62.75C299.5,416.05,287.73,394.21,287.73,394.21z"/>
			<rect x="188.05" y="445.86" class="st4" width="111.15" height="2.3"/>
			<path id="XMLID_1_" class="st4" d="M424.89,397.73H106.48c-4.69,0-8.48-3.8-8.48-8.48V154.68c0-4.69,3.8-8.48,8.48-8.48h318.41
				c4.69,0,8.48,3.8,8.48,8.48v234.57C433.37,393.93,429.57,397.73,424.89,397.73z"/>
			<path id="XMLID_146_" class="st5" d="M416.98,397.73H98.57c-4.69,0-8.48-3.8-8.48-8.48V154.68c0-4.69,3.8-8.48,8.48-8.48h318.41
				c4.69,0,8.48,3.8,8.48,8.48v234.57C425.47,393.93,421.67,397.73,416.98,397.73z"/>
			<path id="XMLID_145_" class="st4" d="M416.98,397.73H98.57c-4.69,0-8.48-3.8-8.48-8.48v-30.61h335.38v30.61
				C425.47,393.93,421.67,397.73,416.98,397.73z"/>
			<rect id="XMLID_144_" x="106.96" y="161.84" class="st4" width="301.64" height="177.71"/>
			<g>
				<rect x="122.08" y="264.15" class="st6" width="256.06" height="11.24"/>
				<rect x="122.08" y="285.39" class="st6" width="256.06" height="11.24"/>
				<g>
					<path class="st7" d="M122.06,190.7v-15.01c0-0.25,0.14-0.38,0.38-0.38h2.41c0.25,0,0.38,0.14,0.38,0.38v15.01
						c0,0.25-0.13,0.38-0.38,0.38h-2.41C122.2,191.09,122.06,190.95,122.06,190.7z"/>
					<path class="st7" d="M127.99,190.7v-15.01c0-0.25,0.14-0.38,0.38-0.38h2.32c0.2,0,0.34,0.07,0.45,0.25l5.64,9.38
						c0.07,0.11,0.16,0.09,0.16-0.04v-9.2c0-0.25,0.14-0.38,0.38-0.38h2.37c0.25,0,0.38,0.14,0.38,0.38v15.01
						c0,0.25-0.13,0.38-0.38,0.38h-2.3c-0.2,0-0.34-0.09-0.45-0.27l-5.66-9.47c-0.07-0.11-0.16-0.09-0.16,0.05l0.02,9.31
						c0,0.25-0.14,0.38-0.38,0.38h-2.39C128.13,191.09,127.99,190.95,127.99,190.7z"/>
					<path class="st7" d="M146.7,190.77l-4.58-15.04c-0.07-0.25,0.04-0.43,0.32-0.43h2.61c0.23,0,0.36,0.11,0.43,0.32l2.95,10.87
						c0.02,0.11,0.16,0.11,0.18,0l2.91-10.84c0.07-0.2,0.2-0.34,0.43-0.34h2.55c0.27,0,0.41,0.18,0.32,0.43l-4.64,15.04
						c-0.07,0.2-0.2,0.32-0.43,0.32h-2.62C146.9,191.09,146.76,190.97,146.7,190.77z"/>
					<path class="st7" d="M155.78,185.61v-4.82c0-3.38,2.37-5.66,5.93-5.66c3.58,0,5.95,2.28,5.95,5.66v4.82
						c0,3.43-2.37,5.73-5.95,5.73C158.15,191.33,155.78,189.03,155.78,185.61z M164.48,185.72v-4.96c0-1.76-1.1-2.91-2.77-2.91
						c-1.65,0-2.75,1.15-2.75,2.91v4.96c0,1.74,1.11,2.89,2.75,2.89C163.38,188.61,164.48,187.46,164.48,185.72z"/>
					<path class="st7" d="M170.09,190.7v-15.01c0-0.25,0.14-0.38,0.38-0.38h2.41c0.25,0,0.38,0.14,0.38,0.38v15.01
						c0,0.25-0.13,0.38-0.38,0.38h-2.41C170.22,191.09,170.09,190.95,170.09,190.7z"/>
					<path class="st7" d="M175.7,185.79v-5.21c0-3.29,2.32-5.46,5.86-5.46c3.49,0,5.84,2.07,5.84,5.21c0,0.14-0.14,0.23-0.36,0.25
						l-2.41,0.16c-0.25,0.02-0.41-0.05-0.41-0.11v-0.14c0-1.58-1.06-2.64-2.66-2.64c-1.62,0-2.68,1.06-2.68,2.64v5.43
						c0,1.56,1.06,2.61,2.68,2.61c1.6,0,2.66-1.06,2.66-2.61c0-0.16,0.14-0.27,0.38-0.25l2.41,0.11c0.23,0.02,0.38,0.04,0.38,0.11
						v0.11c0,3.16-2.34,5.25-5.84,5.25C178.02,191.27,175.7,189.08,175.7,185.79z"/>
					<path class="st7" d="M200.29,178.03h-7.26c-0.07,0-0.14,0.05-0.14,0.14v3.45c0,0.09,0.05,0.14,0.14,0.14h4.71
						c0.25,0,0.38,0.13,0.38,0.38v1.96c0,0.25-0.14,0.38-0.38,0.38h-4.71c-0.07,0-0.14,0.04-0.14,0.13v3.61
						c0,0.07,0.05,0.14,0.14,0.14h7.26c0.25,0,0.38,0.14,0.38,0.38v1.96c0,0.25-0.13,0.38-0.38,0.38H190.1
						c-0.25,0-0.38-0.14-0.38-0.38v-15.01c0-0.25,0.14-0.38,0.38-0.38h10.19c0.25,0,0.38,0.14,0.38,0.38v1.96
						C200.67,177.9,200.54,178.03,200.29,178.03z"/>
				</g>
				<line class="st4" x1="122.06" y1="197.11" x2="167.11" y2="197.11"/>
				<line class="st4" x1="122.06" y1="203.73" x2="167.11" y2="203.73"/>
				<line class="st4" x1="268.13" y1="203.73" x2="313.18" y2="203.73"/>
				<line class="st4" x1="268.13" y1="210.32" x2="313.18" y2="210.32"/>
				<line class="st4" x1="268.13" y1="216.91" x2="313.18" y2="216.91"/>
				<line class="st4" x1="122.06" y1="210.36" x2="167.11" y2="210.36"/>
				<line class="st4" x1="122.06" y1="321.55" x2="167.11" y2="321.55"/>
				<line class="st4" x1="122.06" y1="327.69" x2="167.11" y2="327.69"/>
				<line class="st4" x1="122.06" y1="216.98" x2="167.11" y2="216.98"/>
				<rect x="122.06" y="223.61" class="st8" width="107.98" height="11.92"/>
				<g>
					<rect x="320.79" y="211.68" class="st8" width="56.97" height="5.96"/>
					<rect x="320.79" y="196.45" class="st9" width="56.97" height="21.2"/>
					<rect x="320.79" y="202.41" class="st4" width="56.97" height="9.27"/>
					<line class="st4" x1="329.46" y1="196.63" x2="329.46" y2="217.39"/>
				</g>
				<rect x="122.08" y="243.54" class="st4" width="256.06" height="71.82"/>
				<rect x="122.08" y="243.54" class="st8" width="256.06" height="11.24"/>
				<line class="st4" x1="302.85" y1="243.81" x2="302.85" y2="315.24"/>
				<line class="st4" x1="330.68" y1="243.81" x2="330.68" y2="315.24"/>
				<g>
					<rect x="294.59" y="320.95" class="st10" width="36.53" height="14"/>
					<g>
						<path class="st7" d="M308.74,327.09c0,1.43-1.02,2.38-2.55,2.38h-1.58c-0.03,0-0.07,0.02-0.07,0.07v2.8
							c0,0.12-0.07,0.19-0.19,0.19h-1.2c-0.12,0-0.19-0.07-0.19-0.19v-7.49c0-0.12,0.07-0.19,0.19-0.19h3.11
							C307.75,324.65,308.74,325.62,308.74,327.09z M307.17,327.12c0-0.66-0.46-1.1-1.15-1.1h-1.42c-0.04,0-0.07,0.02-0.07,0.07
							v2.04c0,0.04,0.02,0.07,0.07,0.07h1.42C306.71,328.2,307.17,327.76,307.17,327.12z"/>
						<path class="st7" d="M313.94,332.37l-0.31-1.04c-0.01-0.04-0.03-0.06-0.07-0.06h-2.75c-0.03,0-0.06,0.01-0.07,0.06l-0.31,1.04
							c-0.03,0.1-0.1,0.16-0.21,0.16h-1.3c-0.13,0-0.2-0.09-0.16-0.21l2.39-7.49c0.03-0.1,0.1-0.16,0.21-0.16H313
							c0.11,0,0.18,0.06,0.21,0.16l2.39,7.49c0.04,0.12-0.02,0.21-0.16,0.21h-1.3C314.04,332.52,313.97,332.47,313.94,332.37z
							 M311.18,330.04h1.99c0.05,0,0.07-0.02,0.06-0.08l-1.01-3.43c-0.02-0.06-0.07-0.06-0.09,0l-1,3.43
							C311.12,330.02,311.14,330.04,311.18,330.04z"/>
						<path class="st7" d="M317.64,332.32v-2.78c0-0.02-0.01-0.07-0.02-0.09l-2.27-4.57c-0.07-0.12-0.01-0.23,0.14-0.23h1.3
							c0.1,0,0.18,0.06,0.22,0.15l1.37,2.92c0.02,0.04,0.07,0.04,0.09,0l1.37-2.92c0.04-0.09,0.12-0.15,0.22-0.15h1.31
							c0.15,0,0.21,0.1,0.15,0.23l-2.29,4.57c-0.01,0.02-0.02,0.07-0.02,0.09v2.78c0,0.12-0.07,0.19-0.19,0.19h-1.19
							C317.7,332.51,317.64,332.44,317.64,332.32z"/>
					</g>
				</g>
			</g>
			<rect id="XMLID_2_" x="106.96" y="161.84" class="st8" width="301.64" height="8.21"/>
			<path id="XMLID_143_" class="st5" d="M263.96,378.18c0-3.42-2.77-6.19-6.19-6.19c-3.42,0-6.19,2.77-6.19,6.19
				c0,3.42,2.77,6.19,6.19,6.19C261.19,384.36,263.96,381.6,263.96,378.18z"/>
		</g>
	</g>
</g>
<g id="Character">
	<g>
		<path class="st3" d="M434.47,462.81c0,3.97-17.78,7.19-39.72,7.19c-21.94,0-39.72-3.22-39.72-7.19c0-3.97,17.78-7.19,39.72-7.19
			C416.69,455.62,434.47,458.84,434.47,462.81z"/>
		<path id="XMLID_99_" class="st8" d="M370.2,278.5c0,0-4.28,1.6-5.62,7.62s-4.14,24.2-5.62,32.76c-1.47,8.56-9.36,36.37-9.36,36.37
			l4.14,2.81c0,0,10.16-14.84,12.97-21.79c2.81-6.95,5.62-11.77,6.02-17.11c0.4-5.35-0.27-34.76-0.27-37.03
			C372.48,279.84,371.41,278.23,370.2,278.5z"/>
		<path id="XMLID_115_" class="st4" d="M374.08,453.07c0,0-10.56,6.82-11.77,9.23c-1.2,2.41,1.07,3.08,6.95,2.27
			c5.88-0.8,10.03-3.88,12.84-5.48c2.81-1.6,4.14-1.74,3.21-5.35C384.38,450.13,374.08,453.07,374.08,453.07z"/>
		<path id="XMLID_116_" class="st4" d="M415.39,454.14c0,0,11.63,7.89,10.96,9.63c-0.67,1.74-4.14,2.54-10.29,0.53
			s-7.49-3.61-10.03-5.75c-2.54-2.14-1.6-4.81-1.6-6.68S415.39,454.14,415.39,454.14z"/>
		<path id="XMLID_113_" class="st5" d="M368.6,331.98c0,0-2.41,21.12-2.67,37.97c-0.27,16.85,7.49,81.11,7.49,81.78
			c0,0.67,0,0.67,0,0.67v1.34c0,0,3.08,1.47,6.28,1.6s6.82-0.27,6.82-0.27s0-11.9,0.27-21.12c0.27-9.23,1.74-51.3,1.74-51.3
			l0.4-18.18l2.67,1.74l12.57,89.13l11.23-1.2c0,0,1.34-59.32,1.07-75.63c-0.27-16.31-3.48-45.06-3.48-45.06L368.6,331.98z"/>
		<path id="XMLID_100_" class="st8" d="M389.59,272.22c0,0-17.78,5.48-19.39,6.28c-1.6,0.8-2.67,5.08-2.67,10.43
			s2.01,31.82,1.74,35.03s-1.87,7.22-0.53,9.49c1.34,2.27,18.99,3.74,28.48,3.34c9.49-0.4,14.84,0.53,16.18-2.14
			c1.34-2.67,2.14-35.7,3.48-43.32c1.34-7.62,2.27-11.63-0.4-13.77c-2.67-2.14-16.85-4.68-20.32-5.48L389.59,272.22z"/>
		<path id="XMLID_98_" class="st4" d="M388.99,268.85c0,0-2.94,0.98-3.93,3.21c-0.98,2.23-3.93,13.21-2.86,13.74
			c1.07,0.54,9.37-3.48,10.62-3.21c1.25,0.27,6.34,6.87,7.85,5.98c1.52-0.89,5.09-10.26,3.75-15.08S390.33,267.6,388.99,268.85z"/>
		<path id="XMLID_94_" class="st11" d="M387.38,265.82c0,0-0.09,4.91-0.09,7.41c0,2.5,2.14,11.42,4.02,11.07
			c1.87-0.36,9.64-9.1,10.89-11.42c1.25-2.32,1.52-7.14,1.52-7.14s-5.53,3.93-9.73,2.68C389.79,267.15,387.38,265.82,387.38,265.82z
			"/>
		<path class="st5" d="M393.99,268.4c-4.19-1.25-6.6-2.59-6.6-2.59s-0.04,1.93-0.06,3.99c0.61,1.31,1.19,2.41,1.6,3.19
			c1.45,2.76,4.07,3.71,6.62,2.76c2.17-0.81,5.08-2.84,7.56-5.58c0.48-2.17,0.61-4.45,0.61-4.45S398.18,269.65,393.99,268.4z"/>
		<g>
			<path id="XMLID_81_" class="st11" d="M385.28,251.46c0,0-0.51-3.56-2.18-2.11s-1.38,5.09-0.58,6.84c0.8,1.75,1.67,1.53,1.89,1.45
				C384.63,257.57,385.28,251.46,385.28,251.46z"/>
			<path id="XMLID_88_" class="st5" d="M408.56,254.88c0.22-0.36,2.91-9.38,3.06-14.26c0.15-4.87-6.91-9.46-11.93-10.4
				c-5.02-0.95-12.44,0.29-14.04,3.13c-1.6,2.84-1.75,13.97-1.75,15.86c0,1.89,1.45,2.18,1.82,1.75c0.36-0.44,1.45-11.42,2.11-12.22
				c0.65-0.8,12.29-0.44,14.11,0.07c1.82,0.51,2.84,2.4,2.47,5.16c-0.36,2.76,0.07,2.62,0.8,4.22c0.73,1.6,0.73,2.18,0.73,4.36
				C405.94,254.73,407.03,257.35,408.56,254.88z"/>
			<path id="XMLID_86_" class="st11" d="M386.89,238.37c0,0-2.25,9.75-2.62,16.22c-0.36,6.47,3.2,13.17,4.66,15.93
				s4.07,3.71,6.62,2.76c2.55-0.95,6.11-3.56,8.8-7.06c2.69-3.49,4.07-11.86,4.07-11.86s-1.09,0.58-1.16-0.36
				c-0.07-0.95,0.65-4.22-0.07-6.33c-0.73-2.11-2.33-2.62-1.38-4.66s1.31-3.27,1.31-3.64c0-0.36-3.64-2.55-10.26-3.13
				C390.23,235.68,387.25,236.55,386.89,238.37z"/>
			<path class="st2" d="M387.61,244.33c0,0,1.95-1.7,4.67,0.25"/>
			<path class="st2" d="M397.45,245.1c0,0,4.67-1.87,6.53,1.44"/>
			<path id="XMLID_87_" class="st11" d="M407.69,255.46c0,0,1.45-3.27,3.56-3.42c2.11-0.15,1.82,4-0.15,6.69
				c-1.96,2.69-4.8,3.78-4.87,1.82"/>
			<path id="XMLID_89_" class="st2" d="M393.43,249.57c0,0-2.4,6.91-1.89,7.86c0.51,0.95,2.47,1.96,4.87,0.87"/>
			<path id="XMLID_91_" class="st2" d="M394.38,261.57c0,0,3.35,1.31,6.26-1.09"/>
			<path id="XMLID_90_" class="st7" d="M391.03,249.82c0,0.78-0.28,1.42-0.62,1.42c-0.34,0-0.62-0.63-0.62-1.42s0.28-1.42,0.62-1.42
				C390.75,248.41,391.03,249.04,391.03,249.82z"/>
			<ellipse id="XMLID_93_" class="st7" cx="399.51" cy="250.77" rx="0.62" ry="1.42"/>
			<path id="XMLID_92_" class="st2" d="M393.5,249.39c0,2.31-1.87,4.18-4.18,4.18c-2.31,0-4.18-1.87-4.18-4.18
				c0-2.31,1.87-4.18,4.18-4.18C391.63,245.21,393.5,247.08,393.5,249.39z"/>
			<path id="XMLID_95_" class="st2" d="M404.35,250.29c0,2.43-1.97,4.4-4.4,4.4c-2.43,0-4.4-1.97-4.4-4.4c0-2.43,1.97-4.4,4.4-4.4
				C402.38,245.88,404.35,247.85,404.35,250.29z"/>
			<path id="XMLID_96_" class="st2" d="M393.5,248.62c0,0,1.09-0.58,1.96,0.36"/>
			<line id="XMLID_97_" class="st2" x1="404.27" y1="250.73" x2="409.51" y2="252.92"/>
		</g>
		<line id="XMLID_102_" class="st8" x1="350.68" y1="352.17" x2="356.3" y2="354.44"/>
		<g>
			<path id="XMLID_105_" class="st11" d="M345.5,369.29c0,0,0.79,4.62,1.34,4.86c0.55,0.24,0.73-2.25,0.55-3.83
				c-0.18-1.58-0.18-1.58-0.18-1.58s0.85,4.13,1.7,4.5c0.85,0.36,0.36-1.46,0.12-2.37c-0.24-0.91-0.24-0.91-0.24-0.91
				s2.13,2.25,2.31,1.7c0.18-0.55-1.28-3.28-1.34-3.47c-0.06-0.18-0.73-2.37-0.79-3.22c-0.06-0.85-1.28-4.26-2.49-2.13
				C345.25,364.98,345.5,369.29,345.5,369.29z"/>
			<path id="XMLID_103_" class="st11" d="M349.61,355.24c0,0-4.01,6.42-5.08,8.56c-1.07,2.14-1.87,10.16-0.94,10.7
				c0.94,0.53,1.2-1.41,1.41-2.77c0.3-1.85,1.7-4.62,1.7-4.62s-0.58,5.12,0.23,4.99c0.8-0.13,1.47-4.81,2.01-6.02
				c0.53-1.2,3.74-2.94,4.81-8.02L349.61,355.24z"/>
		</g>
		<path id="XMLID_104_" class="st11" d="M346.71,367.1c0,0,0.04-0.69,0.49-3.22"/>
		<path id="XMLID_106_" class="st8" d="M415.93,277.3c0,0,4.14,2.67,6.68,8.96s11.23,33.69,11.5,34.23c0.27,0.53,0,5.88-4.28,7.62
			c-4.28,1.74-6.28-2.01-8.82-6.28c-2.54-4.28-8.42-23.26-8.42-23.26"/>
		<path id="XMLID_101_" class="st8" d="M426.89,312.73l20.76-10.19l3.61,4.14c0,0-15.28,18.62-18.62,20.76s-7.49,1.6-9.09-2.01"/>
		<line id="XMLID_108_" class="st8" x1="445.38" y1="304" x2="449.25" y2="308.68"/>
		<g>
			<path id="XMLID_107_" class="st11" d="M447.65,302.53c0,0,4.55-7.09,5.88-7.62c1.34-0.53,5.08-1.34,7.22-2.94s3.34-1.2,2.14,0.53
				c-1.2,1.74-2.54,2.01-3.74,2.54c-1.2,0.53-1.74,0.94-1.74,0.94s3.34,0.13,5.48,0.27c2.14,0.13,3.88-0.27,3.88-0.27
				s5.48-2.41,4.14,0.53s-1.2,4.81-6.55,6.42s-10.7,1.47-10.7,1.47l-2.41,2.27L447.65,302.53z"/>
			<path id="XMLID_109_" class="st11" d="M468.64,300.93c0,0,2.67-0.8,3.61-3.74c0.94-2.94,0.4-3.08-0.8-2.01
				c-1.2,1.07-2.14,2.81-2.81,4.14C467.97,300.66,468.64,300.93,468.64,300.93z"/>
			<path id="XMLID_111_" class="st11" d="M467.44,301.06c0,0,1.6,1.07,2.81-2.14s1.07-5.75,0-5.21c-1.07,0.53-1.34,0.67-2.67,3.48
				c-1.34,2.81-2.54,4.01-1.74,4.28C466.64,301.73,467.44,301.06,467.44,301.06z"/>
			<path id="XMLID_110_" class="st11" d="M452.06,302.27c0,0,2.01-3.34,4.28-3.34c2.27,0,8.29,1.07,8.29,1.07s4.41-6.42,5.35-5.48
				c0.94,0.94-1.47,5.35-2.54,6.55s-1.2,1.34-2.14,1.6"/>
		</g>
		<line id="XMLID_114_" class="st12" x1="388.92" y1="364.47" x2="382.77" y2="361.53"/>
	</g>
</g>
</svg>
