<?xml version="1.0" encoding="utf-8"?>
<!-- Generator: Adobe Illustrator 27.7.0, SVG Export Plug-In . SVG Version: 6.00 Build 0)  -->
<svg version="1.1" xmlns="http://www.w3.org/2000/svg" xmlns:xlink="http://www.w3.org/1999/xlink" x="0px" y="0px"
	 viewBox="0 0 500 500" style="enable-background:new 0 0 500 500;" xml:space="preserve">
<style type="text/css">
	.st0{opacity:0.8;}
	.st1{fill:#FFD3AB;stroke:#FFD3AB;stroke-linecap:round;stroke-linejoin:round;stroke-miterlimit:10;}
	.st2{fill:none;stroke:#2B1604;stroke-linecap:round;stroke-linejoin:round;stroke-miterlimit:10;}
	.st3{fill:#CCB29B;stroke:#2B1604;stroke-linecap:round;stroke-linejoin:round;stroke-miterlimit:10;}
	.st4{fill:#602E09;}
	.st5{fill:#FFFFFF;stroke:#2B1604;stroke-linecap:round;stroke-linejoin:round;stroke-miterlimit:10;}
	.st6{fill:#2B1604;stroke:#2B1604;stroke-linecap:round;stroke-linejoin:round;stroke-miterlimit:10;}
	.st7{fill:#EF8318;stroke:#2B1604;stroke-linecap:round;stroke-linejoin:round;stroke-miterlimit:10;}
	.st8{fill:#FFFFFF;stroke:#263238;stroke-linecap:round;stroke-linejoin:round;stroke-miterlimit:10;}
	.st9{fill:#602E09;stroke:#602E09;stroke-linecap:round;stroke-linejoin:round;stroke-miterlimit:10;}
	.st10{fill:#CCB29B;stroke:#602E09;stroke-linecap:round;stroke-linejoin:round;stroke-miterlimit:10;}
</style>
<g id="Background_Simple">
	<g class="st0">
		<path class="st1" d="M273.59,16.87c43.48,8.75,92.89,32.93,113.09,74.87c30.53,63.36,85.44,62.72,99.55,182.71
			c2.2,18.71,2.34,36.3,0.7,52.75c-0.88,8.84-2.29,17.36-4.18,25.52c-17.05,74.15-73.31,120.41-137.77,133.83
			c-84.78,17.66-135.04-35.42-165.08-70.34C149.85,381.29,50,349.4,35.2,231.55c-2.25-17.97-2.66-36.19-0.74-54.22
			C38.81,136.19,56,92.32,86.78,63.49c2.31-2.16,4.7-4.26,7.15-6.29C141.83,17.56,214.31,4.94,273.59,16.87z"/>
	</g>
</g>
<g id="Graphics">
	<g>
		<line class="st2" x1="53.73" y1="57.67" x2="67.69" y2="71.63"/>
		<line class="st2" x1="67.69" y1="57.67" x2="53.73" y2="71.63"/>
	</g>
	<g>
		<line class="st2" x1="447.35" y1="424.4" x2="461.31" y2="438.36"/>
		<line class="st2" x1="461.31" y1="424.4" x2="447.35" y2="438.36"/>
	</g>
	<g>
		<line class="st2" x1="138.88" y1="131.6" x2="148.37" y2="141.09"/>
		<line class="st2" x1="148.37" y1="131.6" x2="138.88" y2="141.09"/>
	</g>
	<g>
		<line class="st2" x1="380.53" y1="357.92" x2="390.02" y2="367.41"/>
		<line class="st2" x1="390.02" y1="357.92" x2="380.53" y2="367.41"/>
	</g>
	<g>
		<line class="st2" x1="91.48" y1="444.56" x2="100.97" y2="454.05"/>
		<line class="st2" x1="100.97" y1="444.56" x2="91.48" y2="454.05"/>
	</g>
	<g>
		<line class="st2" x1="377.54" y1="30.77" x2="387.04" y2="40.26"/>
		<line class="st2" x1="387.04" y1="30.77" x2="377.54" y2="40.26"/>
	</g>
	<path class="st2" d="M68.85,112.93c0-3.3-2.68-5.98-5.98-5.98c-3.3,0-5.98,2.68-5.98,5.98c0,3.3,2.68,5.98,5.98,5.98
		C66.18,118.91,68.85,116.23,68.85,112.93z"/>
	<path class="st2" d="M261.55,33.76c0-3.3-2.68-5.98-5.98-5.98c-3.3,0-5.98,2.68-5.98,5.98c0,3.3,2.68,5.98,5.98,5.98
		C258.88,39.73,261.55,37.06,261.55,33.76z"/>
	<circle class="st2" cx="447.54" cy="364.64" r="5.98"/>
	<path class="st2" d="M221.22,472.19c0-3.3-2.68-5.98-5.98-5.98c-3.3,0-5.98,2.68-5.98,5.98c0,3.3,2.68,5.98,5.98,5.98
		C218.55,478.17,221.22,475.49,221.22,472.19z"/>
	<path class="st2" d="M129.35,316.84c0-3.3-2.68-5.98-5.98-5.98c-3.3,0-5.98,2.68-5.98,5.98c0,3.3,2.68,5.98,5.98,5.98
		C126.68,322.81,129.35,320.14,129.35,316.84z"/>
	<path class="st2" d="M485.63,135.34c0-3.3-2.68-5.98-5.98-5.98c-3.3,0-5.98,2.68-5.98,5.98c0,3.3,2.68,5.98,5.98,5.98
		C482.95,141.31,485.63,138.64,485.63,135.34z"/>
</g>
<g id="Table">
	<line class="st2" x1="492.47" y1="235.16" x2="7.46" y2="235.16"/>
</g>
<g id="Plant">
	<g>
		<path class="st3" d="M47.28,292.92l2.63,23.91c0,7.02,11.79,12.72,26.32,12.72c14.54,0,26.32-5.69,26.32-12.72l2.63-23.91H47.28z"
			/>
		<path class="st3" d="M45.39,278.79v14.74c0,3.77,13.81,8.45,30.85,8.45c17.04,0,30.85-4.69,30.85-8.45v-14.74H45.39z"/>
		<ellipse class="st3" cx="76.24" cy="278.79" rx="30.85" ry="8.74"/>
		<ellipse class="st4" cx="76.24" cy="278.79" rx="24.04" ry="6.81"/>
		<g>
			<path class="st4" d="M23.25,193.46c2.86,0.78,9.4-0.32,9.41-0.32c0.07-0.01-2.04-4.1-2.2-4.34c-1.88-2.81-7.16-7.12-10.8-6.09
				c-2.62,0.75-3.72,3.64-2.75,6.07C17.9,191.26,20.81,192.79,23.25,193.46z"/>
			<path class="st4" d="M89.91,185.27c0.06,0.03,0.56-4.54,0.56-4.83c-0.02-3.38-2.04-9.89-5.65-11.03
				c-2.6-0.82-5.11,0.98-5.64,3.54c-0.54,2.61,1.04,5.49,2.7,7.39C83.84,182.57,89.91,185.26,89.91,185.27z"/>
			<path class="st4" d="M106.07,158.61c-3.78,0.14-7.46,5.88-8.38,9.13c-0.08,0.28-0.81,4.82-0.74,4.81c0,0,0.06-0.01,0.08-0.01
				c-0.59,0.9-1.21,1.88-1.87,2.95c-1.2,2-2.53,4.27-3.81,6.84c-1.29,2.56-2.62,5.39-3.75,8.48c-1.14,3.1-2.18,6.43-2.81,9.99
				c-0.01,0.04-0.01,0.08-0.02,0.12c-0.14-1.1-0.63-4.16-0.7-4.39c-0.91-3.25-4.58-9-8.36-9.15c-2.72-0.11-4.67,2.3-4.5,4.91
				c0.17,2.66,2.46,5.02,4.56,6.42c2.37,1.57,8.46,2.54,8.95,2.62c-0.57,3.4-0.87,6.93-0.99,10.53c-0.07,2.05-0.07,4.13-0.05,6.2
				c-0.15-0.95-0.29-1.79-0.33-1.91c-0.91-3.25-4.58-9-8.36-9.15c-2.72-0.11-4.67,2.3-4.5,4.91c0.17,2.67,2.46,5.02,4.56,6.42
				c2.13,1.41,7.31,2.35,8.68,2.57c0.02,0.8,0.03,1.59,0.05,2.39c0.1,3.82,0.21,7.63,0.2,11.38c0,1.32-0.05,2.62-0.09,3.92
				c-0.14-0.84-0.26-1.55-0.29-1.65c-0.91-3.25-4.58-9-8.36-9.15c-2.72-0.11-4.67,2.3-4.5,4.91c0.17,2.66,2.46,5.02,4.56,6.42
				c2.04,1.35,6.81,2.25,8.44,2.53c-0.09,1.33-0.17,2.66-0.31,3.95c-0.12,0.88-0.17,1.73-0.34,2.6c-0.15,0.87-0.29,1.73-0.44,2.58
				c-0.34,1.63-0.68,3.31-1.05,4.89c-0.25,1.1-0.51,2.14-0.76,3.2c0.02-1.31-0.01-3.88-0.03-4.1c-0.27-2.23-1.58-5.72-3.52-8.03
				c-0.04-0.33-0.1-0.65-0.2-0.97c-0.78-2.49-3.46-4.04-5.96-2.97c-3.48,1.49-4.85,8.17-4.54,11.53c0.02,0.2,0.46,2.33,0.76,3.67
				c-0.3-0.76-0.57-1.5-0.89-2.28c-0.61-1.54-1.27-3.07-1.97-4.71c-0.37-0.78-0.73-1.57-1.11-2.37c-0.35-0.8-0.83-1.6-1.24-2.4
				c-1-1.85-2.1-3.68-3.25-5.5c1.35-0.54,6.12-2.52,7.89-4.34c1.76-1.81,3.5-4.6,3.1-7.24c-0.39-2.58-2.8-4.52-5.44-3.84
				c-3.66,0.94-6.03,7.34-6.23,10.71c-0.01,0.21,0.12,2.65,0.21,3.98c-0.7-1.09-1.39-2.18-2.14-3.25c-2.15-3.11-4.42-6.19-6.67-9.27
				c-0.69-0.94-1.37-1.89-2.05-2.84c0.48-0.19,6.21-2.42,8.19-4.45c1.76-1.81,3.5-4.6,3.1-7.24c-0.39-2.58-2.8-4.52-5.44-3.84
				c-3.66,0.94-6.03,7.34-6.23,10.71c-0.01,0.25,0.17,3.76,0.27,4.65c-1.5-2.09-2.97-4.18-4.34-6.3c-1.89-2.93-3.59-5.9-5.02-8.91
				c0.22-0.09,6.21-2.39,8.24-4.47c1.76-1.81,3.5-4.6,3.1-7.24c-0.39-2.58-2.8-4.52-5.44-3.84c-3.66,0.94-6.03,7.34-6.23,10.71
				c-0.01,0.22,0.13,2.89,0.23,4.16c-0.11,0.03-0.09,0.02-0.21,0.05c-1.49-3.24-2.53-6.56-3.35-9.72c-0.48-1.83-0.83-3.6-1.14-5.34
				c1.16-0.31,6.44-1.81,8.47-3.48c1.95-1.6,3.98-4.19,3.87-6.85c-0.11-2.61-2.29-4.8-4.99-4.42c-3.74,0.54-6.8,6.63-7.37,9.96
				c-0.03,0.18-0.14,2.06-0.2,3.42c-0.13-0.78-0.27-1.59-0.38-2.35c-0.41-2.83-0.6-5.45-0.76-7.77c-0.08-1.32-0.12-2.51-0.15-3.63
				c0.98-0.9,4.86-4.59,5.88-6.96c0.99-2.32,1.61-5.55,0.28-7.87c-1.3-2.27-4.25-3.21-6.46-1.62c-3.08,2.2-2.98,9.02-1.95,12.24
				c0.09,0.28,1.98,4.47,2.03,4.42c0,0,0.05-0.04,0.06-0.05c0.01,1.08,0.03,2.23,0.07,3.49c0.11,2.33,0.25,4.96,0.59,7.81
				c0.34,2.85,0.79,5.94,1.55,9.15c0.76,3.22,1.73,6.56,3.17,9.88c0.02,0.04,0.04,0.07,0.05,0.11c-0.72-0.84-2.82-3.12-3-3.28
				c-2.55-2.21-8.79-4.98-12.02-3.02c-2.33,1.41-2.63,4.49-1.05,6.58c1.61,2.13,4.82,2.83,7.34,2.84c2.85,0,8.46-2.55,8.91-2.75
				c1.4,3.15,3.1,6.26,4.98,9.32c1.08,1.75,2.22,3.48,3.38,5.2c-0.65-0.71-1.23-1.33-1.32-1.41c-2.55-2.21-8.79-4.98-12.02-3.02
				c-2.33,1.41-2.63,4.49-1.05,6.58c1.61,2.13,4.82,2.83,7.34,2.84c2.56,0,7.39-2.08,8.66-2.64c0.45,0.65,0.9,1.31,1.36,1.97
				c2.19,3.13,4.39,6.25,6.45,9.38c0.73,1.1,1.4,2.21,2.08,3.32c-0.58-0.63-1.07-1.15-1.15-1.22c-2.55-2.21-8.79-4.98-12.02-3.02
				c-2.33,1.41-2.63,4.49-1.05,6.58c1.61,2.13,4.82,2.83,7.34,2.84c2.44,0,6.92-1.88,8.43-2.54c0.66,1.16,1.33,2.31,1.92,3.46
				c0.38,0.79,0.81,1.53,1.15,2.35c0.36,0.8,0.71,1.6,1.06,2.39c0.62,1.54,1.26,3.13,1.82,4.65c0.4,1.05,0.76,2.07,1.13,3.09
				c-0.71-1.1-2.15-3.24-2.29-3.4c-2.19-2.57-7.93-6.25-11.42-4.8c-2.52,1.05-3.28,4.04-2.03,6.34c1.27,2.35,4.34,3.53,6.83,3.92
				c2.74,0.42,8.46-1.16,9.17-1.36c0.6,1.69,1.17,3.34,1.68,4.9c1.77,5.36,3.04,9.9,3.89,13.11l2.54-0.37
				c-0.02-0.07-0.04-0.14-0.06-0.21c-0.93-3.23-2.33-7.83-4.25-13.25c-0.6-1.72-1.28-3.54-2-5.4c0.41-0.24,2.75-1.6,4.77-3.15
				c2.22,1.8,7.48,3.51,8.16,3.73c-0.43,1.74-0.87,3.43-1.3,5.01c-1.48,5.45-2.93,9.94-3.99,13.08l2.78-0.4
				c0.95-3.1,2.15-7.23,3.37-12.11c0.44-1.77,0.88-3.66,1.32-5.61c0.73,0.05,6.66,0.38,9.25-0.62c2.36-0.9,5.1-2.71,5.85-5.27
				c0.73-2.51-0.65-5.28-3.33-5.77c-3.72-0.68-8.55,4.14-10.15,7.11c-0.09,0.18-0.9,2.19-1.39,3.48c0.17-0.8,0.35-1.57,0.52-2.39
				c0.34-1.63,0.64-3.26,0.96-5.01c0.13-0.85,0.25-1.71,0.38-2.58c0.15-0.86,0.19-1.79,0.29-2.69c0.19-2.1,0.28-4.23,0.32-6.38
				c1.42,0.3,6.5,1.28,8.97,0.74c2.46-0.54,5.46-1.9,6.58-4.33c1.1-2.37,0.16-5.32-2.42-6.21c-3.58-1.23-9.08,2.79-11.11,5.5
				c-0.13,0.17-1.36,2.27-2.02,3.44c0.02-1.29,0.04-2.58,0.01-3.89c-0.08-3.78-0.27-7.6-0.45-11.41c-0.06-1.17-0.1-2.33-0.14-3.5
				c0.51,0.11,6.51,1.41,9.28,0.8c2.47-0.54,5.46-1.9,6.58-4.33c1.1-2.37,0.16-5.32-2.42-6.21c-3.58-1.23-9.08,2.79-11.11,5.5
				c-0.15,0.2-1.93,3.23-2.34,4.02c-0.1-2.57-0.17-5.13-0.15-7.65c0.03-3.49,0.26-6.9,0.72-10.2c0.24,0.05,6.5,1.43,9.34,0.81
				c2.47-0.54,5.46-1.9,6.58-4.33c1.1-2.37,0.16-5.32-2.42-6.21c-3.58-1.23-9.08,2.79-11.11,5.5c-0.13,0.18-1.49,2.48-2.11,3.59
				c-0.11-0.04-0.09-0.03-0.2-0.07c0.54-3.52,1.51-6.87,2.56-9.96c0.61-1.79,1.29-3.47,1.99-5.08c1.14,0.38,6.37,2.04,8.99,1.77
				c2.51-0.26,5.63-1.29,7.01-3.58c1.35-2.24,0.74-5.27-1.72-6.43c-3.42-1.62-9.33,1.78-11.64,4.24c-0.13,0.13-1.25,1.64-2.06,2.74
				c0.33-0.72,0.65-1.48,0.98-2.17c1.22-2.59,2.5-4.88,3.65-6.9c0.66-1.14,1.29-2.16,1.88-3.11c1.31-0.21,6.58-1.14,8.74-2.57
				c2.11-1.39,4.4-3.74,4.57-6.41C110.73,160.92,108.79,158.51,106.07,158.61z"/>
		</g>
	</g>
</g>
<g id="Mouse">
	<g>
		<g>
			<path class="st5" d="M346.96,436.31l-0.47-3.13c0.15-0.02,15.46-2.41,22.78-9.45c1.57-1.51,1.53-2.6,1.37-3.29
				c-1.69-7.03-27.57-18-79.11-33.55c-8.49-2.56-16.71-5-24.59-7.34c-51.46-15.28-85.46-25.37-87.81-36.82
				c-0.59-2.86,0.7-5.64,3.84-8.24c17.84-14.81,88.84-20.18,91.85-20.41l0.23,3.15c-0.73,0.05-73,5.51-90.06,19.69
				c-3.27,2.71-2.89,4.56-2.76,5.17c1.97,9.6,38.88,20.55,85.61,34.42c7.88,2.34,16.11,4.78,24.6,7.34
				c68.84,20.77,79.75,29.5,81.28,35.84c0.54,2.24-0.22,4.36-2.25,6.31C363.41,433.76,347.63,436.21,346.96,436.31z"/>
			<path class="st6" d="M185.2,332.87l4.56,0.99c22.84-11.89,84.6-16.56,85.27-16.61l-0.23-3.15
				C271.91,314.31,206.06,319.29,185.2,332.87z"/>
		</g>
		<g>
			<path class="st7" d="M355.45,439.69c1.2-3.89-0.29-8.15-3.69-10.39c-4.6-3.02-12.97-6.7-27.17-7.72
				c-25.13-1.8-42.19,7.48-50.26,15.26c-8.08,7.78-6.28,17.05,5.39,22.74c11.67,5.68,20.05,7.18,29.92,5.68
				c9.87-1.5,26.03-9.27,31.71-13.16c5.68-3.89,12.57-7.48,14.06-12.27C355.42,439.79,355.44,439.74,355.45,439.69z"/>
			<path class="st5" d="M316.81,458.09c-14.06,9.57-27.53,5.09-27.53,5.09l-0.31,0.26c7.29,2.43,13.59,2.9,20.66,1.83
				c9.87-1.5,26.03-9.27,31.71-13.16c5.68-3.89,12.57-7.48,14.06-12.27c0.01-0.05,0.03-0.1,0.04-0.14c0.12-0.39,0.21-0.78,0.27-1.17
				C346.87,440.67,329.26,449.61,316.81,458.09z"/>
		</g>
		<path class="st5" d="M296.17,441.63c0,2.15-2.61,3.89-5.83,3.89c-3.22,0-5.83-1.74-5.83-3.89s2.61-3.89,5.83-3.89
			C293.55,437.74,296.17,439.48,296.17,441.63z"/>
	</g>
</g>
<g id="Keyboard">
	<g>
		<g>
			<path class="st5" d="M178.6,382.14l-0.64-3.1c9.46-1.96,15.72-4.79,16.6-6.2c-0.97-1.03-5.02-3.17-8.33-4.92
				c-12.07-6.37-32.26-17.04-25.84-30.79c3.76-8.06,24.2-15.1,62.51-21.53c27.79-4.67,54.9-7.17,55.17-7.2l0.29,3.15
				c-0.27,0.02-27.28,2.52-54.95,7.17c-48.08,8.08-58.32,15.84-60.15,19.75c-5.15,11.03,12.67,20.43,24.46,26.66
				c7.16,3.78,10.43,5.51,10.08,7.9C197.12,377.81,184.15,381,178.6,382.14z"/>
			<path class="st6" d="M278.07,308.41c-0.27,0.02-27.38,2.53-55.17,7.2c-25.67,4.31-43.3,8.9-53.28,13.88l5.24,1.14
				c8.66-3.54,23.44-7.67,48.55-11.89c27.67-4.65,54.68-7.14,54.95-7.17L278.07,308.41z"/>
		</g>
		<g>
			<polygon class="st8" points="276.78,403.16 219.59,435.71 11.24,363.45 74.59,340.62 			"/>
			<g>
				<polygon class="st9" points="184.9,386.62 191.7,388.71 198.81,385 192.09,382.98 				"/>
				<polygon class="st9" points="174.35,377.95 168.46,381.57 182,385.73 189.16,382.11 174.69,377.77 				"/>
				<polygon class="st9" points="194.57,389.59 201.8,391.81 209,388.05 201.7,385.86 				"/>
				<polygon class="st9" points="148.36,375.4 154.9,377.41 161.61,373.86 155.61,372.06 				"/>
				<polygon class="st9" points="157.75,378.28 165.78,380.75 171.95,376.95 164.48,374.72 				"/>
				<polygon class="st9" points="190.31,397.8 183.16,395.54 176.06,399.25 183.12,401.56 				"/>
				<polygon class="st9" points="204.67,392.69 213.8,395.5 221.12,391.68 211.9,388.92 				"/>
				<polygon class="st9" points="130.86,370.03 137.11,371.94 144.05,368.6 137.64,366.68 				"/>
				<polygon class="st9" points="212.5,404.82 205.02,402.46 197.63,406.32 205.43,408.88 				"/>
				<polygon class="st9" points="221.04,399.92 214.01,397.77 207.66,401.08 214.98,403.4 				"/>
				<polygon class="st9" points="216.67,396.38 223.55,398.49 230.52,394.49 224.02,392.54 				"/>
				<polygon class="st9" points="202.18,401.56 193.15,398.7 185.91,402.48 194.83,405.4 				"/>
				<polygon class="st9" points="241.54,397.79 233.3,395.33 226.31,399.34 234.42,401.83 				"/>
				<polygon class="st9" points="231.89,403.26 223.8,400.77 217.71,404.26 225.67,406.78 				"/>
				<polygon class="st9" points="146.94,369.54 140.08,372.85 145.33,374.47 152.55,371.14 147.05,369.5 				"/>
				<polygon class="st9" points="49.07,364.34 54.96,361.76 51.34,360.57 45.15,363.02 				"/>
				<polygon class="st9" points="50.75,358.16 57.86,360.49 63.96,357.82 56.75,355.53 				"/>
				<polygon class="st9" points="59.67,354.25 66.89,356.53 72.19,354.21 64.88,351.97 				"/>
				<polygon class="st9" points="79.97,369.96 75.73,368.57 69.16,371.12 73.92,372.73 				"/>
				<polygon class="st9" points="63.81,364.66 57.97,362.75 52.04,365.34 57.84,367.3 				"/>
				<polygon class="st9" points="69.94,357.5 73.04,358.48 78.11,356.03 75.28,355.16 				"/>
				<polygon class="st9" points="72.57,367.54 66.8,365.64 60.8,368.3 66.04,370.07 				"/>
				<polygon class="st9" points="122.03,367.31 127.93,369.13 134.68,365.79 128.91,364.07 				"/>
				<polygon class="st9" points="105.38,362.2 110.24,363.69 116.58,360.37 111.77,358.93 				"/>
				<polygon class="st9" points="80.59,360.87 85.87,358.41 81.07,356.94 75.97,359.41 				"/>
				<polygon class="st9" points="113.1,364.57 119.04,366.39 125.89,363.16 119.46,361.24 				"/>
				<polygon class="st9" points="103.38,356.48 96.61,359.51 102.49,361.31 108.85,358.06 103.47,356.45 				"/>
				<polygon class="st9" points="87.76,356.79 93.55,358.57 100.37,355.52 94.26,353.69 				"/>
				<polygon class="st9" points="78.24,353.87 84.78,355.87 91.25,352.79 84.98,350.91 				"/>
				<polygon class="st9" points="163.54,387.12 173.2,390.18 179.28,387.1 169.07,383.96 				"/>
				<polygon class="st9" points="176.07,391.09 182.96,393.27 189.04,390.1 182.19,387.99 				"/>
				<polygon class="st9" points="211.14,396.88 202.01,394.08 195.79,397.33 204.82,400.18 				"/>
				<polygon class="st9" points="185.8,394.16 192.95,396.43 199.14,393.2 191.9,390.98 				"/>
				<polygon class="st9" points="88.82,372.86 82.92,370.93 76.84,373.72 82.74,375.71 				"/>
				<polygon class="st9" points="134.73,378 141.79,380.24 146.9,377.16 140.03,375.05 				"/>
				<polygon class="st9" points="144.47,381.08 151.34,383.26 156.61,380.14 149.61,377.99 				"/>
				<polygon class="st9" points="154.04,384.11 160.81,386.26 166.31,383.11 159.33,380.97 				"/>
				<polygon class="st9" points="85.19,364.54 80.73,363.13 74.59,365.98 79.32,367.53 				"/>
				<polygon class="st9" points="75.15,352.92 81.86,349.98 71.59,346.9 71.61,346.96 64.09,349.52 				"/>
				<polygon class="st9" points="60.65,348.46 68.21,345.89 66.05,345.24 58.74,347.88 				"/>
				<polygon class="st9" points="259.37,400.93 269.7,404.02 272.38,402.5 262.2,399.38 				"/>
				<polygon class="st9" points="77.76,362.18 73.2,360.74 67.31,363.59 71.66,365.02 				"/>
				<polygon class="st9" points="126,375.24 131.96,377.13 137.24,374.19 131.25,372.35 				"/>
				<polygon class="st9" points="60.86,361.48 64.42,362.64 70.28,359.82 67.01,358.78 				"/>
				<polygon class="st9" points="116.67,372.29 123.23,374.36 128.45,371.49 121.75,369.43 				"/>
				<polygon class="st9" points="111.4,372.83 105.52,370.97 99.37,374.1 105.54,376.13 				"/>
				<polygon class="st9" points="120.68,375.77 114.15,373.7 108.26,377.02 114.62,379.1 				"/>
				<polygon class="st9" points="139.39,381.69 132.2,379.41 126.04,382.84 133.44,385.27 				"/>
				<polygon class="st9" points="180.32,394.64 173.39,392.45 166.28,396.04 173.26,398.33 				"/>
				<polygon class="st9" points="148.91,384.7 142.06,382.53 136.08,386.14 142.78,388.34 				"/>
				<polygon class="st9" points="170.51,391.54 151.61,385.55 145.45,389.21 163.45,395.11 				"/>
				<polygon class="st9" points="129.43,378.54 123.45,376.64 117.36,380 123.31,381.95 				"/>
				<polygon class="st9" points="100.13,367.05 105.33,368.7 110.61,366.01 105.41,364.41 				"/>
				<polygon class="st9" points="90.73,364.08 97.25,366.14 102.49,363.52 95.83,361.47 				"/>
				<polygon class="st9" points="102.66,370.06 97.41,368.4 91.16,371.41 96.55,373.18 				"/>
				<polygon class="st9" points="108.2,369.61 113.92,371.42 118.96,368.58 113.5,366.9 				"/>
				<polygon class="st9" points="83.56,361.81 87.86,363.17 92.93,360.58 88.88,359.34 				"/>
				<polygon class="st9" points="94.48,367.48 88.05,365.44 82.14,368.46 88.27,370.47 				"/>
				<polygon class="st9" points="47.75,357.18 53.7,354.57 46.52,352.3 40.02,354.64 				"/>
				<polygon class="st9" points="106.58,385.98 74.04,375 74.01,375.01 74,374.98 57.95,369.56 47.28,374.28 96.46,391.29 				"/>
				<polygon class="st9" points="27.65,367.49 37.84,362.77 33.14,361.18 22.09,365.57 				"/>
				<polygon class="st9" points="46.2,365.6 40.74,363.75 30.52,368.49 35.6,370.24 				"/>
				<polygon class="st9" points="54.99,368.56 49.17,366.6 38.54,371.26 44.36,373.27 				"/>
				<polygon class="st9" points="134.19,395.31 128.14,393.26 117.6,398.6 124.2,400.88 				"/>
				<polygon class="st9" points="115.31,388.93 109.34,386.92 99.19,392.23 104.81,394.18 				"/>
				<polygon class="st9" points="125.34,392.32 118.12,389.88 107.6,395.14 114.82,397.64 				"/>
				<polygon class="st9" points="96.02,352.02 100.18,349.83 92.68,347.54 87.97,349.6 				"/>
				<polygon class="st9" points="98.91,352.88 103.36,354.21 108.13,352.26 103.05,350.71 				"/>
				<polygon class="st9" points="151.5,401.15 136.89,396.22 126.87,401.81 140.74,406.6 				"/>
				<polygon class="st9" points="106.58,355.18 111.63,356.69 116.14,354.71 111.31,353.24 				"/>
				<polygon class="st9" points="33.08,358.94 33.13,358.92 33.15,358.97 42.06,361.97 48.21,359.55 36.8,355.81 30.52,358.08 				
					"/>
				<polygon class="st9" points="79.02,346.92 84.85,348.67 89.59,346.59 83.96,344.87 				"/>
				<polygon class="st9" points="61.79,351.02 55.44,349.07 49.78,351.12 56.62,353.28 				"/>
				<polygon class="st9" points="224.84,417.46 216.14,414.6 209.33,418.46 217.8,421.32 				"/>
				<polygon class="st9" points="256.78,402.36 249.37,406.42 259.83,409.63 267.16,405.47 				"/>
				<polygon class="st9" points="75.82,345.97 80.79,343.9 74.81,342.07 69.38,344.04 				"/>
				<polygon class="st9" points="246.79,407.83 240.27,411.4 250.84,414.75 257.32,411.06 				"/>
				<polygon class="st9" points="218.01,423.61 207.14,429.56 218.1,433.35 228.82,427.26 				"/>
				<polygon class="st9" points="237.72,412.8 230.12,416.97 240.78,420.46 248.34,416.17 				"/>
				<polygon class="st9" points="30.54,360.13 27.33,359.23 15.79,363.39 19.04,364.51 				"/>
				<polygon class="st9" points="215.29,422.69 206.87,419.85 196.32,425.82 204.45,428.63 				"/>
				<polygon class="st9" points="182.75,411.7 173.94,408.73 163.16,414.35 171.89,417.37 				"/>
				<polygon class="st9" points="204.19,418.94 196.59,416.38 196.39,416.49 196.27,416.27 185.51,412.64 174.63,418.32 
					193.67,424.9 				"/>
				<polygon class="st9" points="171.17,407.79 164.19,405.44 153.51,411.01 160.42,413.41 				"/>
				<polygon class="st9" points="238.3,421.87 227.59,418.36 220.52,422.23 231.27,425.86 				"/>
				<polygon class="st9" points="114.75,357.62 119.29,358.98 123.71,357.03 119.23,355.66 				"/>
				<polygon class="st9" points="161.43,404.5 154.31,402.1 143.51,407.56 150.76,410.07 				"/>
				<polygon class="st9" points="167.54,373.43 174.48,375.51 178.05,373.65 171.73,371.72 				"/>
				<polygon class="st9" points="202.97,410.29 195.02,407.68 188.1,411.29 196.36,414.08 				"/>
				<polygon class="st9" points="180.51,402.92 173.45,400.61 166.78,404.09 173.76,406.44 				"/>
				<polygon class="st9" points="253.94,401.51 244.34,398.63 237.19,402.68 246.56,405.55 				"/>
				<polygon class="st9" points="213.43,413.71 205.67,411.17 199.03,414.98 206.65,417.55 				"/>
				<polygon class="st9" points="243.98,406.97 234.67,404.11 228.41,407.65 237.49,410.52 				"/>
				<polygon class="st9" points="223.16,408.2 215.23,405.69 208.13,409.76 215.91,412.31 				"/>
				<polygon class="st9" points="234.94,411.92 225.91,409.07 218.62,413.2 227.37,416.07 				"/>
				<polygon class="st9" points="192.22,406.76 183.3,403.84 176.52,407.38 185.34,410.35 				"/>
				<polygon class="st9" points="115.15,381.49 108.77,379.4 102.55,382.4 109.16,384.63 				"/>
				<polygon class="st9" points="124.23,384.47 117.94,382.41 111.92,385.56 117.96,387.6 				"/>
				<polygon class="st9" points="105.88,378.46 100.5,376.69 94.66,379.73 99.69,381.43 				"/>
				<polygon class="st9" points="160.79,396.46 137.15,388.71 130.78,391.93 154.14,399.82 				"/>
				<polygon class="st9" points="170.65,399.69 163.62,397.39 156.94,400.77 164.01,403.15 				"/>
				<polygon class="st9" points="134.32,387.78 127.07,385.4 120.78,388.55 127.98,390.98 				"/>
				<polygon class="st9" points="140.62,365.37 146.94,367.26 151.31,365.47 144.9,363.51 				"/>
				<polygon class="st9" points="150.15,368.22 155.47,369.82 159.67,368.03 154.49,366.44 				"/>
				<polygon class="st9" points="158.63,370.76 164.34,372.47 168.55,370.74 162.8,368.99 				"/>
				<polygon class="st9" points="177.38,376.38 183.16,378.11 183.15,378.1 186.87,376.35 180.93,374.53 				"/>
				<polygon class="st9" points="97.7,375.77 91.75,373.82 85.63,376.68 91.89,378.8 				"/>
				<polygon class="st9" points="131.71,362.7 137.49,364.43 141.8,362.56 135.77,360.72 				"/>
				<polygon class="st9" points="122.4,359.91 128.74,361.81 132.82,359.81 126.79,357.97 				"/>
				<polygon class="st9" points="226.7,391.15 233.04,393.05 235.98,391.36 229.86,389.49 				"/>
				<polygon class="st9" points="214.58,387.52 223.8,390.28 226.99,388.62 217.84,385.82 				"/>
				<polygon class="st9" points="259.38,398.52 249.74,395.57 246.88,397.19 256.54,400.08 				"/>
				<polygon class="st9" points="235.82,393.88 244.08,396.35 246.96,394.72 238.74,392.21 				"/>
				<polygon class="st9" points="186.17,379.01 191.9,380.73 195.55,379 189.87,377.26 				"/>
				<polygon class="st9" points="194.92,381.63 201.49,383.6 204.85,381.84 198.55,379.92 				"/>
				<polygon class="st9" points="204.38,384.46 211.68,386.65 214.97,384.94 207.72,382.72 				"/>
			</g>
			<polygon class="st5" points="219.59,435.71 219.11,442.19 276.18,410.39 276.78,403.16 			"/>
			<polygon class="st5" points="268.48,414.6 268.48,422.44 275.79,418.49 276.18,410.39 			"/>
			<polygon class="st6" points="268.48,422.44 258.41,420.46 268.68,414.6 			"/>
			<polygon class="st5" points="219.11,442.19 11.2,369.11 11.24,363.45 219.59,435.71 			"/>
		</g>
	</g>
</g>
<g id="Device">
	<g>
		<g>
			<g>
				<polygon class="st9" points="266.21,323.65 205.75,345.45 316.11,373.55 377.7,347.47 				"/>
				<polygon class="st5" points="205.75,345.45 205.75,348.87 315.93,378.05 316.11,373.55 				"/>
				<polygon class="st5" points="316.11,373.55 377.7,347.47 377.25,351.24 315.93,378.05 				"/>
			</g>
			<polygon class="st5" points="273.33,296.45 270.84,335.01 267.36,336.51 330.3,351.43 333.78,349.94 336.52,308.15 			"/>
			<polygon class="st9" points="269.85,297.95 267.36,336.51 330.3,351.43 333.04,309.64 			"/>
			<g>
				<path class="st5" d="M476.85,54.81l-3.77-1.43l-5.26,0.32l-0.44,1.44L173.48,72.64c-1.6,0.09-2.91,1.33-3.07,2.93l-19.43,200.89
					c-0.15,1.37,0.79,2.63,2.14,2.89l274.08,52.52l-3.04,1.83l12.15,2.35l1.41-0.19l3.43-1.66c1.1-0.32,1.98-1.25,2.14-2.47
					L478.86,58C479.05,56.54,478.15,55.25,476.85,54.81z"/>
				<path class="st6" d="M168.64,73.64L147,278.12c-0.15,1.37,0.79,2.63,2.14,2.89l286.66,54.93c1.68,0.32,3.29-0.84,3.51-2.54
					l35.58-276.86c0.24-1.85-1.26-3.46-3.12-3.35L171.71,70.71C170.11,70.8,168.81,72.04,168.64,73.64z"/>
				<polygon class="st7" points="175.23,79.82 157.01,249.42 431.27,291.49 462.17,63.92 				"/>
				<g>
					<path class="st2" d="M205.43,192.22c43.9-13.44,93.05-28.24,138.46-41.36c46.02-13.29,83.03-18.29,108.92-19.77"/>
					<path class="st2" d="M172.77,105.18c0,0,88.62,2.05,185.43,41.59"/>
					<path class="st2" d="M243.2,263.46c0,0,67.29-63.14,131.02-96.38c53.68-28,76.8-28.67,76.8-28.67"/>
				</g>
				<path class="st5" d="M149.14,281.01l286.66,54.93c1.68,0.32,3.29-0.84,3.51-2.54l3.46-26.89l-293.71-47.83L147,278.12
					C146.85,279.5,147.78,280.75,149.14,281.01z"/>
			</g>
		</g>
		<g>
			<polygon class="st9" points="157.01,249.42 198.4,255.77 207.14,176.65 165.15,173.64 			"/>
			<g>
				<polygon class="st10" points="202.55,201.2 193.76,200.19 190.44,226.19 199.65,227.38 				"/>
				<path class="st10" d="M189.01,198.45c-0.01,0.07-0.03,0.13-0.06,0.18l13.71,1.58l2.22-20.13l-13.28-0.95L189.01,198.45z"/>
				<polygon class="st10" points="189.45,226.06 192.77,200.08 179.65,198.57 176.45,224.38 				"/>
				<polygon class="st10" points="192.21,227.43 176.33,225.37 173.46,248.47 189.45,250.92 				"/>
				<path class="st10" d="M188.03,198.53c-0.02-0.07-0.03-0.14-0.02-0.21l2.58-19.26l-8.45-0.61l-2.38,19.13L188.03,198.53z"/>
				<polygon class="st10" points="193.2,227.56 190.44,251.07 196.93,252.07 199.54,228.38 				"/>
			</g>
		</g>
	</g>
</g>
</svg>
