<?xml version="1.0" encoding="utf-8"?>
<!-- Generator: Adobe Illustrator 27.7.0, SVG Export Plug-In . SVG Version: 6.00 Build 0)  -->
<svg version="1.1" xmlns="http://www.w3.org/2000/svg" xmlns:xlink="http://www.w3.org/1999/xlink" x="0px" y="0px"
	 viewBox="0 0 500 500" style="enable-background:new 0 0 500 500;" xml:space="preserve">
<style type="text/css">
	.st0{opacity:0.8;enable-background:new    ;}
	.st1{fill:#ECD1AE;stroke:#ECD1AE;stroke-linecap:round;stroke-linejoin:round;stroke-miterlimit:10;}
	.st2{fill:#BEAD99;stroke:#BEAD99;stroke-linecap:round;stroke-linejoin:round;stroke-miterlimit:10;}
	.st3{fill:none;stroke:#BEAD99;stroke-linecap:round;stroke-linejoin:round;stroke-miterlimit:10;}
	.st4{fill:#FFFFFF;stroke:#BEAD99;stroke-linecap:round;stroke-linejoin:round;stroke-miterlimit:10;}
	.st5{fill:#291D10;stroke:#291D10;stroke-linecap:round;stroke-linejoin:round;stroke-miterlimit:10;}
	.st6{fill:none;stroke:#291D10;stroke-width:2;stroke-linecap:round;stroke-linejoin:round;stroke-miterlimit:10;}
	.st7{fill:none;stroke:#291D10;stroke-width:3;stroke-linecap:round;stroke-linejoin:round;stroke-miterlimit:10;}
	.st8{fill:#D58129;}
	.st9{fill:#FFFFFF;stroke:#291D10;stroke-linecap:round;stroke-linejoin:round;stroke-miterlimit:10;}
	.st10{fill:#D58129;stroke:#291D10;stroke-linecap:round;stroke-linejoin:round;stroke-miterlimit:10;}
	.st11{fill:#BEAD99;stroke:#291D10;stroke-linecap:round;stroke-linejoin:round;stroke-miterlimit:10;}
	.st12{fill:none;stroke:#291D10;stroke-linecap:round;stroke-linejoin:round;stroke-miterlimit:10;}
	.st13{fill:#FFFFFF;}
	.st14{fill:#291D10;}
	.st15{fill:#92E3A9;}
	.st16{fill:#FFFFFF;stroke:#263238;stroke-linecap:round;stroke-linejoin:round;stroke-miterlimit:10;}
</style>
<g id="Background_Simple">
	<g class="st0">
		<path class="st1" d="M342.11,42.7c0,0-76.99-27.38-152.56,16.21c-75.57,43.58-113.7,130.1-146.45,199.41
			c-32.75,69.3-13.9,139.8,43.79,171.94c57.69,32.14,96.92-15.24,177.84-17.55c80.93-2.31,102.69,9.26,169.85-36.45
			c67.15-45.72,79.29-153.69,26.32-233.58C407.93,62.79,342.11,42.7,342.11,42.7z"/>
	</g>
</g>
<g id="Picture">
	<g>
		<path class="st2" d="M138,31v142h247V31H138z M376.3,165H146.7V39H376.3V165z"/>
		<path class="st3" d="M146.52,95c0,0,75.73-39.11,81.32-29.17c5.59,9.93-32.9,35.38-16.76,44.69
			c16.14,9.31,102.42-69.52,117.94-50.9c15.52,18.62-27.93,68.28-14.28,73.87c13.66,5.59,42.83-21.73,49.04-14.9
			c6.21,6.83-9.93,34.14-3.1,37.86c6.83,3.72,14.9-3.1,14.9-3.1"/>
		
			<ellipse transform="matrix(0.2314 -0.9729 0.9729 0.2314 141.7937 299.9613)" class="st3" cx="260.74" cy="60.24" rx="16.76" ry="16.76"/>
		
			<ellipse transform="matrix(0.2288 -0.9735 0.9735 0.2288 80.6906 208.0615)" class="st3" cx="171.66" cy="53.1" rx="9.62" ry="9.62"/>
		<path class="st3" d="M202.39,122.31c0,2.4-1.95,4.35-4.35,4.35c-2.4,0-4.35-1.95-4.35-4.35c0-2.4,1.95-4.35,4.35-4.35
			C200.44,117.97,202.39,119.92,202.39,122.31z"/>
		<path class="st3" d="M356.95,69.86c0,2.23-1.81,4.03-4.03,4.03c-2.23,0-4.03-1.81-4.03-4.03c0-2.23,1.81-4.03,4.03-4.03
			C355.15,65.83,356.95,67.63,356.95,69.86z"/>
		
			<ellipse transform="matrix(0.8982 -0.4396 0.4396 0.8982 -35.3791 142.751)" class="st3" cx="290.53" cy="147.76" rx="11.17" ry="11.17"/>
	</g>
	<g>
		<g>
			<line class="st3" x1="28.81" y1="248" x2="474.81" y2="248"/>
			<line class="st3" x1="46.31" y1="261.37" x2="474.81" y2="261.37"/>
			<line class="st3" x1="28.81" y1="261.37" x2="37.63" y2="261.37"/>
		</g>
		<path class="st3" d="M467.7,284.53H328.58c0,4.55-3.93,8.24-8.77,8.24v147.57c4.84,0,8.77,3.69,8.77,8.24
			c0,0.48-0.05,0.95-0.14,1.41H465.9"/>
		<path class="st3" d="M30.54,284.53h48.09c0,4.55,3.81,8.24,8.51,8.24v147.57c-4.7,0-8.51,3.69-8.51,8.24
			c0,0.48,0.05,0.95,0.13,1.41H38.34"/>
		<path class="st3" d="M295.22,284.53h-47.37H156.1h-47.8c0,4.55-3.94,8.24-8.79,8.24v147.57c4.86,0,8.79,3.69,8.79,8.24
			c0,0.48-0.05,0.95-0.14,1.41h49.74h88.15h49.31c-0.08-0.46-0.14-0.93-0.14-1.41c0-4.55,3.93-8.24,8.77-8.24V292.78
			C299.15,292.78,295.22,289.09,295.22,284.53z"/>
	</g>
</g>
<g id="Lamps">
	<g>
		<circle class="st4" cx="459.81" cy="89.74" r="21.67"/>
		<path class="st5" d="M439.99,81h39.65c-3.36-7.61-10.97-12.92-19.82-12.92C450.96,68.08,443.35,73.39,439.99,81z"/>
		<line class="st6" x1="460.01" y1="64.02" x2="460.01" y2="22"/>
		<rect x="457.53" y="62" class="st5" width="4.56" height="7.6"/>
	</g>
	<g>
		<circle class="st4" cx="51.81" cy="89.74" r="21.67"/>
		<path class="st5" d="M31.99,81h39.65c-3.36-7.61-10.97-12.92-19.82-12.92C42.96,68.08,35.35,73.39,31.99,81z"/>
		<line class="st6" x1="52.01" y1="64.02" x2="52.01" y2="22"/>
		<rect x="49.53" y="62" class="st5" width="4.56" height="7.6"/>
	</g>
</g>
<g id="Plants">
	<g>
		<g>
			<g>
				<path class="st7" d="M418.43,232.99c0,0,0.52,65.56,0.52,82.87c0,17.32,0,17.31-0.52,121.01"/>
				<polygon class="st8" points="457.77,249.77 441.51,236.14 487.14,241.38 446.75,228.27 488.19,220.93 441.51,220.93 
					477.7,193.65 436.79,214.11 460.39,173.72 428.92,209.91 439.93,156.94 419.48,206.24 417.38,151.17 413.18,207.29 
					390.87,157.71 406.37,212.01 372.98,175.59 402.17,220.4 360.85,190.92 399.55,228.27 355.74,204.33 395.88,231.42 
					359.57,226.69 394.83,236.66 366.6,241.38 395.88,240.33 378.57,251.87 419.48,240.86 				"/>
				<polygon class="st8" points="457.77,392.77 441.51,379.14 487.14,384.38 446.75,371.27 488.19,363.93 441.51,363.93 
					477.7,336.65 436.79,357.11 460.39,316.72 428.92,352.91 439.93,299.94 419.48,349.24 417.38,294.17 413.18,350.29 
					390.87,300.71 406.37,355.01 372.98,318.59 402.17,363.4 360.85,333.92 399.55,371.27 355.74,347.33 395.88,374.42 
					359.57,369.69 394.83,379.66 366.6,384.38 395.88,383.33 378.57,394.87 419.48,383.86 				"/>
			</g>
			<path class="st7" d="M402.7,299.08c0,0-1.57,13.64-0.52,18.88c1.05,5.24,1.57,11.54,1.57,18.36c0,6.82,0.52,35.8,0.52,40.52
				c0,4.75-0.52,44.79-0.52,48.5c0,3.67,0,6.29,0,8.39c0,2.1,0,4.2,0,4.2"/>
			<path class="st7" d="M404.27,371.59c0,0,2.1-39.99,4.2-45.24c2.03-5.08,3.67-3.61,4.2-9.97c0.52-6.29,0.52-8.92,1.57-11.01
				c1.05-2.1,2.1-5.77,2.1-5.77l1.05-4.2"/>
			<polygon class="st8" points="441.51,312.71 425.25,299.08 470.88,304.32 430.49,291.21 471.93,283.87 425.25,283.87 
				461.44,256.59 420.53,277.05 444.13,236.66 412.66,272.85 423.67,219.88 403.22,269.18 401.12,214.11 396.93,270.23 
				380.67,219.35 390.11,274.95 361.26,233.52 385.91,283.34 348.08,258.62 383.29,291.21 344.24,275.23 379.62,294.36 
				342.97,291.19 378.57,299.6 353.82,305.24 379.62,303.27 362.31,314.81 403.22,303.8 			"/>
		</g>
		<path class="st5" d="M388.33,423.05l-11.23,18.71c-1.72,2.87-2.21,6.32-1.34,9.56l4.99,18.59c0.73,2.71,3.18,4.59,5.98,4.59h51.14
			c2.8,0,5.26-1.88,5.98-4.59l4.99-18.59c0.87-3.24,0.39-6.69-1.34-9.56l-11.23-18.71c-0.77-1.28-2.15-2.06-3.64-2.06h-40.68
			C390.47,421,389.09,421.78,388.33,423.05z"/>
	</g>
</g>
<g id="Character_2">
	<g>
		<g>
			<g>
				<path class="st9" d="M354.32,157.5c0,0,0.25-11.07,0.98-12.79c0.74-1.72,2.71-4.43,4.18-4.92c1.48-0.49,5.41-1.72,6.64-2.46
					c1.23-0.74,6.15-5.66,6.15-5.66s3.93-0.98,4.18,0.25c0.25,1.23-5.66,6.64-5.66,6.64l2.46,0.98l13.03,0.25l7.62-7.62
					c0,0,2.71-1.72,2.46,0c-0.25,1.72-7.62,11.31-8.36,11.31c-0.74,0-22.13,7.87-22.13,7.87l-2.46,9.59L354.32,157.5z"/>
				<path class="st9" d="M377.68,146.44c0,0,5.16-1.48,5.9-2.71s6.15-12.05,6.64-12.79c0.49-0.74-2.71-0.25-3.93,0
					c-1.23,0.25-4.67,10.82-4.67,10.82l-5.41,1.72L377.68,146.44z"/>
				<path class="st9" d="M379.54,144.56c0,0,5.36-0.33,6.35-1.37c0.99-1.04,8.61-10.44,9.24-11.05c0.64-0.61-2.59-0.82-3.84-0.85
					c-1.25-0.03-6.9,9.56-6.9,9.56l-5.65,0.51L379.54,144.56z"/>
				<path class="st9" d="M358.74,150.86c0,0-0.25-4.92,2.95-7.38c3.2-2.46,13.28-2.71,13.28-2.71s4.92-9.59,6.15-9.59
					c1.23,0,4.18-1.23,3.93,0c-0.25,1.23-3.2,6.15-4.43,8.61c-1.23,2.46-1.72,5.66-2.95,6.64c-1.23,0.98-8.36,2.71-8.36,2.71"/>
			</g>
			<polygon class="st10" points="350.38,165.62 353.09,156.52 365.38,158.49 362.43,169.8 			"/>
			<g>
				<path class="st10" d="M300.95,155.78c0,0,10.82,2.95,12.79,6.64c1.97,3.69,18.44,30.25,19.43,31.97s1.72,3.2,1.72,3.2
					s12.05-29.26,12.54-30.99c0.49-1.72,4.67-2.21,5.9-2.21c1.23,0,12.54,0.74,13.03,3.69c0.49,2.95-14.26,59.02-15.74,60.25
					c-1.48,1.23-5.41,1.72-7.87,0.98c-2.46-0.74-34.68-16.97-34.68-16.97L300.95,155.78z"/>
				<path class="st10" d="M334.89,197.59c0,0-2.94,7.09-3.91,12.43"/>
				<path class="st10" d="M326.79,208.93c-0.24,0.65-0.47,1.33-0.67,2.05"/>
				<path class="st10" d="M331.22,201.28c0,0-1.73,1.86-3.34,5.13"/>
			</g>
		</g>
		<path class="st5" d="M240.85,252.03l-8.79,103.09l-5.41,89.57c0,0-3.04,3.72-2.7,5.41s2.03,6.42,2.03,6.42s-5.07,14.53-3.72,15.55
			c1.35,1.01,4.06,2.37,4.06,2.37h13.86c0,0,2.7-2.7,2.37-4.73c-0.34-2.03-2.37-14.2-2.37-14.2s3.04-5.41,3.38-6.76
			s-1.69-8.45-1.69-8.45l32.45-124.38c0,0,13.86,77.74,17.24,95.65c3.38,17.91,9.99,62.4,9.99,62.4h7.1l1.01-3.04
			c0,0,0.34-0.68,3.72,1.35c3.38,2.03,6.42,1.69,6.42,1.69h17.58c0,0,1.35-1.69,0.34-2.03c-1.01-0.34-14.87-9.7-17.24-11.72
			c-2.37-2.03-6.42-7.44-6.42-7.44s2.37-6.08,2.37-7.1s-3.04-6.76-3.04-6.76l-2.21-90.56l1.01-93.96L240.85,252.03z"/>
		<path class="st5" d="M252.17,152.01l-21.35,10.24l10.34,66.46l-1.05,26.37c0,0,17.72,9.71,37.77,9.07
			c20.04-0.63,35.23-7.81,35.23-7.81l1.05-57.6c0,0-2.11-28.06-4.64-32.7c-2.53-4.64-3.8-6.75-7.38-9.49
			c-3.59-2.74-14.56-5.91-14.56-5.91s-19.83-1.69-20.47-1.69C266.48,148.96,252.17,152.01,252.17,152.01z"/>
		<polygon class="st10" points="275.46,176.27 288,198.96 290.95,172.17 282.09,159.3 275.55,174.07 		"/>
		<polygon class="st10" points="283,163.81 290.54,173.98 292.51,152.01 287.92,146.44 		"/>
		<polygon class="st9" points="255.45,129.38 257.09,147.42 283,163.81 294.15,133.32 		"/>
		<path class="st5" d="M256.43,140.08c3.37,1.42,7.49,2.47,12.13,2.27c9.03-0.39,19.45-4.41,24.74-6.7l0.85-2.33l-38.69-3.93
			L256.43,140.08z"/>
		<polygon class="st10" points="283,163.81 275.46,176.27 252.17,152.01 255.78,146.11 		"/>
		<g>
			<path class="st9" d="M312.51,236.2c0,0,9.59-8.12,10.82-8.12c1.23,0,7.38,4.67,7.38,4.67s6.15-0.74,6.39,0.74
				c0.25,1.48-0.98,5.66-0.98,5.66l-1.48,1.48c0,0-4.18,6.39-4.18,7.38c0,0.98-5.41,0.74-7.87,1.23c-2.46,0.49-9.35-1.23-9.35-1.23
				L312.51,236.2z"/>
			<path class="st10" d="M251.03,185.51c-0.02-5.92-2.77-11.5-7.45-15.14c-3.94-3.07-8.84-6.76-10.51-7.46
				c-2.95-1.23-4.43-0.74-8.61,2.21c-4.18,2.95-5.66,9.1-5.41,19.18c0.25,10.08,7.38,63.2,8.12,65.42c0.74,2.21,2.95,2.71,4.92,2.95
				c1.97,0.25,69.76-2.07,71.07-2.21c4.67-0.49,5.44-6.86,5.16-9.84c-0.49-5.41-5.16-7.13-12.3-7.87
				c-7.13-0.74-42.05-4.92-43.28-5.16c-1.23-0.25-2.46-0.74-2.46-0.74s0.74-28.77,0.74-36.64
				C251.03,188.45,251.04,186.9,251.03,185.51z"/>
			<path class="st10" d="M236.83,235.58c-0.82,0.9-1.52,1.85-2.03,2.83"/>
			<path class="st10" d="M250.29,226.85c0,0-5.74,2.34-10.43,5.98"/>
			<path class="st10" d="M234.3,232.26c0,0,5.66-7.62,14.51-5.66"/>
		</g>
		<g>
			<rect x="357.59" y="104.86" class="st9" width="2.28" height="21.47"/>
			<rect x="350.11" y="126.33" class="st9" width="17.24" height="0.98"/>
			<path class="st9" d="M358.73,106.82L358.73,106.82c-4.85,0-8.78-3.93-8.78-8.78l1.76-15.94h14.05l1.76,15.94
				C367.51,102.88,363.58,106.82,358.73,106.82z"/>
		</g>
		<g>
			<path class="st5" d="M387.55,70.56L386.74,52h-2.79h-1.33h-2.79l-0.81,18.56c-0.08,1.79-0.43,3.55-1.04,5.23l-4.01,10.98
				c-0.78,2.13-1.18,4.38-1.18,6.65v35.89h7.7h5.58h7.7V93.42c0-2.27-0.4-4.52-1.18-6.65l-4.01-10.98
				C387.98,74.11,387.63,72.35,387.55,70.56z"/>
			<rect x="373.72" y="97.43" class="st9" width="19" height="25.64"/>
			<path class="st11" d="M387.46,68.34c0-0.05-0.01-0.1-0.01-0.16l-0.64-14.69c-0.04-0.83-0.72-1.49-1.55-1.49h-1.3h-1.33h-1.3
				c-0.83,0-1.52,0.66-1.55,1.49l-0.64,14.69c0,0.05-0.01,0.1-0.01,0.16H387.46z"/>
		</g>
		<polygon class="st11" points="424.9,131.19 331.69,131.19 326.77,127.25 430.8,127.25 		"/>
		<polygon class="st9" points="264.17,228.38 264.51,286.85 313.51,286.85 314.48,235.71 		"/>
		<g>
			<g>
				<path class="st9" d="M278.97,90.04c0,0,4.92,0.98,7.88,6.65c2.95,5.66,11.08,29.3,11.32,32.5c0.25,3.2-3.2,4.19-7.14,6.65
					c-3.94,2.46-16.74,4.43-23.88,1.97c-7.14-2.46-8.62-6.4-8.62-6.4s-2.71,3.2-7.88-0.25c-5.17-3.45-6.15-8.12-4.19-9.85
					c1.97-1.72,5.17-0.25,5.17-0.25s-5.42-13.29-4.92-17.97c0.49-4.68,0.74-9.35,8.62-12.56C263.22,87.33,278.97,90.04,278.97,90.04
					z"/>
				<path class="st9" d="M279.22,100.62c0,0,0.98,3.2,2.22,3.69c1.23,0.49,7.63-1.48,8.12,1.23c0.49,2.71-1.97,7.14-1.97,7.14"/>
				<path class="st9" d="M289.56,117.12c0,0-6.15,5.42-12.31,0.49"/>
				<line class="st9" x1="267.16" y1="108.5" x2="274.05" y2="106.04"/>
				<path class="st9" d="M271.83,98.65c0,0-5.42-2.95-8.12,2.46"/>
				<path class="st9" d="M278.97,98.16c0,0,2.46-4.43,6.89-0.74"/>
				<path class="st5" d="M271.66,107.69c0.12,0.35-0.34,0.82-1.01,1.04c-0.67,0.22-1.32,0.12-1.43-0.23
					c-0.12-0.35,0.34-0.82,1.01-1.04C270.9,107.24,271.54,107.34,271.66,107.69z"/>
			</g>
			<path class="st5" d="M249.68,117.12c0,0,1.48,5.17,2.46,5.42c0.98,0.25,5.17,0.98,4.92-1.48c-0.25-2.46-4.68-11.08-4.19-14.03
				s6.15-7.14,4.92-8.86c-1.23-1.72-3.2-1.48-2.46-2.71c0.74-1.23,12.56-5.17,16.99-5.17c4.43,0,6.4-0.25,8.37-1.72
				c1.97-1.48,4.92-7.39-4.19-7.63s-24.13,5.91-29.3,12.8c-5.17,6.89-2.71,12.31-1.23,15.02
				C247.46,111.46,249.68,117.12,249.68,117.12z"/>
		</g>
		<polygon class="st5" points="283.79,168.78 273.89,166.67 275.93,177.06 284.16,170.77 293.33,174.94 291.64,164.33 		"/>
	</g>
</g>
<g id="Character_1">
	<g>
		<path class="st9" d="M174.63,220.79l3.23,16.39c0,0,1.74,2.48,7.45,4.97c5.71,2.48,8.45,0.5,8.45-3.48
			c0-3.97-1.99-25.34-1.99-25.34L174.63,220.79z"/>
		<polygon class="st5" points="175.65,226.74 192.42,222.16 191.77,213.34 174.63,220.79 		"/>
		<path class="st9" d="M85.95,206.39L78,228.99l5.96,4.47c0,0,4.97,0.5,8.2-1.74c3.23-2.24,11.18-20.62,11.18-20.62L85.95,206.39z"
			/>
		<polygon class="st5" points="84.19,211.28 100.96,216.28 103.34,211.11 85.71,205.61 		"/>
		<g>
			<path class="st9" d="M147.47,337.05c0,0,2.32,29.15,2.32,35.44s-2.65,20.2-0.99,27.82c1.66,7.62,7.29,31.13,7.29,38.75
				s-4.31,21.2-1.99,23.85c2.32,2.65,6.62,3.31,7.95,5.96c1.32,2.65,1.99,3.31,4.31,4.31c2.32,0.99,11.59,1.66,13.58,0.99
				c1.99-0.66,0.99-2.32-2.32-6.96c-3.31-4.64-10.93-13.58-12.25-17.55c-1.32-3.97,6.96-35.77,7.29-49.02
				c0.33-13.25-0.33-30.14-0.33-30.14s4.31-29.81,4.31-35.77L147.47,337.05z"/>
			<path class="st5" d="M148.31,347.98c8.07-0.43,17.34-1.77,27.58-4.6c0.44-3.87,0.73-7.08,0.73-8.64l-29.15,2.32
				C147.47,337.05,147.85,341.85,148.31,347.98z"/>
			<path class="st9" d="M171.65,363.88c0,0-0.33,8.61-3.31,13.25"/>
			<path class="st5" d="M179.93,474.17c1.99-0.66,0.99-2.32-2.32-6.96c-0.57-0.8-1.28-1.73-2.05-2.74
				c-3.94,2.49-9.64,0.93-11.86-1.57c-2.02-2.28-7.13-7.83-9.43-10.33c-0.81,4.79-1.35,8.98-0.17,10.33
				c2.32,2.65,6.62,3.31,7.95,5.96c1.32,2.65,1.99,3.31,4.31,4.31C168.67,474.17,177.94,474.83,179.93,474.17z"/>
		</g>
		<g>
			<path class="st9" d="M116.01,337.71c0,0,4.97,31.13,5.63,32.13c0.66,0.99,0,28.48,3.31,37.76c3.31,9.27,11.92,38.42,12.25,43.06
				c0.33,4.64-10.6,13.91-15.24,16.89c-4.64,2.98-5.96,4.97-2.98,5.96c2.98,0.99,13.58,0,17.89-0.33
				c4.31-0.33,10.08,1.27,11.07-0.06c0.99-1.32-0.47-20.15-0.47-25.78c0-5.63,1.32-45.71-0.66-58.96
				c-1.99-13.25-3.97-24.84-3.97-24.84l0.66-27.16l-29.15-0.99L116.01,337.71z"/>
			<path class="st5" d="M116.01,337.71c0,0,0.49,3.08,1.18,7.32c4.6,1.3,13.61,3.23,26.02,3.11l0.29-11.76l-29.15-0.99
				L116.01,337.71z"/>
			<path class="st9" d="M122.63,363.21c0,0,0.66,9.94,4.64,14.57"/>
			<path class="st5" d="M147.94,473.12c0.38-0.51,0.37-3.43,0.22-7.16c-5.16,0.74-14.27,0.27-14.27,0.27
				c-2.32-4.64-5.96-2.65-5.96-2.65l-0.68-0.02c-2.01,1.69-3.92,3.11-5.28,3.99c-4.64,2.98-5.96,4.97-2.98,5.96
				c2.98,0.99,13.39,0.94,17.69,0.6C140.99,473.78,146.95,474.44,147.94,473.12z"/>
		</g>
		<path class="st10" d="M100.11,311.21l-0.99,26.83c0,0,22.52,6.29,41.73,6.62s44.38-7.62,44.38-7.62l-1.32-29.48l-83.13-1.32
			L100.11,311.21z"/>
		<path class="st5" d="M116.75,233.71c0,0-18.63,47.36-23.27,83.13c0,0,27.16,7.62,53.99,6.29c26.83-1.32,42.73-8.61,42.73-8.61
			s-8.28-54.98-22.03-77.83L116.75,233.71z"/>
		<path class="st5" d="M152.44,89.63c0,0-1.32-8.61-9.94-6.96c-8.61,1.66-8.28,4.64-9.6,7.62c-1.32,2.98-20.2,6.62-24.51,17.89
			s6.29,14.9,6.29,20.87c0,5.96-13.25,10.6-10.27,17.55c2.98,6.96,13.91,8.28,12.92,10.6c-0.99,2.32-8.94,5.96-2.98,11.26
			c5.96,5.3,32.79,10.6,47.03,7.95c14.24-2.65,17.89-13.91,15.24-17.55c-2.65-3.64-4.64-5.3-2.65-8.94
			c1.99-3.64,12.25-7.29,8.94-17.22c-3.31-9.94-12.25-11.59-11.92-17.22c0.33-5.63,10.27-9.27,1.99-17.22
			C164.69,90.3,152.44,89.63,152.44,89.63z"/>
		<g>
			<path class="st9" d="M128.67,159.19l-26.83,7.7l14.9,66.82c0,0,6.96,4.47,22.11,5.46c15.15,0.99,29.31-2.48,29.31-2.48
				l14.66-67.32l-25.59-8.2L128.67,159.19z"/>
			<g>
				<path class="st8" d="M123.47,160.68l-0.97,0.28l10.55,77.62c0.34,0.05,0.68,0.09,1.02,0.13L123.47,160.68z"/>
				<path class="st8" d="M129.34,159.24l-0.67-0.05l-0.32,0.09l8.49,79.73c0.33,0.03,0.67,0.06,1.01,0.08L129.34,159.24z"/>
				<path class="st8" d="M136.36,159.72l-1-0.07l6.18,79.65c0.33,0.01,0.67,0.02,1,0.03L136.36,159.72z"/>
				<path class="st8" d="M117.37,162.43l-0.96,0.28l13.25,75.31c0.34,0.07,0.69,0.13,1.04,0.19L117.37,162.43z"/>
				<path class="st8" d="M110.99,164.26l14.34,72.78c0.34,0.09,0.7,0.18,1.07,0.27l-14.45-73.32L110.99,164.26z"/>
				<path class="st8" d="M150.23,160.69l-0.99-0.07l1.31,78.54c0.33-0.02,0.66-0.04,0.99-0.06L150.23,160.69z"/>
				<path class="st8" d="M120.32,235.4c0.34,0.14,0.71,0.27,1.1,0.42l-14.89-70.28l-0.96,0.27L120.32,235.4z"/>
				<path class="st8" d="M174.22,166.61l-9.61,70.82c0.37-0.07,0.71-0.13,1.03-0.2l9.54-70.31L174.22,166.61z"/>
				<path class="st8" d="M179.62,168.35l-0.95-0.31l-12.24,69.03c0.42-0.09,0.78-0.16,1.05-0.22L179.62,168.35z"/>
				<path class="st8" d="M169.37,165.06l-0.97-0.31l-8,73.38c0.35-0.05,0.69-0.1,1.02-0.15L169.37,165.06z"/>
				<path class="st8" d="M157.35,161.21l-0.11-0.04l-0.88-0.06l-3.68,77.9c0.34-0.03,0.67-0.05,1-0.08L157.35,161.21z"/>
				<path class="st8" d="M145.47,239.35c0.33,0,0.66-0.01,0.99-0.02l-2.73-79.09l-1-0.07L145.47,239.35z"/>
				<path class="st8" d="M163.14,163.07l-0.97-0.31l-5.29,75.85c0.34-0.04,0.68-0.08,1-0.12L163.14,163.07z"/>
				<path class="st8" d="M166.95,189.13l-9.81-0.52c-1.57-0.08-2.78-1.42-2.69-3l0.05-0.87c0.08-1.57,1.42-2.78,3-2.69l9.81,0.52
					c1.57,0.08,2.78,1.42,2.69,3l-0.05,0.87C169.86,188.01,168.52,189.21,166.95,189.13z"/>
			</g>
			<path class="st12" d="M128.67,159.19l-26.83,7.7l14.9,66.82c0,0,6.96,4.47,22.11,5.46c15.15,0.99,29.31-2.48,29.31-2.48
				l14.66-67.32l-25.59-8.2L128.67,159.19z"/>
		</g>
		<polygon class="st9" points="131.46,140.57 132.03,154.68 142,162.4 151.94,154.61 155.93,141.51 142.75,145.46 		"/>
		<path class="st5" d="M155.93,141.51l-13.17,3.95l-11.29-4.89l0.29,7.19c2.37,3.2,4.79,5.76,6.41,6.46
			c3.95,1.69,6.21,0.94,7.53-0.38c1-1,6.05-4.1,9.81-10.93L155.93,141.51z"/>
		<polygon class="st10" points="137.49,165.98 140.31,170.12 138.43,206.06 143.88,206.25 142,170.3 146.52,164.66 141.55,159.95 		
			"/>
		<g>
			<polygon class="st13" points="130.95,150.73 141.31,159.95 134.91,170.68 126.06,159.2 			"/>
			<g>
				<polygon class="st8" points="126.48,158.47 135.61,169.51 136.15,168.6 127.01,157.55 				"/>
				<polygon class="st8" points="128.5,154.98 127.96,155.92 136.69,167.69 137.24,166.76 				"/>
				<polygon class="st8" points="131.22,150.97 130.95,150.73 130.45,151.6 139.72,161.92 138.32,163.62 129.78,152.76 
					129.25,153.69 138.23,165.11 140.5,161.3 				"/>
				<polygon class="st12" points="130.95,150.73 141.31,159.95 134.91,170.68 126.06,159.2 				"/>
			</g>
		</g>
		<g>
			<polygon class="st13" points="153.11,150.73 141.55,159.95 148.7,170.68 158.58,159.2 			"/>
			<g>
				<polygon class="st8" points="158.11,158.47 147.92,169.51 147.31,168.6 157.52,157.55 				"/>
				<polygon class="st8" points="155.86,154.98 156.46,155.92 146.7,167.69 146.09,166.76 				"/>
				<polygon class="st8" points="152.82,150.97 153.11,150.73 153.68,151.6 143.32,161.92 144.88,163.62 154.42,152.76 
					155.02,153.69 144.98,165.11 142.44,161.3 				"/>
				<polygon class="st12" points="153.11,150.73 141.55,159.95 148.7,170.68 158.58,159.2 				"/>
			</g>
		</g>
		<g>
			<path class="st9" d="M125.61,119.8c0,0-3.18-2.75-4.5,0.45c-1.32,3.2,3.76,11.48,5.27,11.1c1.51-0.38,0.56-11.1,0.56-11.1
				L125.61,119.8z"/>
			<path class="st9" d="M163.38,120.17c0,0,3.51-2.32,4.4,1.02c0.9,3.34-5.2,10.9-6.65,10.34c-1.45-0.57,0.86-11.08,0.86-11.08
				L163.38,120.17z"/>
			<path class="st9" d="M136.92,94.27c0,0-8.85,2.82-10.16,10.73c-1.19,7.17-1.69,20.33-0.38,26.35
				c1.32,6.02,9.97,18.82,13.93,20.51c3.95,1.69,6.21,0.94,7.53-0.38c1.32-1.32,9.6-6.21,12.8-18.44
				c3.2-12.23,2.82-21.27,0.75-30.49C160.11,96.86,146.52,89.94,136.92,94.27z"/>
			<path class="st5" d="M161.39,102.55c-1.28-5.7-14.87-12.61-24.47-8.28c0,0-8.85,2.82-10.16,10.73c-0.65,3.88-1.09,9.5-1.15,14.8
				c0.43-1.51,1.07-3.97,1.71-7.27c1.13-5.83,3.58-10.54,7.72-10.92c4.14-0.38,5.83,1.51,12.61,1.13c6.78-0.38,9.03-0.94,11.86,2.26
				c2.82,3.2,2.45,13.74,3.2,16.75C163.39,114.77,162.77,108.7,161.39,102.55z"/>
			<path class="st9" d="M146.71,125.51l-0.38,4.33c0,0,2.07,1.32,1.51,2.82c-0.56,1.51-2.82,2.26-3.76,1.32"/>
			<path class="st9" d="M138.05,138.69c0,0,4.52,2.45,7.53,2.07s5.83-2.63,5.83-2.63"/>
			<path class="st14" d="M138.24,123.73c0,1.2-0.55,2.16-1.22,2.16s-1.22-0.97-1.22-2.16c0-1.2,0.55-2.16,1.22-2.16
				S138.24,122.53,138.24,123.73z"/>
			<path class="st14" d="M153.86,124.38c0,1.2-0.55,2.16-1.22,2.16s-1.22-0.97-1.22-2.16c0-1.2,0.55-2.16,1.22-2.16
				S153.86,123.19,153.86,124.38z"/>
			<path class="st9" d="M133.16,118.36c0,0,3.01-3.95,8.28-1.51"/>
			<path class="st9" d="M149.15,117.61c0,0,5.08-3.39,9.97,1.69"/>
		</g>
		<g>
			<polygon class="st9" points="101.85,166.89 82.22,207.63 106.57,213.84 109.55,202.41 			"/>
			<g>
				<polygon class="st8" points="102.38,169.37 85.24,208.4 86.22,208.65 102.74,171.03 				"/>
				<path class="st8" d="M103.8,175.93l-0.37-1.73c-4.76,11.81-10.96,26.98-14.47,35.15l0.97,0.25
					C93.85,200.52,100.56,183.97,103.8,175.93z"/>
				<polygon class="st8" points="105.15,182.11 104.77,180.4 92.58,210.27 93.55,210.52 				"/>
				<polygon class="st15" points="108.52,206.33 109.55,202.41 109.49,202.13 104.03,213.19 105.02,213.44 				"/>
				<polygon class="st8" points="108.29,196.6 107.91,194.88 100.8,212.37 101.77,212.61 				"/>
				<polygon class="st8" points="106.61,188.85 106.23,187.12 96.51,211.27 97.48,211.52 				"/>
			</g>
			<polygon class="st12" points="101.85,166.89 82.22,207.63 106.57,213.84 109.55,202.41 			"/>
		</g>
		<g>
			<polygon class="st9" points="182.83,169.37 198.97,215.83 173.88,225.02 172.15,218.56 			"/>
			<g>
				<polygon class="st8" points="177.15,195.53 176.76,197.32 185.5,220.76 186.43,220.42 				"/>
				<polygon class="st8" points="175.74,202.01 175.35,203.8 182.18,221.98 183.12,221.63 				"/>
				<polygon class="st8" points="174.59,207.32 174.19,209.16 179.14,223.09 180.08,222.75 				"/>
				<polygon class="st8" points="177.4,223.73 173.33,213.12 172.94,214.89 176.47,224.07 				"/>
				<polygon class="st8" points="180.99,177.84 180.58,179.7 193.84,217.7 194.78,217.36 				"/>
				<polygon class="st8" points="182.34,171.63 181.92,173.54 196.28,216.81 197.22,216.47 				"/>
				<polygon class="st8" points="179.91,182.79 179.51,184.65 191.3,218.64 192.23,218.3 				"/>
				<polygon class="st8" points="178.32,190.11 177.94,191.86 188.78,219.56 189.72,219.22 				"/>
			</g>
			<polygon class="st12" points="182.83,169.37 198.97,215.83 173.88,225.02 172.15,218.56 			"/>
		</g>
		<path class="st9" d="M110.54,189.74l-3.73,3.23l-4.72,10.18l2.73,7.7c0,0-25.09,14.41-26.58,15.9
			c-1.49,1.49-1.99,11.68,1.24,16.64c3.23,4.97,16.89-9.94,16.89-9.94l22.36-30.06c0,0,5.46-6.46,3.97-8.2
			c-1.49-1.74-2.73-2.98-3.48-2.98s-2.48,0.25-2.48,0.25L110.54,189.74z"/>
		<path class="st9" d="M111.05,182.66l5.7,11.8l2.24,0.75l-6.33-13.29c-0.23-0.49-0.84-0.66-1.29-0.36l0,0
			C111,181.79,110.87,182.27,111.05,182.66z"/>
		<g>
			<polygon class="st9" points="103.34,198.44 107.81,211.11 121.47,213.59 125.69,211.11 120.97,196.7 			"/>
			<path class="st9" d="M117.5,200.92l-17.89-1.49c0,0-2.48-1.74,0.75-3.73c3.23-1.99,5.96-1.24,5.96-1.24l12.67,0.75L117.5,200.92z
				"/>
			<path class="st9" d="M125.69,208.37l-3.97-12.67c0,0-3.97-1.24-5.22,0.99c-1.24,2.24,0.25,3.73,0.99,4.22
				c0.75,0.5,3.23-1.24,3.23-1.24l2.73,10.18L125.69,208.37z"/>
		</g>
		<path class="st9" d="M192.76,232.47c0,0,0.75,2.48,0.75,7.45c0,4.97-1.24,8.69-4.47,8.69c-3.23,0-16.89-3.97-23.1-7.2
			c-6.21-3.23-31.3-15.65-31.3-15.65s-8.94-0.99-11.43-1.49c-2.48-0.5-6.71-2.24-9.19-3.97c-2.48-1.74-3.73-6.71-3.73-6.71
			s-4.47-2.73-4.47-3.97c0-1.24,12.17,1.24,14.41,1.24c2.24,0,5.47-2.48,5.47-2.48l-1.24-4.72c0,0,4.47,1.74,5.71,3.23
			c1.24,1.49,5.71,9.94,6.46,10.93c0.75,0.99,20.62,9.19,30.8,10.18c10.18,0.99,20.12,2.48,20.12,2.48"/>
	</g>
</g>
<g id="Floor">
	<g>
		<line class="st16" x1="24.61" y1="474.5" x2="16.54" y2="474.5"/>
		<line class="st16" x1="489.68" y1="474.5" x2="33.83" y2="474.5"/>
	</g>
</g>
</svg>
