<?xml version="1.0" encoding="utf-8"?>
<!-- Generator: Adobe Illustrator 27.7.0, SVG Export Plug-In . SVG Version: 6.00 Build 0)  -->
<svg version="1.1" id="Capa_1" xmlns="http://www.w3.org/2000/svg" xmlns:xlink="http://www.w3.org/1999/xlink" x="0px" y="0px"
	 viewBox="0 0 500 500" style="enable-background:new 0 0 500 500;" xml:space="preserve">
<style type="text/css">
	
		.st0{opacity:0.8;fill:#F7D3AF;stroke:#F7D3AF;stroke-linecap:round;stroke-linejoin:round;stroke-miterlimit:10;enable-background:new    ;}
	.st1{fill:none;stroke:#263238;stroke-linecap:round;stroke-linejoin:round;stroke-miterlimit:10;}
	.st2{fill:none;stroke:#291707;stroke-linecap:round;stroke-linejoin:round;}
	.st3{fill:none;stroke:#291707;stroke-linecap:round;stroke-linejoin:round;stroke-dasharray:2.9815,2.9815;}
	.st4{fill:none;stroke:#291707;stroke-linecap:round;stroke-linejoin:round;stroke-dasharray:3.1322,3.1322;}
	.st5{fill:none;stroke:#291707;stroke-linecap:round;stroke-linejoin:round;stroke-dasharray:2.9638,2.9638;}
	.st6{fill:none;stroke:#291707;stroke-linecap:round;stroke-linejoin:round;stroke-dasharray:3.0166,3.0166;}
	.st7{fill:none;stroke:#291707;stroke-linecap:round;stroke-linejoin:round;stroke-dasharray:3.0126,3.0126;}
	.st8{fill:none;stroke:#291707;stroke-linecap:round;stroke-linejoin:round;stroke-dasharray:3.0153,3.0153;}
	.st9{fill:#FFFFFF;stroke:#291707;stroke-linecap:round;stroke-linejoin:round;stroke-miterlimit:10;}
	.st10{fill:#291707;stroke:#291707;stroke-linecap:round;stroke-linejoin:round;stroke-miterlimit:10;}
	.st11{fill:#EF8318;stroke:#291707;stroke-linecap:round;stroke-linejoin:round;stroke-miterlimit:10;}
	.st12{fill:none;stroke:#291707;stroke-linecap:round;stroke-linejoin:round;stroke-miterlimit:10;}
	.st13{fill:#291707;}
	.st14{fill:#291707;stroke:#291707;stroke-width:1;stroke-linecap:round;stroke-linejoin:round;stroke-miterlimit:10.0004;}
	.st15{fill:none;stroke:#291707;stroke-width:2;stroke-linecap:round;stroke-linejoin:round;stroke-miterlimit:10;}
	.st16{fill:#FFFFFF;stroke:#263238;stroke-linecap:round;stroke-linejoin:round;stroke-miterlimit:10;}
	.st17{fill:none;stroke:#C6B09B;stroke-width:3;stroke-linecap:round;stroke-linejoin:round;stroke-miterlimit:10;}
	.st18{fill:#C6B09B;stroke:#291707;stroke-linecap:round;stroke-linejoin:round;stroke-miterlimit:10;}
</style>
<g>
	<path class="st0" d="M435.09,401.4c0,0,68.07-97.92,52.68-205.64C472.38,88.04,375.91,100.9,311.16,86.45
		s-98.09-45.36-174.59-19.68S30.49,132.62,21.67,192.48c-8.82,59.87-4.41,116.36,5.53,169.4c9.95,53.04,28.97,91.3,84.9,93.19
		s75.22-15.17,106.79-0.84C250.44,468.57,374.94,481.37,435.09,401.4z"/>
</g>
<g id="Background_Simple">
</g>
<g id="Table">
	<line class="st1" x1="23.55" y1="402.81" x2="476.57" y2="402.81"/>
</g>
<g id="Dotted_Lines">
	<g>
		<g>
			<g>
				<g>
					<line class="st2" x1="376.17" y1="283.75" x2="377.41" y2="282.92"/>
					<line class="st3" x1="379.89" y1="281.26" x2="418.27" y2="255.51"/>
					<line class="st2" x1="419.51" y1="254.68" x2="420.75" y2="253.85"/>
				</g>
			</g>
			<g>
				<g>
					<line class="st2" x1="109.41" y1="266.1" x2="110.68" y2="266.9"/>
					<line class="st4" x1="113.33" y1="268.57" x2="133.18" y2="281.13"/>
					<line class="st2" x1="134.51" y1="281.97" x2="135.77" y2="282.77"/>
				</g>
			</g>
			<g>
				<g>
					<line class="st2" x1="298.41" y1="232.66" x2="298.84" y2="231.22"/>
					<line class="st5" x1="299.68" y1="228.38" x2="324.51" y2="144.55"/>
					<line class="st2" x1="324.93" y1="143.13" x2="325.35" y2="141.69"/>
				</g>
			</g>
			<g>
				<g>
					<line class="st2" x1="204.81" y1="141.69" x2="205.18" y2="143.14"/>
					<line class="st6" x1="205.92" y1="146.07" x2="226.16" y2="226.51"/>
					<line class="st2" x1="226.53" y1="227.98" x2="226.9" y2="229.43"/>
				</g>
			</g>
		</g>
		<g>
			<g>
				<path class="st2" d="M410.34,402.81h1.5c0.05-0.5,0.11-0.99,0.16-1.49"/>
				<path class="st7" d="M412.27,398.32c0.34-4.22,0.52-8.49,0.52-12.8c0-87.11-70.62-157.74-157.74-157.74
					S97.32,298.41,97.32,385.52c0,4.82,0.22,9.59,0.65,14.3"/>
				<path class="st2" d="M98.11,401.32c0.05,0.5,0.1,1,0.16,1.49h1.5"/>
				<line class="st8" x1="102.78" y1="402.81" x2="408.83" y2="402.81"/>
			</g>
		</g>
	</g>
</g>
<g id="Email">
	<g>
		<circle class="st9" cx="429.74" cy="236.85" r="43.66"/>
		<g>
			<polygon class="st10" points="397.68,222.54 429.33,199.13 460.77,222.54 			"/>
			<rect x="397.68" y="222.54" class="st10" width="63.09" height="40.71"/>
			<rect x="405.71" y="204.91" class="st9" width="47.03" height="41.64"/>
			<polygon class="st11" points="397.68,222.54 429.22,242.89 460.77,222.54 460.77,263.24 397.68,263.24 			"/>
			<line class="st12" x1="414.33" y1="215.49" x2="443.72" y2="215.49"/>
			<line class="st12" x1="414.33" y1="221.37" x2="443.72" y2="221.37"/>
			<line class="st12" x1="414.33" y1="227.24" x2="443.72" y2="227.24"/>
			<polyline class="st12" points="397.68,263.24 429.22,242.89 460.77,263.24 			"/>
		</g>
	</g>
</g>
<g id="Calendar">
	<g>
		<circle class="st9" cx="335.69" cy="98.78" r="43.66"/>
		<g>
			<rect x="300.62" y="65.65" class="st11" width="65.48" height="49.71"/>
			<g>
				<rect x="306.76" y="60.6" class="st10" width="3.94" height="8.21"/>
				<rect x="331.39" y="60.6" class="st10" width="3.94" height="8.21"/>
				<rect x="356.02" y="60.6" class="st10" width="3.94" height="8.21"/>
			</g>
			<g>
				<rect x="305.51" y="75.38" class="st9" width="7.88" height="7.88"/>
				<rect x="317.66" y="75.38" class="st9" width="7.88" height="7.88"/>
				<rect x="329.81" y="75.38" class="st9" width="7.88" height="7.88"/>
				<rect x="341.96" y="75.38" class="st10" width="7.88" height="7.88"/>
				<rect x="354.11" y="75.38" class="st9" width="7.88" height="7.88"/>
			</g>
			<g>
				<rect x="305.51" y="86.87" class="st9" width="7.88" height="7.88"/>
				<rect x="317.66" y="86.87" class="st10" width="7.88" height="7.88"/>
				<rect x="329.81" y="86.87" class="st9" width="7.88" height="7.88"/>
				<rect x="341.96" y="86.87" class="st9" width="7.88" height="7.88"/>
				<rect x="354.11" y="86.87" class="st9" width="7.88" height="7.88"/>
			</g>
			<g>
				<rect x="305.51" y="98.37" class="st9" width="7.88" height="7.88"/>
				<rect x="317.66" y="98.37" class="st9" width="7.88" height="7.88"/>
				<rect x="329.81" y="98.37" class="st9" width="7.88" height="7.88"/>
				<rect x="341.96" y="98.37" class="st10" width="7.88" height="7.88"/>
				<rect x="354.11" y="98.37" class="st9" width="7.88" height="7.88"/>
			</g>
		</g>
		<g>
			<circle class="st11" cx="362.97" cy="127.45" r="22.66"/>
			<circle class="st9" cx="362.97" cy="127.45" r="19.87"/>
			<polyline class="st9" points="366.91,134.67 362.97,127.45 347.86,127.45 			"/>
		</g>
	</g>
</g>
<g id="Chat">
	<g>
		<circle class="st9" cx="195.33" cy="98.78" r="43.66"/>
		<g>
			<path class="st11" d="M218.29,63.24h-62.21c-3.14,0-5.68,2.54-5.68,5.68v15.06v3.12v16.13l9.99-10.45h57.89
				c3.14,0,5.68-2.54,5.68-5.68V68.92C223.97,65.78,221.42,63.24,218.29,63.24z"/>
			<g>
				<g>
					<circle class="st9" cx="167.13" cy="77.73" r="6.7"/>
					<circle class="st10" cx="167.13" cy="76.12" r="3.33"/>
					<path class="st10" d="M167.13,84.42c1.87,0,3.56-0.77,4.78-2.01c-0.76-1.23-2.61-2.09-4.78-2.09s-4.02,0.87-4.78,2.09
						C163.57,83.65,165.26,84.42,167.13,84.42z"/>
				</g>
				<g>
					<line class="st12" x1="178.99" y1="73.22" x2="211.14" y2="73.22"/>
					<line class="st12" x1="178.99" y1="78.29" x2="211.14" y2="78.29"/>
					<line class="st12" x1="178.99" y1="83.36" x2="211.14" y2="83.36"/>
				</g>
			</g>
		</g>
		<g>
			<path class="st11" d="M168.62,97.65h62.21c3.14,0,5.68,2.54,5.68,5.68v15.06v3.12v16.13l-9.99-10.45h-57.89
				c-3.14,0-5.68-2.54-5.68-5.68v-18.18C162.94,100.19,165.49,97.65,168.62,97.65z"/>
			<g>
				<path class="st9" d="M185.98,111.6c0,3.7-3,6.7-6.7,6.7s-6.7-3-6.7-6.7s3-6.7,6.7-6.7C182.98,104.91,185.98,107.9,185.98,111.6z
					"/>
				<circle class="st10" cx="179.28" cy="109.99" r="3.33"/>
				<path class="st10" d="M179.28,118.3c1.87,0,3.56-0.77,4.78-2.01c-0.76-1.23-2.61-2.09-4.78-2.09s-4.02,0.87-4.78,2.09
					C175.72,117.53,177.41,118.3,179.28,118.3z"/>
			</g>
			<g>
				<line class="st12" x1="191.14" y1="107.1" x2="223.29" y2="107.1"/>
				<line class="st12" x1="191.14" y1="112.17" x2="223.29" y2="112.17"/>
				<line class="st12" x1="191.14" y1="117.23" x2="223.29" y2="117.23"/>
			</g>
		</g>
	</g>
</g>
<g id="Character_2">
	<g>
		<circle class="st9" cx="77.1" cy="236.85" r="43.66"/>
		<g>
			<path class="st11" d="M77.1,280.51c9.62,0,18.5-3.13,25.71-8.4l-18.49-13.16l-25.43-6.84l-15.16,12.86
				C51.74,274.47,63.71,280.51,77.1,280.51z"/>
			<path class="st9" d="M98.53,203.89c0,0,6.84,11.93,6.31,13.15c-0.53,1.23-1.05,3.68-1.05,3.68s6.66,9.29,6.14,10.35
				s-4.38,4.74-4.38,4.74s1.23,16.66,0.53,17.54c-0.7,0.88-3.33,1.93-4.74,2.1c-1.4,0.18-14.56-1.23-14.56-1.23l-3.16,19.47
				l-24.73-21.57l2.1-6.84v-4.91l-6.49-19.99c0,0,1.58-12.1,15.96-16.84C84.85,198.8,98.53,203.89,98.53,203.89z"/>
			<path class="st10" d="M73.97,228.09c0,0-2.1-6.66-7.89-5.44c-5.79,1.23-5.96,5.79-5.09,8.59c0.88,2.81,3.33,5.96,3.33,5.96
				L61,240.37c0,0-9.65-23.15-11.75-27.53s-2.63-7.72,2.98-11.75s38.76-6.66,41.91-8.07c3.16-1.4,5.26,1.23,5.44,5.61
				s-1.05,5.26-1.05,5.26s-8.77-2.28-18.06,0.18s-8.59,4.38-6.66,5.96c1.93,1.58,5.61,2.98,4.56,4.56s-4.91,4.38-4.74,6.14
				c0.18,1.75,3.51,5.96,2.46,6.84C75.03,228.44,73.97,228.09,73.97,228.09z"/>
			<ellipse class="st13" cx="96.6" cy="222.39" rx="1.58" ry="3.07"/>
			<path class="st12" d="M91.69,217.04c0,0,4.38-5.61,10.35-1.58"/>
			<path class="st12" d="M100.45,240.02l-9.65-3.33c0,0,0.88,7.54,3.16,8.07C96.25,245.28,100.45,240.02,100.45,240.02z"/>
			
				<rect x="65.02" y="229.66" transform="matrix(0.9587 -0.2845 0.2845 0.9587 -67.4301 30.841)" class="st14" width="14.86" height="35.77"/>
			<g>
				<path class="st9" d="M77.1,280.51c2.72,0,5.38-0.25,7.97-0.73c0.44-1.53,0.84-3.24,0.84-4.52c0-2.98-2.46-9.47-2.1-10.17
					s4.91-16.84,4.03-18.94c-0.88-2.1-4.56,3.86-4.56,3.86s1.58-3.16,1.75-5.96c0.18-2.81-1.93-3.68-2.98-1.75
					s-7.54,14.91-7.19,12.8c0.35-2.1,5.09-14.91,4.91-16.84c-0.18-1.93-2.46-1.4-3.33,0.88s-8.24,18.24-8.24,18.24
					s-0.35-1.58-0.18-2.1c0.18-0.53,1.58-6.66,2.28-8.59s1.58-4.21,1.23-6.14s-0.53-1.4-1.75-0.88c-1.23,0.53-8.07,15.26-8.59,17.54
					c-0.44,1.89,6.83,17.5,9.34,22.8C72.66,280.33,74.86,280.51,77.1,280.51z"/>
				<line class="st12" x1="83.27" y1="250.01" x2="78.36" y2="262.82"/>
				<line class="st12" x1="74.85" y1="255.1" x2="72.57" y2="260.89"/>
			</g>
		</g>
	</g>
</g>
<g id="Character_1">
	<g>
		<path class="st15" d="M305.03,182.24c0,0,2.69-19.46-7.66-30.37s-54.22-10.9-67.36,0.84c-13.14,11.74-9.08,29.51-9.08,29.51"/>
		<path class="st10" d="M239.31,148.01c0,0-15.37,9.28-16.43,17.49c-1.06,8.22,2.65,18.55,2.92,19.35c0.26,0.8,1.33,6.63,2.92,12.99
			s2.65,8.48,2.65,8.48s-12.46,7.95-10.87,19.35c1.59,11.4,13.25,12.72,12.99,16.7s-5.04,8.22-3.18,13.78
			c1.86,5.57,10.34,10.34,16.17,11.66c5.83,1.33,45.06,1.33,49.56-1.06c4.51-2.39,9.54-8.48,9.28-13.52
			c-0.27-5.04-2.39-8.48-1.59-10.34c0.8-1.86,10.87-5.04,10.87-18.29s-13.52-18.02-15.64-20.67c-2.12-2.65,1.59-7.16,2.12-21.73
			c0.53-14.58-0.53-27.83-15.37-34.98c-14.84-7.16-30.21-7.16-38.16-4.77C239.57,144.83,239.84,146.95,239.31,148.01z"/>
		<path class="st9" d="M300.17,267.58c-14.28-7.73-19.5-21.01-13.14-36.61l-19.84,0.28l-19.84-0.28c1.55,0.02,1.87,13.46,1.8,14.55
			c-0.67,10.7-5.97,17.21-14.94,22.06c-6.71,3.63-39.69,12.3-39.69,12.3l23.56,122.42h49.11h50.48l22.19-122.42
			C339.85,279.88,306.88,271.22,300.17,267.58z"/>
		<rect x="224.03" y="284.87" class="st9" width="83.11" height="117.43"/>
		<g>
			<path class="st9" d="M229.5,187.23c0,0,1.33,26.5,6.89,34.72c5.57,8.22,19.61,22.53,24.12,23.32c4.51,0.8,10.64,2.09,14.31-0.53
				c3.71-2.65,18.02-17.23,20.14-29.68c2.12-12.46,1.94-29.45,0.27-29.15c-16.17,2.92-31.66-3.35-35.51-13.25
				c-3.92-10.05-13.78-11.13-13.78-11.13S241.43,186.17,229.5,187.23z"/>
			<path class="st12" d="M260.73,215.67c0,0,3.45,2.65,6.89,2.12c3.45-0.53,3.98-2.39,3.98-2.39"/>
			<path class="st12" d="M256.66,224.93c0,0,9.28,6.1,19.88-0.53"/>
			<path class="st15" d="M237.98,192.66c0,0,6.1-7.42,18.29-2.39"/>
			<path class="st15" d="M272.09,191.32c0,0,7.95-5.57,18.02,1.33"/>
		</g>
		<g>
			<path class="st11" d="M339.85,279.88c0,0,46.54,104.93,46.19,109.84s-30.51,11.22-33.31,8.77c-2.81-2.45-25.95-50.15-25.95-50.15
				L339.85,279.88z"/>
			<line class="st12" x1="343.2" y1="298.02" x2="329.85" y2="336.78"/>
			<line class="st12" x1="342.69" y1="313.93" x2="328.31" y2="341.92"/>
		</g>
		<g>
			<path class="st11" d="M194.51,279.88c0,0-23.08,109.14-21.68,110.89s4.21,7.71,13.33,9.12c9.12,1.4,16.83-1.05,16.83-1.05
				l8.77-29.46L194.51,279.88z"/>
			<line class="st12" x1="193.52" y1="303.92" x2="204.56" y2="332.16"/>
			<line class="st1" x1="189.92" y1="313.42" x2="198.65" y2="325.49"/>
		</g>
		<path class="st1" d="M187.27,369.37c0,0,10.88,0.67,16.71,5.52"/>
		<g>
			<path class="st11" d="M251.85,402.3l-10.16-140.01c-2.1,1.99-4.6,3.73-7.49,5.3c-6.71,3.63-39.69,12.3-39.69,12.3l23.56,122.42
				L251.85,402.3L251.85,402.3z"/>
			<path class="st12" d="M223.85,295.91c1.46,13.28,3.45,30.73,5.44,46.12c3.86,29.81,18.59,51.55,18.59,51.55"/>
			<path class="st12" d="M221.58,274.7c0,0,0.51,4.97,1.35,12.73"/>
		</g>
		<g>
			<path class="st11" d="M295.01,264.25L278.48,402.3h39.19l22.19-122.42c0,0-32.97-8.66-39.69-12.3
				C298.29,266.57,296.57,265.45,295.01,264.25z"/>
			<path class="st12" d="M311.54,289.44c-1.48,13.66-3.82,34.54-6.15,52.59c-3.86,29.81-18.59,51.55-18.59,51.55"/>
			<path class="st12" d="M313.11,274.7c0,0-0.35,3.38-0.94,8.91"/>
		</g>
		<path class="st11" d="M379.13,384.9c0,0-0.38-3.94-6.2-9.95s-18.97-6.95-22.54-4.51s-51.07,17.46-51.07,17.46l-1.62,14.01
			c0,0,79.54,2.89,82.73,1.02c3.19-1.88,8.45-7.7,7.14-11.64s-4.32-6.76-4.32-6.76"/>
		<g>
			<path class="st9" d="M303.63,390.34c-1.31-1.69-12.58-12.4-12.58-12.4l-2.44,3.19l-5.44-6.36l-1.59,1.59l-9.01,0.72l-0.29-0.07
				l0.01,0.1l-3.22,0.26l4.52,9.04l-4.13-0.19c0,0-6.76-0.38-11.08-2.44c-4.32-2.07-8.08-4.51-9.39-4.7s-2.44,3.57,0.56,7.89
				s13.55,4.55,13.55,4.55s2.1,3.5,9.62,6.32c7.51,2.82,13.69-0.78,13.69-0.78s2.96,2.43,6.2,3.5c6.36,2.12,10.04,1.76,12.67-1.62
				C307.89,395.56,304.95,392.03,303.63,390.34z"/>
			<path class="st9" d="M273.51,374.27c0,0-5.68-1.37-7.09-0.2c-1.42,1.17-5.14,12.68-4.79,13.66s3.01,1.56,4.26,0
				c0.59-0.74,2.37-4.39,3.78-6.48c1.56-2.33,2.72-3.09,2.72-3.09L273.51,374.27z"/>
			<path class="st9" d="M276.88,372.5c0,0-3.19-1.31-4.32,1.13s-3.19,18.03-2.07,18.97c1.13,0.94,2.44,1.88,3.19-0.75
				s3.57-12.96,4.51-15.78S278.75,372.5,276.88,372.5z"/>
			<path class="st9" d="M279.05,373.99c0,0-2.89,19.39-1.45,20.25c1.45,0.86,2.8-0.84,3.6-2.38c0.8-1.54,4.6-13.58,4.44-16.15
				C285.48,373.13,281.46,371.93,279.05,373.99z"/>
			<path class="st9" d="M289.92,376.26c0,0-2.63-0.38-3.76,1.31s-4.88,16.15-3.38,17.09s7.32-10.89,8.26-13.52
				S291.8,377.2,289.92,376.26z"/>
		</g>
		<path class="st16" d="M185.02,367.43c0,0,2.68,1.34,4.19,4.36c1.51,3.02,7.38,10.23,7.38,10.23s5.87,0.84,6.54,0.5
			s-1.01,11.07-1.01,11.07s-4.69,3.35-9.05,3.69s-14.25-7.04-14.25-7.04s-5.03,1.51-7.21,0.67c-2.18-0.84-8.38-7.71-8.38-7.71
			l17.1-10.23L185.02,367.43z"/>
		<path class="st16" d="M202.29,379.84c0,0-3.69,16.6-2.52,17.61s4.19,1.51,5.53-1.68s4.36-10.73,3.86-13.08
			C208.66,380.35,204.97,378.5,202.29,379.84z"/>
		<path class="st16" d="M166.74,379.17c0,0-5.7,0.17-6.87,2.68c-1.17,2.52-5.87,8.72-4.53,9.56s4.36-3.35,5.53-5.03
			s5.37-3.02,5.37-3.02L166.74,379.17z"/>
		<path class="st16" d="M172.61,374.64c0,0-5.87,1.17-7.04,3.86c-1.17,2.68-3.52,12.41-3.19,15.09c0.34,2.68,1.51,2.85,2.68,0.84
			s4.19-11.23,4.36-11.74c0.17-0.5,1.84-4.36,1.84-4.36L172.61,374.64z"/>
		<path class="st16" d="M177.97,370.62c0,0-5.87,0.5-6.71,3.19c-0.84,2.68-0.84,19.45,0.17,20.62c1.01,1.17,3.19,0.34,3.69-1.34
			s1.17-12.24,1.34-12.91s2.01-4.02,2.01-4.02L177.97,370.62z"/>
		<path class="st16" d="M186.02,371.63c0.17,0.67-2.35,9.22-2.35,9.22s0.67,6.54,0.67,8.89s-1.51,3.35-3.02,3.02
			c-1.51-0.34-2.68-7.88-3.19-9.56c-0.5-1.68-0.34-10.56-0.17-12.58c0.17-2.01,7.04-3.19,7.04-3.19s1.51,0.17,2.18,1.68"/>
		<path class="st1" d="M154.67,203.11"/>
		<path class="st17" d="M302.05,210.08c0,0-0.49,13.38-9,29.13c-2.65,4.9-5.97,8.41-9.29,10.81"/>
		<g>
			<path class="st11" d="M276.43,256.97c-1.21,0-2.35-0.74-2.8-1.93c-0.59-1.55,0.19-3.28,1.73-3.87c2.37-0.9,4.6-2.11,6.65-3.58
				c1.34-0.97,3.22-0.67,4.19,0.68c0.97,1.34,0.67,3.22-0.68,4.19c-2.47,1.78-5.17,3.24-8.02,4.33
				C277.14,256.91,276.78,256.97,276.43,256.97z"/>
		</g>
		<g>
			<path class="st11" d="M312.57,198.42c-0.33,8.77-4.24,15.74-8.73,15.57c-10.46-0.39-7.87-7.41-7.54-16.18
				c0.33-8.77-0.76-15.93,8.73-15.57C309.52,182.4,312.9,189.65,312.57,198.42z"/>
			<path class="st18" d="M302.22,182.4c-6.46,1.11-5.64,7.63-5.93,15.41c-0.29,7.63-2.28,13.93,4.09,15.7L302.22,182.4z"/>
		</g>
		<g>
			<path class="st11" d="M214.37,198.83c0.85,8.73,5.17,15.46,9.64,15.03c10.42-1.01,7.41-7.87,6.57-16.6
				c-0.85-8.73-0.19-15.95-9.64-15.03C216.46,182.66,213.52,190.09,214.37,198.83z"/>
			<path class="st18" d="M227.29,213.22c6.43-2.1,4.03-8.31,3.29-15.97c-0.77-7.94-0.3-14.61-7.3-15.08L227.29,213.22z"/>
		</g>
		<path class="st13" d="M252.13,198.63c0,2.09-1.41,3.79-3.15,3.79c-1.74,0-3.15-1.7-3.15-3.79s1.41-3.79,3.15-3.79
			C250.72,194.84,252.13,196.54,252.13,198.63z"/>
		<path class="st13" d="M281.2,198.63c0,2.09-1.41,3.79-3.15,3.79s-3.15-1.7-3.15-3.79s1.41-3.79,3.15-3.79
			C279.79,194.84,281.2,196.54,281.2,198.63z"/>
		<path class="st12" d="M288.28,389.24c0,0,0.27,6.47,5.93,9.7"/>
	</g>
</g>
<g id="Device">
	<g>
		<polygon class="st18" points="231.54,398.5 92.16,398.5 79.29,310.06 218.67,310.06 		"/>
		<path class="st10" d="M92.16,398.5h139.38l-6.8-46.74c-22.41-1.9-60.46-1.78-79.5,17.55c-15.86,16.1-37.74,22.25-53.75,24.55
			L92.16,398.5z"/>
		<rect x="92.16" y="398.5" class="st18" width="192.95" height="4.31"/>
	</g>
</g>
<g id="Stars">
	<g>
		<polygon class="st11" points="168.58,426.89 172.43,434.68 181.03,435.93 174.8,441.99 176.27,450.55 168.58,446.51 160.9,450.55 
			162.36,441.99 156.14,435.93 164.74,434.68 		"/>
		<polygon class="st11" points="206.62,426.89 210.47,434.68 219.07,435.93 212.85,441.99 214.31,450.55 206.62,446.51 
			198.94,450.55 200.4,441.99 194.18,435.93 202.78,434.68 		"/>
		<polygon class="st11" points="244.67,426.89 248.51,434.68 257.11,435.93 250.89,441.99 252.35,450.55 244.67,446.51 
			236.98,450.55 238.44,441.99 232.22,435.93 240.82,434.68 		"/>
		<polygon class="st11" points="282.71,426.89 286.55,434.68 295.15,435.93 288.93,441.99 290.39,450.55 282.71,446.51 
			275.02,450.55 276.49,441.99 270.26,435.93 278.86,434.68 		"/>
		<polygon class="st11" points="320.75,426.89 324.59,434.68 333.19,435.93 326.97,441.99 328.44,450.55 320.75,446.51 
			313.06,450.55 314.53,441.99 308.3,435.93 316.9,434.68 		"/>
	</g>
</g>
</svg>
