<?xml version="1.0" encoding="UTF-8"?>
<svg xmlns="http://www.w3.org/2000/svg" xmlns:xlink="http://www.w3.org/1999/xlink" width="60px" height="60px" viewBox="0 0 60 60" version="1.1">
<g id="surface1">
<path style=" stroke:none;fill-rule:nonzero;fill:rgb(0%,0%,0%);fill-opacity:1;" d="M 41.425781 1.078125 C 41.402344 1.160156 41.25 1.746094 41.085938 2.378906 C 40.933594 3.011719 40.78125 3.550781 40.757812 3.5625 C 40.746094 3.574219 40.535156 3.667969 40.300781 3.773438 L 39.878906 3.960938 L 38.742188 3.246094 L 37.59375 2.542969 L 32.554688 7.582031 L 33.257812 8.730469 L 33.960938 9.890625 L 33.773438 10.300781 C 33.667969 10.535156 33.574219 10.746094 33.550781 10.757812 C 33.539062 10.78125 32.964844 10.945312 32.261719 11.121094 L 30.996094 11.4375 L 30.960938 14.625 L 30.9375 17.8125 L 17.71875 17.835938 L 4.5 17.871094 L 3.609375 18.304688 C 2.542969 18.832031 1.886719 19.511719 1.371094 20.601562 L 0.996094 21.386719 L 0.996094 46.125 L 1.429688 47.015625 C 1.957031 48.082031 2.636719 48.738281 3.726562 49.253906 L 4.511719 49.628906 L 8.824219 49.664062 L 13.125 49.699219 L 13.125 53.425781 L 10.910156 53.460938 C 8.484375 53.496094 8.378906 53.53125 7.804688 54.304688 C 7.582031 54.597656 7.558594 54.796875 7.558594 56.25 C 7.558594 58.019531 7.617188 58.207031 8.367188 58.757812 L 8.683594 59.003906 L 33.878906 59.039062 L 59.0625 59.0625 L 59.0625 56.707031 C 59.0625 52.324219 58.429688 49.910156 56.507812 46.992188 C 54.855469 44.496094 51.949219 42.199219 49.21875 41.238281 C 48.796875 41.097656 48.445312 40.957031 48.421875 40.945312 C 48.398438 40.933594 48.796875 40.5 49.300781 39.996094 C 52.289062 37.007812 52.3125 32.472656 49.371094 29.4375 L 48.632812 28.6875 L 48.914062 27.574219 C 49.066406 26.964844 49.21875 26.449219 49.242188 26.4375 C 49.253906 26.425781 49.464844 26.332031 49.699219 26.226562 L 50.109375 26.039062 L 51.269531 26.742188 L 52.417969 27.445312 L 54.925781 24.925781 L 57.445312 22.417969 L 56.742188 21.269531 L 56.039062 20.109375 L 56.226562 19.699219 C 56.332031 19.464844 56.425781 19.253906 56.449219 19.242188 C 56.460938 19.21875 57.035156 19.054688 57.738281 18.878906 L 59.003906 18.5625 L 59.003906 11.4375 L 57.738281 11.121094 C 57.035156 10.945312 56.460938 10.78125 56.449219 10.757812 C 56.425781 10.746094 56.332031 10.535156 56.226562 10.300781 L 56.039062 9.890625 L 56.742188 8.730469 L 57.445312 7.582031 L 54.925781 5.074219 L 52.417969 2.554688 L 51.269531 3.257812 L 50.109375 3.960938 L 49.699219 3.773438 C 49.464844 3.667969 49.253906 3.574219 49.242188 3.550781 C 49.21875 3.539062 49.054688 2.964844 48.878906 2.261719 L 48.5625 0.996094 L 45.023438 0.960938 C 42.246094 0.9375 41.472656 0.960938 41.425781 1.078125 Z M 47.355469 3.914062 L 47.613281 5.015625 L 48.09375 5.15625 C 48.363281 5.238281 48.949219 5.472656 49.394531 5.695312 L 50.214844 6.082031 L 51.199219 5.496094 L 52.183594 4.898438 L 55.113281 7.828125 L 54.527344 8.800781 L 53.941406 9.761719 L 54.328125 10.617188 C 54.539062 11.074219 54.773438 11.671875 54.84375 11.917969 L 54.984375 12.386719 L 56.085938 12.644531 L 57.1875 12.914062 L 57.1875 17.085938 L 56.085938 17.355469 L 54.984375 17.613281 L 54.84375 18.09375 C 54.761719 18.363281 54.527344 18.9375 54.304688 19.394531 L 53.917969 20.214844 L 54.515625 21.199219 L 55.113281 22.171875 L 52.183594 25.101562 L 51.210938 24.515625 L 50.226562 23.941406 L 49.382812 24.328125 C 48.914062 24.539062 48.328125 24.773438 48.082031 24.84375 L 47.625 24.984375 L 47.273438 26.34375 C 47.015625 27.398438 46.886719 27.703125 46.757812 27.667969 C 46.664062 27.644531 46.324219 27.539062 45.996094 27.445312 C 45.351562 27.257812 43.324219 27.1875 42.632812 27.339844 L 42.1875 27.433594 L 42.1875 22.945312 L 42.457031 23.015625 C 44.847656 23.71875 47.203125 23.460938 49.21875 22.300781 C 50.191406 21.726562 51.726562 20.191406 52.300781 19.21875 C 52.546875 18.796875 52.875 18.035156 53.050781 17.519531 C 53.320312 16.6875 53.355469 16.394531 53.355469 15 C 53.355469 13.605469 53.320312 13.3125 53.050781 12.480469 C 52.605469 11.132812 51.984375 10.148438 50.917969 9.082031 C 49.851562 8.015625 48.867188 7.394531 47.519531 6.949219 C 46.6875 6.679688 46.394531 6.644531 45 6.644531 C 43.617188 6.632812 43.300781 6.679688 42.515625 6.9375 C 41.121094 7.394531 40.125 8.015625 39.070312 9.070312 C 36.785156 11.367188 36.046875 14.34375 36.984375 17.542969 L 37.054688 17.8125 L 32.8125 17.8125 L 32.8125 12.914062 L 33.914062 12.644531 L 35.015625 12.386719 L 35.15625 11.90625 C 35.238281 11.636719 35.472656 11.050781 35.695312 10.605469 L 36.082031 9.785156 L 35.484375 8.800781 L 34.886719 7.828125 L 36.363281 6.363281 L 37.828125 4.886719 L 38.800781 5.472656 L 39.761719 6.058594 L 40.617188 5.671875 C 41.085938 5.460938 41.671875 5.226562 41.917969 5.167969 L 42.375 5.039062 L 42.914062 2.8125 L 47.085938 2.8125 Z M 46.242188 8.566406 C 48.492188 8.964844 50.496094 10.78125 51.28125 13.125 C 51.609375 14.097656 51.585938 15.984375 51.234375 17.015625 C 49.992188 20.625 46.183594 22.429688 42.609375 21.09375 C 42.105469 20.90625 41.871094 20.742188 41.730469 20.472656 C 41.332031 19.734375 40.570312 18.914062 39.890625 18.503906 C 39.28125 18.128906 39.164062 18 38.917969 17.390625 C 37.652344 14.273438 39.058594 10.652344 42.105469 9.152344 C 43.488281 8.472656 44.742188 8.296875 46.242188 8.566406 Z M 38.367188 19.828125 C 39.011719 20.015625 39.984375 20.988281 40.171875 21.632812 C 40.265625 21.960938 40.3125 23.109375 40.3125 25.160156 L 40.3125 28.207031 L 39.84375 28.523438 C 39.574219 28.699219 39.152344 29.027344 38.90625 29.25 L 38.449219 29.671875 L 38.414062 26.203125 C 38.378906 22.933594 38.367188 22.734375 38.132812 22.429688 C 38.003906 22.253906 37.746094 21.996094 37.570312 21.867188 C 37.253906 21.621094 37.21875 21.621094 21.5625 21.621094 C 5.90625 21.621094 5.871094 21.621094 5.554688 21.867188 C 5.378906 21.996094 5.121094 22.253906 4.992188 22.429688 C 4.746094 22.746094 4.746094 22.863281 4.710938 32.472656 L 4.6875 42.1875 L 2.8125 42.1875 L 2.8125 32.15625 C 2.8125 24.621094 2.847656 21.996094 2.953125 21.632812 C 3.128906 21.035156 4.113281 20.027344 4.6875 19.839844 C 5.308594 19.640625 37.710938 19.640625 38.367188 19.828125 Z M 36.5625 32.8125 L 36.5625 42.1875 L 34.6875 42.1875 L 34.6875 25.3125 L 29.0625 25.3125 L 29.0625 42.1875 L 27.1875 42.1875 L 27.1875 29.0625 L 21.5625 29.0625 L 21.5625 42.1875 L 19.6875 42.1875 L 19.6875 32.8125 L 14.0625 32.8125 L 14.0625 42.1875 L 6.5625 42.1875 L 6.5625 23.4375 L 36.5625 23.4375 Z M 32.8125 34.6875 L 32.8125 42.1875 L 30.9375 42.1875 L 30.9375 27.1875 L 32.8125 27.1875 Z M 45.410156 29.238281 C 48.1875 29.964844 50.015625 32.648438 49.605469 35.4375 C 49.277344 37.710938 47.636719 39.550781 45.410156 40.136719 C 42.480469 40.898438 39.398438 39.035156 38.613281 36.035156 C 37.570312 32.015625 41.390625 28.195312 45.410156 29.238281 Z M 25.3125 36.5625 L 25.3125 42.1875 L 23.4375 42.1875 L 23.4375 30.9375 L 25.3125 30.9375 Z M 17.8125 38.4375 L 17.8125 42.1875 L 15.9375 42.1875 L 15.9375 34.6875 L 17.8125 34.6875 Z M 39.539062 40.640625 C 39.773438 40.816406 39.820312 40.910156 39.714844 40.957031 C 39.234375 41.121094 38.519531 41.367188 38.484375 41.367188 C 38.460938 41.367188 38.4375 40.992188 38.4375 40.523438 L 38.4375 39.679688 L 38.824219 40.03125 C 39.023438 40.230469 39.351562 40.5 39.539062 40.640625 Z M 46.054688 42.363281 C 46.664062 42.46875 47.214844 42.597656 47.261719 42.644531 C 47.355469 42.738281 44.191406 54.375 44.0625 54.375 C 43.933594 54.375 40.769531 42.738281 40.863281 42.644531 C 41.027344 42.480469 42.878906 42.210938 43.945312 42.199219 C 44.496094 42.199219 45.445312 42.269531 46.054688 42.363281 Z M 40.886719 50.167969 C 41.941406 53.964844 42.785156 57.105469 42.75 57.128906 C 42.726562 57.152344 41.988281 55.910156 41.109375 54.363281 L 39.503906 51.550781 L 40.535156 49.488281 L 39.445312 48.410156 L 38.367188 47.332031 L 38.109375 45.726562 C 37.96875 44.847656 37.851562 44.039062 37.851562 43.933594 C 37.851562 43.792969 38.636719 43.277344 38.90625 43.253906 C 38.941406 43.242188 39.832031 46.359375 40.886719 50.167969 Z M 49.746094 43.5 C 50.039062 43.640625 50.273438 43.839844 50.273438 43.933594 C 50.273438 44.039062 50.15625 44.847656 50.015625 45.726562 L 49.757812 47.332031 L 48.679688 48.410156 L 47.589844 49.488281 L 48.105469 50.519531 L 48.621094 51.539062 L 47.015625 54.351562 C 46.136719 55.898438 45.386719 57.140625 45.363281 57.117188 C 45.328125 57.082031 49.136719 43.242188 49.183594 43.242188 C 49.195312 43.242188 49.453125 43.359375 49.746094 43.5 Z M 33.140625 45.105469 C 32.613281 45.679688 31.933594 46.511719 31.640625 46.96875 L 31.113281 47.800781 L 18.175781 47.800781 C 8.34375 47.8125 5.121094 47.777344 4.757812 47.671875 C 4.113281 47.484375 3.140625 46.511719 2.953125 45.867188 C 2.871094 45.597656 2.8125 45.082031 2.8125 44.71875 L 2.8125 44.0625 L 34.125 44.0625 Z M 36.199219 45.726562 C 36.269531 46.136719 36.386719 46.863281 36.457031 47.34375 C 36.585938 48.210938 36.597656 48.234375 37.40625 49.054688 L 38.226562 49.886719 L 37.792969 50.730469 L 37.371094 51.574219 L 38.824219 54.117188 C 39.621094 55.511719 40.335938 56.777344 40.417969 56.917969 L 40.558594 57.1875 L 35.625 57.1875 L 35.625 49.6875 L 33.75 49.6875 L 33.75 57.1875 L 30.902344 57.1875 L 30.972656 55.277344 C 31.007812 54.234375 31.125 53.027344 31.21875 52.605469 C 31.804688 50.027344 33.082031 47.742188 34.957031 45.902344 C 35.472656 45.410156 35.929688 45 35.976562 45 C 36.035156 45 36.128906 45.328125 36.199219 45.726562 Z M 53.167969 45.902344 C 55.042969 47.742188 56.296875 49.992188 56.90625 52.617188 C 57 53.039062 57.117188 54.234375 57.152344 55.277344 L 57.222656 57.1875 L 54.375 57.1875 L 54.375 49.6875 L 52.5 49.6875 L 52.5 57.1875 L 47.566406 57.1875 L 47.707031 56.917969 C 47.789062 56.777344 48.503906 55.511719 49.300781 54.117188 L 50.753906 51.574219 L 50.332031 50.730469 L 49.898438 49.886719 L 50.71875 49.054688 C 51.527344 48.234375 51.539062 48.210938 51.667969 47.34375 C 51.949219 45.539062 52.054688 45 52.148438 45 C 52.195312 45 52.652344 45.410156 53.167969 45.902344 Z M 30.058594 49.886719 C 29.894531 50.332031 29.425781 52.019531 29.355469 52.453125 C 29.320312 52.710938 29.261719 53.027344 29.226562 53.167969 L 29.179688 53.4375 L 15 53.4375 L 15 49.6875 L 22.570312 49.6875 C 29.730469 49.6875 30.140625 49.699219 30.058594 49.886719 Z M 29.0625 56.25 L 29.0625 57.1875 L 9.375 57.1875 L 9.375 55.3125 L 29.0625 55.3125 Z M 29.0625 56.25 "/>
<path style=" stroke:none;fill-rule:nonzero;fill:rgb(0%,0%,0%);fill-opacity:1;" d="M 43.898438 10.429688 C 43.160156 10.617188 42.105469 11.25 41.589844 11.800781 C 41.332031 12.082031 40.945312 12.667969 40.746094 13.101562 C 40.40625 13.816406 40.371094 13.992188 40.371094 15.011719 C 40.371094 16.066406 40.394531 16.171875 40.804688 17.015625 C 41.332031 18.082031 42.011719 18.738281 43.101562 19.253906 C 43.816406 19.59375 43.992188 19.628906 45 19.628906 C 46.007812 19.628906 46.183594 19.59375 46.898438 19.253906 C 47.988281 18.738281 48.667969 18.082031 49.195312 17.015625 C 49.605469 16.171875 49.628906 16.066406 49.628906 15 C 49.628906 13.933594 49.605469 13.828125 49.195312 12.984375 C 48.398438 11.390625 46.992188 10.441406 45.257812 10.359375 C 44.765625 10.335938 44.15625 10.371094 43.898438 10.429688 Z M 45.867188 12.328125 C 46.875 12.632812 47.8125 13.921875 47.8125 15 C 47.8125 16.453125 46.453125 17.8125 45 17.8125 C 44.261719 17.8125 43.664062 17.542969 43.066406 16.933594 C 41.871094 15.75 41.871094 14.25 43.066406 13.066406 C 43.886719 12.234375 44.765625 12.011719 45.867188 12.328125 Z M 45.867188 12.328125 "/>
<path style=" stroke:none;fill-rule:nonzero;fill:rgb(0%,0%,0%);fill-opacity:1;" d="M 8.4375 26.25 L 8.4375 27.1875 L 10.3125 27.1875 L 10.3125 25.3125 L 8.4375 25.3125 Z M 8.4375 26.25 "/>
<path style=" stroke:none;fill-rule:nonzero;fill:rgb(0%,0%,0%);fill-opacity:1;" d="M 12.1875 26.25 L 12.1875 27.1875 L 14.0625 27.1875 L 14.0625 25.3125 L 12.1875 25.3125 Z M 12.1875 26.25 "/>
<path style=" stroke:none;fill-rule:nonzero;fill:rgb(0%,0%,0%);fill-opacity:1;" d="M 15.9375 26.25 L 15.9375 27.1875 L 17.8125 27.1875 L 17.8125 25.3125 L 15.9375 25.3125 Z M 15.9375 26.25 "/>
<path style=" stroke:none;fill-rule:nonzero;fill:rgb(0%,0%,0%);fill-opacity:1;" d="M 8.4375 30 L 8.4375 30.9375 L 17.8125 30.9375 L 17.8125 29.0625 L 8.4375 29.0625 Z M 8.4375 30 "/>
</g>
</svg>
