<?xml version="1.0" encoding="UTF-8"?>
<svg xmlns="http://www.w3.org/2000/svg" xmlns:xlink="http://www.w3.org/1999/xlink" width="60px" height="60px" viewBox="0 0 60 60" version="1.1">
<g id="surface1">
<path style=" stroke:none;fill-rule:nonzero;fill:rgb(0%,0%,0%);fill-opacity:1;" d="M 2.226562 0.105469 C 1.417969 0.363281 0.703125 0.960938 0.28125 1.757812 C 0.0703125 2.15625 0.0585938 2.753906 0.0585938 16.992188 C 0.0585938 31.417969 0.0703125 31.828125 0.28125 32.273438 C 0.574219 32.859375 1.125 33.410156 1.710938 33.703125 C 2.109375 33.902344 2.472656 33.925781 4.605469 33.960938 L 7.03125 33.996094 L 7.03125 60 L 52.96875 60 L 52.96875 46.054688 L 50.976562 46.054688 L 50.976562 58.007812 L 9.023438 58.007812 L 9.023438 33.984375 L 17.261719 33.984375 C 26.414062 33.984375 26.179688 34.007812 27 33.210938 C 27.234375 32.988281 27.539062 32.578125 27.691406 32.308594 L 27.949219 31.816406 L 27.984375 18.890625 L 28.007812 5.976562 L 39.023438 5.976562 L 39.023438 18.046875 L 50.976562 18.046875 L 50.976562 31.992188 L 52.96875 31.992188 L 52.96875 16.582031 L 40.371094 3.984375 L 28.042969 3.984375 L 27.984375 3.070312 C 27.902344 1.746094 27.363281 0.867188 26.25 0.28125 C 25.863281 0.0703125 25.300781 0.0585938 14.179688 0.0351562 C 7.769531 0.0234375 2.390625 0.0585938 2.226562 0.105469 Z M 25.675781 2.332031 L 26.015625 2.671875 L 26.015625 31.3125 L 25.335938 31.992188 L 2.671875 31.992188 L 1.992188 31.3125 L 1.992188 2.671875 L 2.671875 1.992188 L 25.335938 1.992188 Z M 49.453125 15.960938 C 49.453125 16.019531 47.554688 16.054688 45.234375 16.054688 L 41.015625 16.054688 L 41.015625 7.441406 L 45.234375 11.660156 C 47.554688 13.980469 49.453125 15.914062 49.453125 15.960938 Z M 49.453125 15.960938 "/>
<path style=" stroke:none;fill-rule:nonzero;fill:rgb(0%,0%,0%);fill-opacity:1;" d="M 3.046875 6.503906 L 3.046875 9.960938 L 24.960938 9.960938 L 24.960938 3.046875 L 3.046875 3.046875 Z M 22.96875 6.503906 L 22.96875 7.96875 L 5.039062 7.96875 L 5.039062 5.039062 L 22.96875 5.039062 Z M 22.96875 6.503906 "/>
<path style=" stroke:none;fill-rule:nonzero;fill:rgb(0%,0%,0%);fill-opacity:1;" d="M 5.214844 11.179688 C 4.78125 11.378906 4.277344 11.90625 4.113281 12.339844 C 3.949219 12.761719 3.949219 15.035156 4.101562 15.585938 C 4.230469 16.066406 4.816406 16.6875 5.308594 16.863281 C 5.496094 16.933594 6.269531 16.992188 7.042969 16.992188 C 8.636719 16.992188 9.140625 16.828125 9.632812 16.148438 C 9.890625 15.785156 9.902344 15.65625 9.902344 13.992188 C 9.902344 12.257812 9.902344 12.222656 9.585938 11.8125 C 9.070312 11.144531 8.671875 11.015625 7.007812 11.015625 C 6.070312 11.027344 5.449219 11.074219 5.214844 11.179688 Z M 7.96875 14.003906 L 7.96875 15 L 5.976562 15 L 5.976562 13.007812 L 7.96875 13.007812 Z M 7.96875 14.003906 "/>
<path style=" stroke:none;fill-rule:nonzero;fill:rgb(0%,0%,0%);fill-opacity:1;" d="M 12.011719 11.285156 C 11.753906 11.4375 11.4375 11.753906 11.285156 12.011719 C 11.050781 12.433594 11.015625 12.644531 11.015625 13.992188 C 11.015625 15.398438 11.039062 15.539062 11.308594 16.007812 C 11.777344 16.792969 12.304688 16.992188 14.027344 16.992188 C 15.738281 16.992188 16.277344 16.78125 16.722656 15.9375 C 16.957031 15.492188 16.992188 15.269531 16.992188 14.003906 C 16.992188 12.738281 16.957031 12.515625 16.722656 12.058594 C 16.265625 11.191406 15.820312 11.015625 14.003906 11.015625 C 12.644531 11.015625 12.433594 11.050781 12.011719 11.285156 Z M 15 14.003906 L 15 15 L 13.007812 15 L 13.007812 13.007812 L 15 13.007812 Z M 15 14.003906 "/>
<path style=" stroke:none;fill-rule:nonzero;fill:rgb(0%,0%,0%);fill-opacity:1;" d="M 19.160156 11.203125 C 18.164062 11.71875 18.023438 12.09375 18.070312 14.132812 C 18.105469 15.621094 18.128906 15.796875 18.375 16.148438 C 18.867188 16.828125 19.371094 16.992188 20.976562 16.992188 C 21.914062 16.992188 22.511719 16.933594 22.769531 16.828125 C 23.25 16.628906 23.71875 16.101562 23.894531 15.597656 C 24.058594 15.105469 24.070312 12.984375 23.90625 12.421875 C 23.777344 11.941406 23.191406 11.320312 22.699219 11.144531 C 22.160156 10.933594 19.582031 10.980469 19.160156 11.203125 Z M 22.03125 14.003906 L 22.03125 15 L 20.039062 15 L 20.039062 13.007812 L 22.03125 13.007812 Z M 22.03125 14.003906 "/>
<path style=" stroke:none;fill-rule:nonzero;fill:rgb(0%,0%,0%);fill-opacity:1;" d="M 5.050781 18.246094 C 4.839844 18.351562 4.523438 18.644531 4.347656 18.902344 C 4.066406 19.335938 4.042969 19.5 4.007812 20.730469 C 3.960938 22.21875 4.066406 22.769531 4.523438 23.308594 C 5.015625 23.894531 5.636719 24.058594 7.230469 24.011719 C 8.824219 23.953125 9.257812 23.777344 9.703125 22.992188 C 9.9375 22.570312 9.960938 22.359375 9.960938 20.953125 C 9.960938 19.5 9.9375 19.335938 9.691406 18.972656 C 9.550781 18.761719 9.246094 18.457031 9.035156 18.316406 C 8.671875 18.070312 8.507812 18.046875 7.042969 18.046875 C 5.800781 18.046875 5.367188 18.09375 5.050781 18.246094 Z M 7.96875 21.035156 L 7.96875 22.03125 L 5.976562 22.03125 L 5.976562 20.039062 L 7.96875 20.039062 Z M 7.96875 21.035156 "/>
<path style=" stroke:none;fill-rule:nonzero;fill:rgb(0%,0%,0%);fill-opacity:1;" d="M 12 18.269531 C 11.800781 18.386719 11.507812 18.667969 11.355469 18.890625 C 11.109375 19.230469 11.074219 19.429688 11.039062 20.671875 C 10.980469 22.429688 11.050781 22.757812 11.566406 23.320312 C 12.082031 23.894531 12.515625 24.023438 14.015625 24.023438 C 15.339844 24.023438 15.84375 23.894531 16.335938 23.449219 C 16.886719 22.957031 16.992188 22.535156 16.992188 20.976562 C 16.992188 19.371094 16.828125 18.867188 16.148438 18.375 C 15.796875 18.128906 15.621094 18.105469 14.0625 18.070312 C 12.550781 18.046875 12.328125 18.058594 12 18.269531 Z M 15 21.035156 L 15 22.03125 L 13.007812 22.03125 L 13.007812 20.039062 L 15 20.039062 Z M 15 21.035156 "/>
<path style=" stroke:none;fill-rule:nonzero;fill:rgb(0%,0%,0%);fill-opacity:1;" d="M 18.972656 18.316406 C 18.761719 18.457031 18.457031 18.761719 18.316406 18.972656 C 18.070312 19.335938 18.046875 19.5 18.046875 20.941406 C 18.046875 22.78125 18.164062 23.167969 18.902344 23.648438 C 19.335938 23.941406 19.5 23.964844 20.71875 24.011719 C 22.207031 24.058594 22.769531 23.941406 23.308594 23.484375 C 23.894531 22.992188 24.058594 22.371094 24.011719 20.777344 C 23.964844 19.5 23.941406 19.335938 23.648438 18.902344 C 23.167969 18.164062 22.78125 18.046875 20.941406 18.046875 C 19.5 18.046875 19.335938 18.070312 18.972656 18.316406 Z M 22.03125 21.035156 L 22.03125 22.03125 L 20.039062 22.03125 L 20.039062 20.039062 L 22.03125 20.039062 Z M 22.03125 21.035156 "/>
<path style=" stroke:none;fill-rule:nonzero;fill:rgb(0%,0%,0%);fill-opacity:1;" d="M 5.355469 25.125 C 4.289062 25.511719 3.984375 26.144531 3.984375 28.007812 C 3.984375 29.625 4.171875 30.164062 4.898438 30.644531 C 5.261719 30.890625 5.554688 30.960938 6.351562 31.019531 C 8.226562 31.148438 9.105469 30.878906 9.691406 30.011719 C 9.9375 29.648438 9.960938 29.484375 9.960938 28.042969 C 9.960938 26.34375 9.890625 26.085938 9.292969 25.535156 C 9.117188 25.359375 8.789062 25.171875 8.566406 25.089844 C 8.015625 24.914062 5.90625 24.9375 5.355469 25.125 Z M 7.96875 27.949219 L 7.96875 28.945312 L 5.976562 28.945312 L 5.976562 28.03125 C 5.976562 27.527344 6.011719 27.070312 6.058594 27.035156 C 6.09375 26.988281 6.550781 26.953125 7.054688 26.953125 L 7.96875 26.953125 Z M 7.96875 27.949219 "/>
<path style=" stroke:none;fill-rule:nonzero;fill:rgb(0%,0%,0%);fill-opacity:1;" d="M 12.386719 25.136719 C 11.296875 25.523438 11.015625 26.097656 11.015625 27.996094 C 11.015625 29.472656 11.109375 29.882812 11.519531 30.328125 C 12.058594 30.914062 12.375 30.996094 14.003906 30.996094 C 15.726562 30.996094 16.042969 30.890625 16.605469 30.152344 C 16.921875 29.742188 16.933594 29.660156 16.96875 28.253906 C 16.992188 27.398438 16.957031 26.601562 16.886719 26.355469 C 16.722656 25.828125 16.101562 25.253906 15.503906 25.089844 C 14.871094 24.914062 12.925781 24.9375 12.386719 25.136719 Z M 15 27.949219 L 15 28.945312 L 13.007812 28.945312 L 13.007812 26.953125 L 15 26.953125 Z M 15 27.949219 "/>
<path style=" stroke:none;fill-rule:nonzero;fill:rgb(0%,0%,0%);fill-opacity:1;" d="M 19.394531 25.089844 C 18.949219 25.230469 18.597656 25.523438 18.292969 26.027344 C 18.082031 26.378906 18.046875 26.613281 18.046875 28.019531 C 18.046875 29.484375 18.070312 29.648438 18.316406 30.011719 C 18.902344 30.878906 19.78125 31.148438 21.65625 31.019531 C 22.453125 30.960938 22.746094 30.890625 23.109375 30.644531 C 23.835938 30.164062 24.023438 29.625 24.023438 28.007812 C 24.023438 26.144531 23.71875 25.511719 22.652344 25.125 C 22.148438 24.949219 19.945312 24.925781 19.394531 25.089844 Z M 22.007812 27.972656 L 22.042969 28.945312 L 20.039062 28.945312 L 20.039062 26.941406 L 21.011719 26.976562 L 21.972656 27.011719 Z M 22.007812 27.972656 "/>
<path style=" stroke:none;fill-rule:nonzero;fill:rgb(0%,0%,0%);fill-opacity:1;" d="M 31.992188 21.972656 L 31.992188 22.96875 L 33.984375 22.96875 L 33.984375 20.976562 L 31.992188 20.976562 Z M 31.992188 21.972656 "/>
<path style=" stroke:none;fill-rule:nonzero;fill:rgb(0%,0%,0%);fill-opacity:1;" d="M 35.976562 21.972656 L 35.976562 22.96875 L 48.058594 22.96875 L 48.023438 21.996094 L 47.988281 21.035156 L 41.988281 21 L 35.976562 20.976562 Z M 35.976562 21.972656 "/>
<path style=" stroke:none;fill-rule:nonzero;fill:rgb(0%,0%,0%);fill-opacity:1;" d="M 31.992188 25.957031 L 31.992188 26.953125 L 33.984375 26.953125 L 33.984375 24.960938 L 31.992188 24.960938 Z M 31.992188 25.957031 "/>
<path style=" stroke:none;fill-rule:nonzero;fill:rgb(0%,0%,0%);fill-opacity:1;" d="M 35.976562 25.957031 L 35.976562 26.953125 L 48.058594 26.953125 L 48.023438 25.980469 L 47.988281 25.019531 L 41.988281 24.984375 L 35.976562 24.960938 Z M 35.976562 25.957031 "/>
<path style=" stroke:none;fill-rule:nonzero;fill:rgb(0%,0%,0%);fill-opacity:1;" d="M 32.039062 29.097656 C 32.003906 29.191406 31.992188 29.648438 32.015625 30.128906 L 32.050781 30.996094 L 33.023438 31.03125 L 33.984375 31.066406 L 33.984375 28.945312 L 33.046875 28.945312 C 32.367188 28.945312 32.085938 28.992188 32.039062 29.097656 Z M 32.039062 29.097656 "/>
<path style=" stroke:none;fill-rule:nonzero;fill:rgb(0%,0%,0%);fill-opacity:1;" d="M 36.023438 29.097656 C 35.988281 29.191406 35.976562 29.648438 36 30.128906 L 36.035156 30.996094 L 47.988281 30.996094 L 47.988281 29.003906 L 42.035156 28.96875 C 37.125 28.945312 36.082031 28.96875 36.023438 29.097656 Z M 36.023438 29.097656 "/>
<path style=" stroke:none;fill-rule:nonzero;fill:rgb(0%,0%,0%);fill-opacity:1;" d="M 55.898438 31.242188 C 55.453125 31.40625 54.070312 32.730469 46.464844 40.324219 L 37.558594 49.21875 L 36.304688 51.949219 C 35.542969 53.589844 35.039062 54.84375 35.039062 55.066406 C 35.039062 55.277344 35.132812 55.523438 35.273438 55.664062 C 35.753906 56.144531 35.976562 56.109375 38.238281 55.078125 C 39.410156 54.539062 40.710938 53.929688 41.132812 53.71875 C 41.8125 53.378906 42.820312 52.40625 50.765625 44.449219 C 59.367188 35.835938 59.636719 35.542969 59.8125 34.933594 C 60.046875 34.136719 60.046875 33.949219 59.8125 33.175781 C 59.601562 32.460938 58.992188 31.734375 58.3125 31.382812 C 57.691406 31.066406 56.589844 30.996094 55.898438 31.242188 Z M 57.609375 33.328125 C 58.125 33.761719 58.066406 34.335938 57.445312 34.957031 L 56.953125 35.449219 L 56.25 34.746094 L 55.535156 34.042969 L 56.0625 33.539062 C 56.683594 32.953125 57.117188 32.894531 57.609375 33.328125 Z M 54.878906 36.1875 L 55.546875 36.867188 L 54.84375 37.546875 L 53.4375 36.164062 L 53.753906 35.835938 C 53.929688 35.660156 54.09375 35.507812 54.140625 35.507812 C 54.175781 35.507812 54.503906 35.8125 54.878906 36.1875 Z M 52.769531 38.296875 L 53.4375 38.964844 L 47.015625 45.375 L 40.605469 51.785156 L 39.351562 52.371094 C 38.648438 52.6875 38.085938 52.933594 38.085938 52.898438 C 38.085938 52.875 38.332031 52.3125 38.636719 51.65625 L 39.175781 50.449219 L 45.574219 44.027344 C 49.089844 40.5 51.996094 37.617188 52.03125 37.617188 C 52.066406 37.617188 52.394531 37.921875 52.769531 38.296875 Z M 52.769531 38.296875 "/>
<path style=" stroke:none;fill-rule:nonzero;fill:rgb(0%,0%,0%);fill-opacity:1;" d="M 31.992188 34.042969 L 31.992188 35.039062 L 33.984375 35.039062 L 33.984375 33.046875 L 31.992188 33.046875 Z M 31.992188 34.042969 "/>
<path style=" stroke:none;fill-rule:nonzero;fill:rgb(0%,0%,0%);fill-opacity:1;" d="M 35.976562 34.042969 L 35.976562 35.039062 L 41.988281 35.015625 L 47.988281 34.980469 L 48.023438 34.007812 L 48.058594 33.046875 L 35.976562 33.046875 Z M 35.976562 34.042969 "/>
<path style=" stroke:none;fill-rule:nonzero;fill:rgb(0%,0%,0%);fill-opacity:1;" d="M 21.621094 36.082031 C 20.238281 36.316406 19.101562 36.714844 17.871094 37.429688 C 16.734375 38.097656 14.976562 39.878906 14.332031 41.015625 C 12.128906 44.953125 12.714844 49.640625 15.796875 52.875 C 19.042969 56.273438 23.941406 56.964844 28.054688 54.609375 C 31.089844 52.875 32.964844 49.582031 32.953125 45.996094 C 32.953125 40.582031 28.792969 36.269531 23.378906 36.035156 C 22.734375 36.011719 21.949219 36.035156 21.621094 36.082031 Z M 25.019531 38.261719 C 27.820312 38.988281 30.117188 41.332031 30.761719 44.121094 C 31.757812 48.386719 29.203125 52.617188 24.960938 53.753906 C 23.929688 54.023438 21.996094 54.023438 20.976562 53.742188 C 18.398438 53.039062 16.230469 50.988281 15.398438 48.445312 C 15.09375 47.507812 15.058594 47.25 15.070312 45.9375 C 15.070312 44.648438 15.105469 44.355469 15.398438 43.535156 C 16.382812 40.664062 18.867188 38.554688 21.796875 38.085938 C 22.628906 37.957031 24.128906 38.039062 25.019531 38.261719 Z M 25.019531 38.261719 "/>
<path style=" stroke:none;fill-rule:nonzero;fill:rgb(0%,0%,0%);fill-opacity:1;" d="M 22.03125 40.546875 C 22.03125 41.027344 21.996094 41.132812 21.832031 41.132812 C 21.46875 41.132812 20.226562 41.789062 19.828125 42.1875 C 19.242188 42.761719 19.054688 43.21875 19.054688 44.003906 C 19.054688 45.644531 20.4375 46.757812 22.746094 46.980469 C 23.953125 47.097656 24.152344 47.15625 24.644531 47.484375 C 25.511719 48.09375 24.515625 48.972656 22.96875 48.972656 C 22.265625 48.984375 21.527344 48.703125 21.164062 48.292969 C 20.964844 48.082031 20.8125 48.046875 19.957031 48.046875 L 18.960938 48.046875 L 19.042969 48.421875 C 19.160156 48.972656 19.394531 49.371094 19.828125 49.804688 C 20.226562 50.203125 21.46875 50.859375 21.832031 50.859375 C 21.996094 50.859375 22.03125 50.964844 22.03125 51.445312 L 22.03125 52.03125 L 24.023438 52.03125 L 24.023438 51.445312 C 24.023438 51.117188 24.070312 50.859375 24.140625 50.859375 C 24.480469 50.859375 25.570312 50.332031 26.015625 49.957031 C 27.65625 48.550781 27.070312 46.171875 24.867188 45.351562 C 24.515625 45.210938 23.730469 45.058594 23.132812 45 C 22.019531 44.894531 21.691406 44.789062 21.246094 44.378906 C 20.894531 44.0625 20.90625 43.910156 21.328125 43.546875 C 22.21875 42.808594 23.988281 42.832031 24.75 43.605469 C 25.078125 43.921875 25.160156 43.945312 26.027344 43.945312 C 26.90625 43.945312 26.953125 43.933594 26.953125 43.675781 C 26.941406 43.207031 26.53125 42.480469 26.015625 42.035156 C 25.570312 41.660156 24.480469 41.132812 24.140625 41.132812 C 24.070312 41.132812 24.023438 40.863281 24.023438 40.546875 L 24.023438 39.960938 L 22.03125 39.960938 Z M 22.03125 40.546875 "/>
</g>
</svg>
