<?xml version="1.0" encoding="UTF-8"?>
<svg xmlns="http://www.w3.org/2000/svg" xmlns:xlink="http://www.w3.org/1999/xlink" width="60px" height="60px" viewBox="0 0 60 60" version="1.1">
<g id="surface1">
<path style=" stroke:none;fill-rule:nonzero;fill:rgb(0%,0%,0%);fill-opacity:1;" d="M 0.597656 0.164062 C 0 0.492188 0.0117188 0.328125 0.0117188 8.496094 C 0 17.050781 0 17.0625 0.820312 18.726562 C 1.394531 19.875 2.507812 21.058594 3.609375 21.679688 L 4.335938 22.089844 L 4.359375 39.726562 L 4.394531 57.363281 L 4.640625 57.902344 C 5.003906 58.675781 5.554688 59.238281 6.304688 59.613281 C 6.855469 59.882812 7.125 59.941406 7.851562 59.941406 C 9.316406 59.941406 10.453125 59.214844 11.0625 57.902344 L 11.308594 57.363281 L 11.378906 22.089844 L 12.105469 21.679688 C 13.195312 21.058594 14.308594 19.875 14.882812 18.726562 C 15.703125 17.0625 15.703125 17.039062 15.703125 8.519531 C 15.703125 0.28125 15.714844 0.433594 15.058594 0.140625 C 14.671875 -0.0351562 14.390625 -0.0351562 14.003906 0.140625 C 13.359375 0.433594 13.359375 0.375 13.359375 7.382812 L 13.359375 13.828125 L 11.25 13.828125 L 11.25 7.382812 C 11.25 2.648438 11.214844 0.867188 11.109375 0.644531 C 10.957031 0.304688 10.464844 0 10.078125 0 C 9.691406 0 9.199219 0.304688 9.046875 0.644531 C 8.941406 0.867188 8.90625 2.648438 8.90625 7.382812 L 8.90625 13.828125 L 6.796875 13.828125 L 6.796875 7.382812 C 6.796875 2.648438 6.761719 0.867188 6.65625 0.644531 C 6.410156 0.09375 5.695312 -0.140625 5.097656 0.140625 C 4.453125 0.433594 4.453125 0.375 4.453125 7.382812 L 4.453125 13.828125 L 2.34375 13.828125 L 2.34375 7.382812 C 2.34375 2.648438 2.308594 0.867188 2.203125 0.644531 C 1.945312 0.0820312 1.171875 -0.152344 0.597656 0.164062 Z M 13.207031 16.570312 C 13.007812 17.824219 11.660156 19.40625 10.359375 19.910156 C 9.984375 20.0625 9.527344 20.332031 9.351562 20.519531 L 9.023438 20.859375 L 9.023438 38.800781 C 9.023438 58.300781 9.058594 57.210938 8.378906 57.515625 C 7.992188 57.691406 7.710938 57.691406 7.324219 57.515625 C 6.644531 57.210938 6.679688 58.300781 6.679688 38.800781 L 6.679688 20.882812 L 6.375 20.519531 C 6.210938 20.320312 6.011719 20.15625 5.929688 20.15625 C 5.566406 20.15625 4.335938 19.40625 3.785156 18.855469 C 3.164062 18.234375 2.601562 17.238281 2.496094 16.570312 L 2.425781 16.171875 L 13.277344 16.171875 Z M 13.207031 16.570312 "/>
<path style=" stroke:none;fill-rule:nonzero;fill:rgb(0%,0%,0%);fill-opacity:1;" d="M 57.820312 0.457031 C 56.753906 1.171875 55.242188 2.53125 54.234375 3.679688 C 51.761719 6.46875 50.0625 9.960938 49.3125 13.734375 C 49.054688 15.023438 49.054688 15.316406 49.007812 24.152344 C 48.972656 34.195312 48.960938 34.066406 49.699219 35.53125 C 49.96875 36.058594 50.472656 36.679688 51.515625 37.734375 L 52.96875 39.210938 L 52.992188 48.292969 C 53.027344 57.234375 53.027344 57.375 53.273438 57.902344 C 53.636719 58.675781 54.1875 59.238281 54.9375 59.613281 C 55.488281 59.882812 55.757812 59.941406 56.484375 59.941406 C 57.949219 59.941406 59.085938 59.214844 59.695312 57.902344 L 59.941406 57.363281 L 59.976562 29.179688 C 60 8.097656 59.964844 0.914062 59.871094 0.667969 C 59.71875 0.304688 59.226562 0 58.792969 0 C 58.628906 0 58.195312 0.210938 57.820312 0.457031 Z M 57.527344 56.988281 C 57.375 57.339844 56.882812 57.65625 56.484375 57.65625 C 56.144531 57.65625 55.59375 57.351562 55.476562 57.105469 C 55.417969 56.988281 55.347656 52.6875 55.3125 47.554688 L 55.253906 38.214844 L 53.601562 36.539062 C 52.523438 35.4375 51.855469 34.664062 51.667969 34.277344 L 51.386719 33.691406 L 51.351562 25.089844 C 51.328125 17.964844 51.351562 16.242188 51.503906 15.128906 C 52.019531 11.109375 53.8125 7.417969 56.601562 4.582031 L 57.597656 3.574219 L 57.632812 30.117188 C 57.65625 49.921875 57.621094 56.742188 57.527344 56.988281 Z M 57.527344 56.988281 "/>
<path style=" stroke:none;fill-rule:nonzero;fill:rgb(0%,0%,0%);fill-opacity:1;" d="M 27.421875 7.746094 C 25.265625 7.992188 22.605469 8.742188 20.683594 9.65625 C 19.511719 10.207031 19.21875 10.5 19.21875 11.109375 C 19.21875 11.648438 19.757812 12.1875 20.285156 12.1875 C 20.496094 12.1875 21.351562 11.90625 22.195312 11.554688 C 25.59375 10.136719 29.0625 9.667969 32.613281 10.136719 C 36.867188 10.699219 40.511719 12.421875 43.699219 15.410156 C 44.800781 16.429688 44.929688 16.523438 45.363281 16.523438 C 46.042969 16.523438 46.523438 16.03125 46.523438 15.339844 C 46.523438 14.882812 46.464844 14.789062 45.644531 13.992188 C 42 10.453125 37.394531 8.296875 32.320312 7.746094 C 31.007812 7.59375 28.710938 7.605469 27.421875 7.746094 Z M 27.421875 7.746094 "/>
<path style=" stroke:none;fill-rule:nonzero;fill:rgb(0%,0%,0%);fill-opacity:1;" d="M 28.300781 13.429688 C 25.734375 13.710938 22.886719 14.765625 20.636719 16.265625 C 19.324219 17.132812 17.132812 19.324219 16.265625 20.625 C 15 22.535156 14.167969 24.492188 13.6875 26.707031 C 13.324219 28.3125 13.335938 31.664062 13.6875 33.292969 C 15.140625 39.9375 20.097656 44.882812 26.753906 46.3125 C 28.464844 46.675781 31.535156 46.675781 33.234375 46.3125 C 34.945312 45.949219 36.09375 45.539062 37.628906 44.742188 C 42.09375 42.457031 45.222656 38.308594 46.3125 33.246094 C 46.652344 31.652344 46.675781 28.582031 46.359375 27.011719 C 45.316406 21.738281 42.046875 17.425781 37.324219 15.082031 C 35.097656 13.980469 33.058594 13.488281 30.46875 13.417969 C 29.53125 13.394531 28.558594 13.40625 28.300781 13.429688 Z M 32.121094 15.878906 C 36.703125 16.570312 40.6875 19.464844 42.808594 23.671875 C 43.394531 24.84375 43.921875 26.507812 44.121094 27.878906 C 45.292969 35.648438 39.902344 42.949219 32.109375 44.132812 C 25.933594 45.058594 19.816406 41.800781 17.109375 36.152344 C 13.910156 29.460938 16.359375 21.515625 22.792969 17.671875 C 25.511719 16.042969 28.910156 15.386719 32.121094 15.878906 Z M 32.121094 15.878906 "/>
<path style=" stroke:none;fill-rule:nonzero;fill:rgb(0%,0%,0%);fill-opacity:1;" d="M 29.460938 19.335938 C 29.074219 19.488281 28.828125 19.921875 28.828125 20.425781 C 28.828125 21.597656 30.46875 21.996094 31.007812 20.964844 C 31.535156 19.933594 30.539062 18.890625 29.460938 19.335938 Z M 29.460938 19.335938 "/>
<path style=" stroke:none;fill-rule:nonzero;fill:rgb(0%,0%,0%);fill-opacity:1;" d="M 25.148438 20.402344 C 22.03125 21.972656 19.828125 25.066406 19.347656 28.535156 C 19.136719 30.058594 19.160156 30.316406 19.617188 30.773438 C 20.0625 31.21875 20.4375 31.277344 20.964844 30.996094 C 21.375 30.785156 21.503906 30.445312 21.65625 29.109375 C 21.796875 27.878906 22.195312 26.636719 22.757812 25.6875 C 23.34375 24.679688 24.855469 23.238281 25.957031 22.628906 C 26.472656 22.335938 26.988281 22.03125 27.09375 21.9375 C 27.398438 21.679688 27.480469 21.070312 27.257812 20.648438 C 26.882812 19.933594 26.214844 19.851562 25.148438 20.402344 Z M 25.148438 20.402344 "/>
<path style=" stroke:none;fill-rule:nonzero;fill:rgb(0%,0%,0%);fill-opacity:1;" d="M 46.265625 42.046875 C 46.160156 42.09375 45.445312 42.785156 44.695312 43.582031 C 41.660156 46.757812 38.613281 48.539062 34.535156 49.511719 C 29.660156 50.671875 24.269531 49.863281 19.980469 47.34375 C 19.324219 46.957031 18.785156 46.722656 18.550781 46.722656 C 17.742188 46.699219 17.15625 47.542969 17.460938 48.292969 C 17.648438 48.726562 18.292969 49.160156 19.980469 50.003906 C 29.425781 54.738281 40.898438 52.21875 47.496094 43.96875 C 47.695312 43.710938 47.8125 43.417969 47.8125 43.171875 C 47.8125 42.445312 46.886719 41.777344 46.265625 42.046875 Z M 46.265625 42.046875 "/>
<path style=" stroke:none;fill-rule:nonzero;fill:rgb(0%,0%,0%);fill-opacity:1;" d="M 14.425781 43.992188 C 14.273438 44.074219 14.074219 44.273438 13.992188 44.425781 C 13.335938 45.609375 14.882812 46.78125 15.832031 45.832031 C 16.78125 44.882812 15.609375 43.335938 14.425781 43.992188 Z M 14.425781 43.992188 "/>
</g>
</svg>
