<?xml version="1.0" encoding="UTF-8"?>
<svg xmlns="http://www.w3.org/2000/svg" xmlns:xlink="http://www.w3.org/1999/xlink" width="60px" height="60px" viewBox="0 0 60 60" version="1.1">
<g id="surface1">
<path style=" stroke:none;fill-rule:nonzero;fill:rgb(0%,0%,0%);fill-opacity:1;" d="M 10.3125 0.257812 C 10.007812 0.421875 9.644531 0.738281 9.433594 1.03125 L 9.082031 1.546875 L 9.023438 3.726562 L 8.964844 5.917969 L 6.621094 5.976562 C 4.347656 6.035156 4.253906 6.046875 3.609375 6.363281 C 2.894531 6.714844 2.378906 7.230469 1.96875 8.003906 L 1.699219 8.496094 L 1.664062 32.777344 C 1.640625 56.871094 1.640625 57.058594 1.875 57.691406 C 2.191406 58.546875 2.800781 59.214844 3.609375 59.613281 L 4.277344 59.941406 L 17.578125 59.941406 C 30.855469 59.941406 30.878906 59.941406 31.417969 59.695312 C 32.15625 59.34375 32.777344 58.769531 33.140625 58.078125 L 33.457031 57.480469 L 33.574219 47.753906 L 44.53125 47.695312 C 55.453125 47.636719 55.488281 47.636719 56.039062 47.378906 C 56.8125 47.027344 57.550781 46.300781 57.960938 45.503906 L 58.300781 44.824219 L 58.300781 21.152344 L 57.972656 20.496094 C 57.597656 19.722656 56.8125 18.949219 56.039062 18.597656 C 55.488281 18.339844 55.453125 18.339844 44.53125 18.28125 L 33.574219 18.222656 L 33.515625 13.359375 C 33.445312 7.957031 33.46875 8.085938 32.625 7.148438 C 32.378906 6.878906 31.910156 6.515625 31.59375 6.351562 C 31.007812 6.046875 30.9375 6.035156 28.628906 6 L 26.25 5.964844 L 26.25 4.570312 L 27.691406 4.570312 C 29.636719 4.570312 29.648438 4.558594 29.648438 3.070312 C 29.636719 1.453125 29.261719 0.703125 28.195312 0.222656 C 27.738281 0.0117188 27.257812 0 19.277344 0 L 10.828125 0 Z M 25.066406 1.605469 C 24.984375 1.816406 24.9375 3.421875 24.949219 6.175781 L 24.949219 10.429688 L 10.3125 10.429688 L 10.3125 6.234375 C 10.3125 1.710938 10.324219 1.652344 10.945312 1.40625 C 11.074219 1.347656 14.34375 1.300781 18.1875 1.300781 L 25.195312 1.289062 Z M 27.761719 1.464844 C 28.136719 1.652344 28.359375 2.15625 28.359375 2.824219 L 28.359375 3.28125 L 26.25 3.28125 L 26.25 2.660156 C 26.25 1.992188 26.460938 1.570312 26.882812 1.40625 C 27.246094 1.253906 27.398438 1.265625 27.761719 1.464844 Z M 9 8.871094 L 9.035156 10.429688 L 8.027344 10.429688 C 7.183594 10.429688 6.996094 10.464844 6.796875 10.664062 C 6.503906 10.957031 6.503906 11.144531 6.773438 11.472656 L 6.972656 11.730469 L 17.566406 11.730469 C 27.316406 11.71875 28.171875 11.707031 28.371094 11.53125 C 28.664062 11.273438 28.652344 10.957031 28.359375 10.664062 C 28.160156 10.464844 27.972656 10.429688 27.1875 10.429688 L 26.25 10.429688 L 26.25 7.265625 L 28.335938 7.265625 C 30.269531 7.265625 30.457031 7.289062 30.9375 7.523438 C 31.21875 7.675781 31.617188 7.992188 31.804688 8.238281 L 32.167969 8.695312 L 32.203125 32.824219 C 32.226562 56.378906 32.226562 56.964844 32.003906 57.398438 C 31.722656 57.949219 31.347656 58.300781 30.796875 58.535156 C 30.410156 58.6875 28.863281 58.710938 17.671875 58.710938 C 9.304688 58.710938 4.828125 58.664062 4.546875 58.59375 C 3.960938 58.429688 3.410156 57.949219 3.152344 57.363281 C 2.941406 56.917969 2.929688 55.933594 2.929688 33.011719 C 2.929688 7.042969 2.882812 8.707031 3.550781 7.980469 C 4.125 7.359375 4.558594 7.265625 6.855469 7.300781 L 8.964844 7.324219 Z M 55.488281 19.792969 C 56.507812 20.261719 57.070312 21.234375 57.070312 22.511719 L 57.070312 23.203125 L 33.515625 23.203125 L 33.515625 19.570312 L 44.273438 19.570312 C 54.492188 19.570312 55.042969 19.582031 55.488281 19.792969 Z M 57.070312 26.425781 L 57.070312 28.359375 L 33.515625 28.359375 L 33.515625 24.492188 L 57.070312 24.492188 Z M 57.070312 36.867188 C 57.070312 42.011719 57.035156 44.226562 56.929688 44.542969 C 56.753906 45.152344 56.074219 45.914062 55.5 46.183594 C 55.042969 46.394531 54.457031 46.40625 44.273438 46.40625 L 33.515625 46.40625 L 33.515625 29.648438 L 57.070312 29.648438 Z M 57.070312 36.867188 "/>
<path style=" stroke:none;fill-rule:nonzero;fill:rgb(0%,0%,0%);fill-opacity:1;" d="M 6.304688 15.234375 C 5.742188 15.539062 5.320312 16.089844 5.15625 16.757812 C 5.074219 17.121094 5.039062 19.183594 5.0625 23.4375 C 5.097656 29.578125 5.097656 29.589844 5.367188 30.082031 C 5.507812 30.363281 5.847656 30.726562 6.117188 30.902344 L 6.609375 31.230469 L 17.449219 31.265625 L 28.300781 31.289062 L 28.828125 31.03125 C 29.132812 30.867188 29.496094 30.550781 29.707031 30.257812 L 30.058594 29.742188 L 30.058594 23.167969 C 30.058594 16.792969 30.046875 16.570312 29.824219 16.183594 C 29.695312 15.960938 29.390625 15.621094 29.144531 15.421875 L 28.6875 15.058594 L 17.71875 15.035156 C 7.007812 15.011719 6.726562 15.011719 6.304688 15.234375 Z M 28.488281 16.59375 L 28.769531 16.898438 L 28.769531 29.4375 L 28.113281 30 L 7.019531 30 L 6.738281 29.707031 L 6.445312 29.425781 L 6.445312 16.769531 L 6.75 16.535156 C 7.066406 16.289062 7.113281 16.289062 17.636719 16.289062 L 28.207031 16.289062 Z M 28.488281 16.59375 "/>
<path style=" stroke:none;fill-rule:nonzero;fill:rgb(0%,0%,0%);fill-opacity:1;" d="M 6.914062 34.722656 C 6.691406 34.792969 6.269531 35.097656 5.964844 35.390625 C 4.746094 36.5625 4.792969 38.355469 6.070312 39.515625 C 6.667969 40.054688 7.230469 40.230469 8.144531 40.171875 C 11.0625 39.984375 11.765625 36 9.09375 34.792969 C 8.554688 34.546875 7.558594 34.523438 6.914062 34.722656 Z M 8.589844 36.023438 C 8.800781 36.105469 9.070312 36.316406 9.1875 36.492188 C 9.890625 37.582031 9.175781 38.90625 7.863281 38.90625 C 7.429688 38.90625 7.289062 38.835938 6.902344 38.449219 C 6.492188 38.039062 6.445312 37.933594 6.445312 37.40625 C 6.445312 36.222656 7.488281 35.554688 8.589844 36.023438 Z M 8.589844 36.023438 "/>
<path style=" stroke:none;fill-rule:nonzero;fill:rgb(0%,0%,0%);fill-opacity:1;" d="M 13.417969 34.699219 C 12.914062 34.839844 12.105469 35.566406 11.8125 36.140625 C 11.460938 36.796875 11.460938 37.957031 11.800781 38.613281 C 12.339844 39.644531 13.242188 40.195312 14.390625 40.195312 C 16.3125 40.195312 17.648438 38.390625 17.085938 36.539062 C 16.910156 35.941406 16.125 35.0625 15.527344 34.792969 C 15.023438 34.558594 14.027344 34.511719 13.417969 34.699219 Z M 15.105469 36.070312 C 15.539062 36.304688 15.9375 36.925781 15.9375 37.359375 C 15.9375 38.191406 15.210938 38.90625 14.355469 38.90625 C 13.03125 38.90625 12.363281 37.324219 13.265625 36.351562 C 13.769531 35.824219 14.449219 35.71875 15.105469 36.070312 Z M 15.105469 36.070312 "/>
<path style=" stroke:none;fill-rule:nonzero;fill:rgb(0%,0%,0%);fill-opacity:1;" d="M 19.734375 34.734375 C 18.667969 35.203125 18 36.222656 18 37.382812 C 18 39.011719 19.195312 40.195312 20.824219 40.195312 C 22.453125 40.183594 23.625 39.011719 23.613281 37.382812 C 23.601562 36.210938 22.933594 35.191406 21.890625 34.757812 C 21.363281 34.535156 20.226562 34.523438 19.734375 34.734375 Z M 21.527344 36.058594 C 21.808594 36.1875 22.019531 36.410156 22.160156 36.726562 C 22.429688 37.324219 22.429688 37.535156 22.183594 38.050781 C 21.539062 39.421875 19.441406 39.058594 19.324219 37.558594 C 19.277344 37.042969 19.347656 36.796875 19.652344 36.445312 C 20.15625 35.835938 20.789062 35.707031 21.527344 36.058594 Z M 21.527344 36.058594 "/>
<path style=" stroke:none;fill-rule:nonzero;fill:rgb(0%,0%,0%);fill-opacity:1;" d="M 26.132812 34.757812 C 25.101562 35.203125 24.445312 36.234375 24.445312 37.382812 C 24.445312 39.023438 25.605469 40.195312 27.246094 40.195312 C 28.875 40.195312 30.046875 39.023438 30.046875 37.382812 C 30.046875 36.210938 29.378906 35.191406 28.335938 34.757812 C 27.785156 34.523438 26.671875 34.523438 26.132812 34.757812 Z M 27.960938 36.046875 C 28.335938 36.222656 28.828125 36.996094 28.828125 37.394531 C 28.816406 37.78125 28.359375 38.554688 28.019531 38.71875 C 26.660156 39.421875 25.242188 38.097656 25.898438 36.75 C 26.285156 35.929688 27.117188 35.648438 27.960938 36.046875 Z M 27.960938 36.046875 "/>
<path style=" stroke:none;fill-rule:nonzero;fill:rgb(0%,0%,0%);fill-opacity:1;" d="M 6.714844 42.433594 C 6.023438 42.773438 5.4375 43.464844 5.226562 44.191406 C 4.992188 44.953125 4.992188 45.046875 5.226562 45.808594 C 5.730469 47.496094 7.628906 48.304688 9.234375 47.507812 C 10.289062 46.980469 10.875 45.902344 10.746094 44.695312 C 10.640625 43.675781 10.03125 42.832031 9.082031 42.410156 C 8.425781 42.105469 7.347656 42.117188 6.714844 42.433594 Z M 8.742188 43.699219 C 9.117188 43.933594 9.492188 44.566406 9.492188 44.988281 C 9.492188 45.445312 9.164062 46.042969 8.765625 46.289062 C 8.15625 46.675781 7.335938 46.558594 6.832031 46.007812 C 6.503906 45.65625 6.445312 45.503906 6.445312 45.011719 C 6.445312 44.097656 7.042969 43.5 7.96875 43.488281 C 8.191406 43.476562 8.542969 43.582031 8.742188 43.699219 Z M 8.742188 43.699219 "/>
<path style=" stroke:none;fill-rule:nonzero;fill:rgb(0%,0%,0%);fill-opacity:1;" d="M 13.289062 42.351562 C 12.222656 42.820312 11.554688 43.839844 11.554688 45 C 11.554688 46.628906 12.75 47.8125 14.378906 47.8125 C 16.875 47.800781 18.152344 44.847656 16.429688 43.066406 C 16.195312 42.820312 15.785156 42.527344 15.527344 42.410156 C 14.964844 42.152344 13.816406 42.128906 13.289062 42.351562 Z M 15.1875 43.699219 C 15.5625 43.933594 15.9375 44.566406 15.9375 45 C 15.9375 45.433594 15.5625 46.066406 15.1875 46.300781 C 14.988281 46.417969 14.613281 46.523438 14.355469 46.523438 C 13.03125 46.523438 12.363281 44.941406 13.265625 43.96875 C 13.769531 43.441406 14.566406 43.324219 15.1875 43.699219 Z M 15.1875 43.699219 "/>
<path style=" stroke:none;fill-rule:nonzero;fill:rgb(0%,0%,0%);fill-opacity:1;" d="M 19.6875 42.375 C 18.65625 42.820312 18 43.851562 18 45 C 18 46.628906 19.195312 47.8125 20.824219 47.8125 C 23.273438 47.800781 24.539062 45 22.933594 43.171875 C 22.664062 42.867188 22.242188 42.527344 21.972656 42.410156 C 21.398438 42.140625 20.261719 42.128906 19.6875 42.375 Z M 21.503906 43.664062 C 22.042969 43.910156 22.3125 44.367188 22.3125 45 C 22.3125 45.902344 21.691406 46.523438 20.800781 46.523438 C 19.96875 46.523438 19.300781 45.84375 19.300781 45 C 19.300781 43.851562 20.449219 43.160156 21.503906 43.664062 Z M 21.503906 43.664062 "/>
<path style=" stroke:none;fill-rule:nonzero;fill:rgb(0%,0%,0%);fill-opacity:1;" d="M 26.132812 42.375 C 25.101562 42.820312 24.445312 43.851562 24.445312 45 C 24.445312 46.617188 25.640625 47.8125 27.246094 47.8125 C 28.851562 47.8125 30.046875 46.617188 30.046875 45 C 30.046875 43.828125 29.378906 42.808594 28.335938 42.375 C 27.785156 42.140625 26.671875 42.140625 26.132812 42.375 Z M 27.960938 43.664062 C 28.207031 43.78125 28.429688 44.027344 28.59375 44.34375 C 28.875 44.941406 28.875 44.988281 28.640625 45.585938 C 28.125 46.863281 26.332031 46.828125 25.839844 45.527344 C 25.675781 45.117188 25.664062 44.941406 25.769531 44.625 C 26.121094 43.617188 27.023438 43.21875 27.960938 43.664062 Z M 27.960938 43.664062 "/>
<path style=" stroke:none;fill-rule:nonzero;fill:rgb(0%,0%,0%);fill-opacity:1;" d="M 6.714844 50.050781 C 6.023438 50.390625 5.4375 51.082031 5.226562 51.808594 C 4.992188 52.570312 4.992188 52.664062 5.226562 53.425781 C 5.824219 55.464844 8.425781 56.121094 9.9375 54.609375 C 10.453125 54.09375 10.675781 53.648438 10.746094 52.921875 C 10.921875 51.199219 9.65625 49.804688 7.921875 49.804688 C 7.429688 49.804688 7.054688 49.886719 6.714844 50.050781 Z M 8.765625 51.328125 C 9.164062 51.574219 9.492188 52.160156 9.492188 52.628906 C 9.492188 53.039062 9.117188 53.683594 8.742188 53.929688 C 8.472656 54.09375 8.238281 54.140625 7.804688 54.105469 C 7.3125 54.058594 7.160156 53.988281 6.832031 53.625 C 6.503906 53.273438 6.445312 53.121094 6.445312 52.628906 C 6.445312 51.714844 7.042969 51.117188 7.96875 51.105469 C 8.191406 51.09375 8.554688 51.199219 8.765625 51.328125 Z M 8.765625 51.328125 "/>
<path style=" stroke:none;fill-rule:nonzero;fill:rgb(0%,0%,0%);fill-opacity:1;" d="M 13.242188 49.992188 C 12.210938 50.4375 11.554688 51.457031 11.554688 52.617188 C 11.554688 53.519531 11.835938 54.140625 12.492188 54.726562 C 13.089844 55.242188 13.582031 55.429688 14.378906 55.429688 C 15.210938 55.429688 15.867188 55.148438 16.441406 54.550781 C 17.777344 53.179688 17.308594 50.824219 15.539062 50.027344 C 14.953125 49.757812 13.816406 49.746094 13.242188 49.992188 Z M 15.1875 51.316406 C 15.5625 51.550781 15.9375 52.183594 15.9375 52.617188 C 15.9375 53.039062 15.574219 53.683594 15.1875 53.929688 C 14.917969 54.09375 14.683594 54.140625 14.261719 54.105469 C 12.972656 53.988281 12.398438 52.535156 13.265625 51.585938 C 13.769531 51.058594 14.566406 50.941406 15.1875 51.316406 Z M 15.1875 51.316406 "/>
<path style=" stroke:none;fill-rule:nonzero;fill:rgb(0%,0%,0%);fill-opacity:1;" d="M 19.6875 49.992188 C 18.65625 50.4375 18 51.46875 18 52.617188 C 18 54.246094 19.195312 55.429688 20.824219 55.429688 C 21.703125 55.417969 22.324219 55.136719 22.933594 54.445312 C 24.550781 52.605469 23.261719 49.804688 20.800781 49.816406 C 20.414062 49.816406 19.910156 49.898438 19.6875 49.992188 Z M 21.597656 51.316406 C 22.101562 51.644531 22.3125 52.019531 22.3125 52.617188 C 22.3125 53.789062 21.1875 54.480469 20.109375 53.964844 C 19.089844 53.484375 19.042969 51.902344 20.027344 51.292969 C 20.4375 51.035156 21.1875 51.046875 21.597656 51.316406 Z M 21.597656 51.316406 "/>
<path style=" stroke:none;fill-rule:nonzero;fill:rgb(0%,0%,0%);fill-opacity:1;" d="M 26.132812 49.992188 C 25.101562 50.4375 24.445312 51.46875 24.445312 52.617188 C 24.445312 54.234375 25.640625 55.429688 27.246094 55.429688 C 28.851562 55.429688 30.046875 54.234375 30.046875 52.617188 C 30.046875 51.445312 29.378906 50.425781 28.335938 49.992188 C 27.785156 49.757812 26.671875 49.757812 26.132812 49.992188 Z M 28.078125 51.328125 C 28.605469 51.667969 28.910156 52.441406 28.722656 53.003906 C 28.371094 54.058594 27.234375 54.445312 26.296875 53.835938 C 26.15625 53.730469 25.933594 53.414062 25.828125 53.132812 C 25.640625 52.652344 25.640625 52.582031 25.828125 52.101562 C 26.191406 51.164062 27.234375 50.8125 28.078125 51.328125 Z M 28.078125 51.328125 "/>
<path style=" stroke:none;fill-rule:nonzero;fill:rgb(0%,0%,0%);fill-opacity:1;" d="M 35.859375 32.226562 C 35.648438 32.4375 35.625 32.613281 35.625 33.902344 C 35.625 35.15625 35.648438 35.378906 35.835938 35.542969 C 36.105469 35.789062 36.492188 35.800781 36.726562 35.554688 C 36.878906 35.414062 36.914062 35.085938 36.914062 33.878906 C 36.914062 32.578125 36.890625 32.355469 36.703125 32.191406 C 36.410156 31.933594 36.140625 31.945312 35.859375 32.226562 Z M 35.859375 32.226562 "/>
<path style=" stroke:none;fill-rule:nonzero;fill:rgb(0%,0%,0%);fill-opacity:1;" d="M 38.671875 32.226562 C 38.460938 32.4375 38.4375 32.613281 38.4375 33.84375 C 38.4375 35.402344 38.566406 35.742188 39.128906 35.742188 C 39.679688 35.742188 39.726562 35.589844 39.726562 33.925781 C 39.726562 32.578125 39.703125 32.355469 39.515625 32.191406 C 39.222656 31.933594 38.953125 31.945312 38.671875 32.226562 Z M 38.671875 32.226562 "/>
<path style=" stroke:none;fill-rule:nonzero;fill:rgb(0%,0%,0%);fill-opacity:1;" d="M 41.484375 32.226562 C 41.273438 32.4375 41.25 32.613281 41.25 33.84375 C 41.25 35.460938 41.378906 35.777344 41.988281 35.71875 C 42.5625 35.660156 42.667969 35.332031 42.632812 33.714844 C 42.597656 32.496094 42.574219 32.308594 42.375 32.15625 C 42.058594 31.933594 41.765625 31.945312 41.484375 32.226562 Z M 41.484375 32.226562 "/>
<path style=" stroke:none;fill-rule:nonzero;fill:rgb(0%,0%,0%);fill-opacity:1;" d="M 44.367188 32.167969 C 44.109375 32.425781 44.027344 33.023438 44.085938 34.265625 C 44.132812 35.484375 44.261719 35.742188 44.777344 35.742188 C 45.339844 35.742188 45.46875 35.402344 45.46875 33.84375 C 45.46875 32.613281 45.445312 32.4375 45.234375 32.226562 C 44.953125 31.945312 44.613281 31.921875 44.367188 32.167969 Z M 44.367188 32.167969 "/>
<path style=" stroke:none;fill-rule:nonzero;fill:rgb(0%,0%,0%);fill-opacity:1;" d="M 47.636719 37.40625 C 47.0625 37.851562 46.992188 38.226562 46.992188 40.617188 C 46.992188 44.0625 46.992188 44.0625 50.507812 44.0625 C 54.046875 44.0625 54.023438 44.085938 54.023438 40.546875 C 54.023438 38.121094 53.964844 37.875 53.367188 37.394531 C 53.074219 37.160156 52.910156 37.148438 50.507812 37.148438 C 48.070312 37.148438 47.941406 37.160156 47.636719 37.40625 Z M 52.675781 40.605469 L 52.675781 42.714844 L 48.339844 42.714844 L 48.304688 40.722656 C 48.292969 39.632812 48.304688 38.671875 48.339844 38.589844 C 48.375 38.460938 48.855469 38.4375 50.53125 38.460938 L 52.675781 38.496094 Z M 52.675781 40.605469 "/>
</g>
</svg>
