<?xml version="1.0" encoding="UTF-8"?>
<svg xmlns="http://www.w3.org/2000/svg" xmlns:xlink="http://www.w3.org/1999/xlink" width="60px" height="60px" viewBox="0 0 60 60" version="1.1">
<g id="surface1">
<path style=" stroke:none;fill-rule:nonzero;fill:rgb(0%,0%,0%);fill-opacity:1;" d="M 2.601562 0.222656 C 1.429688 0.621094 0.480469 1.6875 0.246094 2.847656 C 0.152344 3.28125 0.117188 11.378906 0.140625 30.351562 L 0.175781 57.246094 L 0.421875 57.785156 C 0.785156 58.570312 1.441406 59.238281 2.203125 59.613281 L 2.871094 59.941406 L 9.855469 59.976562 C 16.792969 60.011719 16.839844 60 17.144531 59.765625 C 17.578125 59.425781 17.578125 58.828125 17.15625 58.488281 C 16.851562 58.242188 16.746094 58.242188 10.148438 58.242188 L 3.445312 58.242188 L 2.929688 57.972656 C 2.542969 57.785156 2.332031 57.574219 2.132812 57.1875 L 1.875 56.671875 L 1.875 3.328125 L 2.144531 2.8125 C 2.308594 2.460938 2.566406 2.191406 2.871094 2.027344 L 3.339844 1.757812 L 34.804688 1.757812 L 34.804688 5.601562 C 34.804688 9.9375 34.851562 10.265625 35.589844 11.121094 C 35.824219 11.402344 36.292969 11.753906 36.609375 11.90625 C 37.195312 12.1875 37.253906 12.1875 41.203125 12.1875 C 44.742188 12.1875 45.222656 12.210938 45.28125 12.375 C 45.316406 12.480469 45.351562 13.78125 45.351562 15.28125 C 45.351562 17.871094 45.363281 18.023438 45.585938 18.222656 C 45.914062 18.515625 46.476562 18.492188 46.792969 18.175781 C 47.050781 17.929688 47.050781 17.859375 47.050781 14.90625 C 47.050781 12.269531 47.027344 11.8125 46.828125 11.25 C 46.628906 10.652344 46.277344 10.265625 41.625 5.601562 C 37.570312 1.523438 36.527344 0.550781 36.046875 0.328125 L 35.449219 0.0585938 L 19.335938 0.0351562 C 3.972656 0.0117188 3.199219 0.0117188 2.601562 0.222656 Z M 40.710938 10.40625 C 37.898438 10.429688 37.429688 10.40625 37.183594 10.242188 C 36.621094 9.878906 36.5625 9.515625 36.5625 6.128906 L 36.5625 2.988281 L 43.945312 10.371094 Z M 40.710938 10.40625 "/>
<path style=" stroke:none;fill-rule:nonzero;fill:rgb(0%,0%,0%);fill-opacity:1;" d="M 6.9375 8.941406 C 6.421875 9.480469 6.738281 10.230469 7.523438 10.371094 C 7.734375 10.40625 12.878906 10.417969 18.9375 10.40625 C 29.601562 10.371094 29.988281 10.359375 30.222656 10.148438 C 30.539062 9.855469 30.5625 9.140625 30.257812 8.871094 C 30.058594 8.683594 29.085938 8.671875 18.609375 8.671875 L 7.183594 8.671875 Z M 6.9375 8.941406 "/>
<path style=" stroke:none;fill-rule:nonzero;fill:rgb(0%,0%,0%);fill-opacity:1;" d="M 6.972656 14.941406 C 6.808594 15.09375 6.679688 15.363281 6.679688 15.527344 C 6.679688 15.691406 6.808594 15.960938 6.972656 16.113281 L 7.253906 16.40625 L 18.632812 16.40625 C 29.847656 16.40625 30 16.40625 30.234375 16.171875 C 30.585938 15.820312 30.550781 15.199219 30.164062 14.894531 C 29.847656 14.648438 29.800781 14.648438 18.550781 14.648438 L 7.253906 14.648438 Z M 6.972656 14.941406 "/>
<path style=" stroke:none;fill-rule:nonzero;fill:rgb(0%,0%,0%);fill-opacity:1;" d="M 37.03125 19.042969 C 31.347656 19.933594 26.777344 24.269531 25.558594 29.941406 L 25.347656 30.878906 L 23.25 30.9375 C 21.257812 30.996094 21.128906 31.007812 20.554688 31.3125 C 19.769531 31.722656 18.9375 32.660156 18.667969 33.433594 C 18.46875 34.007812 18.457031 34.722656 18.457031 45.527344 L 18.457031 57.011719 L 18.726562 57.585938 C 19.160156 58.523438 19.722656 59.132812 20.601562 59.554688 L 21.386719 59.941406 L 57.011719 59.941406 L 57.679688 59.613281 C 58.476562 59.226562 59.097656 58.558594 59.519531 57.667969 L 59.824219 57.011719 L 59.824219 33.808594 L 59.566406 33.257812 C 59.226562 32.519531 58.441406 31.6875 57.714844 31.3125 C 57.164062 31.007812 57.023438 30.996094 55.03125 30.9375 L 52.921875 30.878906 L 52.769531 30.070312 C 52.453125 28.347656 51.773438 26.707031 50.683594 25.078125 C 47.695312 20.578125 42.339844 18.210938 37.03125 19.042969 Z M 42.128906 21.023438 C 44.214844 21.5625 45.9375 22.523438 47.542969 24.058594 C 50.25 26.648438 51.621094 30.351562 51.222656 33.949219 C 51.082031 35.214844 50.707031 36.691406 50.285156 37.617188 C 50.039062 38.179688 50.203125 38.050781 43.804688 42.574219 L 42.65625 43.382812 L 42.082031 42.902344 C 41.460938 42.375 40.40625 41.835938 39.996094 41.835938 C 39.679688 41.835938 39.679688 41.835938 39.902344 41.414062 C 39.996094 41.226562 40.078125 40.828125 40.078125 40.511719 C 40.078125 40.089844 40.125 39.960938 40.265625 39.960938 C 40.605469 39.960938 41.835938 39.234375 42.210938 38.800781 C 42.410156 38.578125 42.738281 38.050781 42.925781 37.628906 C 43.394531 36.632812 43.429688 35.425781 43.019531 34.476562 C 42.644531 33.65625 41.695312 32.789062 40.78125 32.449219 L 40.078125 32.191406 L 40.078125 30.28125 C 40.078125 28.816406 40.113281 28.359375 40.230469 28.359375 C 40.300781 28.359375 40.582031 28.488281 40.839844 28.652344 C 41.71875 29.191406 42.46875 28.898438 42.398438 28.03125 C 42.375 27.691406 42.269531 27.539062 41.859375 27.222656 C 41.578125 27.011719 41.074219 26.753906 40.734375 26.660156 L 40.101562 26.472656 L 40.054688 25.875 C 39.984375 25.195312 39.679688 24.84375 39.152344 24.84375 C 38.601562 24.84375 38.390625 25.101562 38.320312 25.851562 L 38.261719 26.519531 L 37.734375 26.695312 C 36.972656 26.953125 35.964844 27.996094 35.707031 28.816406 C 35.425781 29.707031 35.449219 30.632812 35.789062 31.359375 C 36.09375 32.027344 36.632812 32.507812 37.640625 33.046875 L 38.320312 33.410156 L 38.320312 38.320312 L 38.050781 38.320312 C 37.898438 38.320312 37.40625 38.132812 36.949219 37.910156 C 35.953125 37.417969 35.824219 37.40625 35.449219 37.792969 C 35.027344 38.203125 35.0625 38.683594 35.542969 39.09375 C 36.023438 39.503906 36.984375 39.925781 37.699219 40.042969 L 38.261719 40.136719 L 38.320312 40.792969 C 38.355469 41.15625 38.449219 41.53125 38.542969 41.636719 C 38.683594 41.8125 38.660156 41.835938 38.367188 41.835938 C 37.886719 41.847656 37.078125 42.234375 36.304688 42.84375 L 35.625 43.371094 L 31.96875 40.78125 L 28.300781 38.191406 L 27.984375 37.5 C 26.964844 35.308594 26.753906 31.96875 27.480469 29.472656 C 28.816406 24.855469 32.648438 21.503906 37.453125 20.742188 C 38.625 20.554688 40.804688 20.695312 42.128906 21.023438 Z M 38.320312 29.882812 C 38.320312 31.453125 38.261719 31.546875 37.628906 30.949219 C 37.324219 30.667969 37.265625 30.527344 37.265625 30.058594 C 37.265625 29.472656 37.382812 29.15625 37.769531 28.734375 C 38.25 28.21875 38.320312 28.371094 38.320312 29.882812 Z M 25.324219 33.808594 C 25.359375 34.382812 25.464844 35.167969 25.535156 35.542969 C 25.617188 35.917969 25.664062 36.246094 25.640625 36.257812 C 25.558594 36.328125 21.117188 33.09375 21.175781 33.011719 C 21.316406 32.777344 21.855469 32.707031 23.496094 32.730469 L 25.253906 32.753906 Z M 56.894531 32.835938 C 57.058594 32.90625 57.175781 33.011719 57.164062 33.058594 C 57.128906 33.164062 52.6875 36.316406 52.652344 36.28125 C 52.628906 36.269531 52.6875 35.859375 52.78125 35.378906 C 52.875 34.898438 52.980469 34.101562 53.027344 33.597656 L 53.109375 32.695312 L 54.84375 32.695312 C 55.933594 32.695312 56.707031 32.742188 56.894531 32.835938 Z M 40.664062 34.371094 C 41.484375 34.910156 41.789062 36.117188 41.332031 36.984375 C 41.167969 37.300781 40.289062 38.203125 40.136719 38.203125 C 40.101562 38.203125 40.078125 37.277344 40.078125 36.152344 C 40.078125 35.027344 40.125 34.101562 40.183594 34.101562 C 40.230469 34.101562 40.453125 34.21875 40.664062 34.371094 Z M 27.246094 39.585938 C 31.054688 42.28125 34.160156 44.542969 34.160156 44.613281 C 34.160156 44.683594 31.078125 47.484375 27.316406 50.847656 C 22.476562 55.160156 20.425781 56.917969 20.34375 56.835938 C 20.191406 56.683594 20.097656 34.6875 20.238281 34.6875 C 20.296875 34.6875 23.449219 36.902344 27.246094 39.585938 Z M 58.125 45.457031 C 58.125 51.375 58.089844 56.390625 58.054688 56.589844 C 58.007812 56.800781 57.925781 56.941406 57.878906 56.929688 C 57.65625 56.859375 44.085938 44.695312 44.109375 44.601562 C 44.132812 44.484375 57.890625 34.710938 58.042969 34.699219 C 58.089844 34.6875 58.125 39.527344 58.125 45.457031 Z M 40.195312 43.734375 C 40.558594 43.898438 56.367188 57.890625 56.460938 58.148438 C 56.484375 58.195312 48.691406 58.242188 39.140625 58.242188 C 28.957031 58.242188 21.808594 58.195312 21.84375 58.136719 C 21.925781 58.019531 22.816406 57.210938 30.9375 49.96875 C 38.25 43.453125 37.886719 43.757812 38.414062 43.605469 C 38.953125 43.453125 39.667969 43.511719 40.195312 43.734375 Z M 40.195312 43.734375 "/>
<path style=" stroke:none;fill-rule:nonzero;fill:rgb(0%,0%,0%);fill-opacity:1;" d="M 6.925781 21.046875 C 6.785156 21.222656 6.679688 21.480469 6.679688 21.632812 C 6.679688 21.960938 7.03125 22.347656 7.40625 22.441406 C 7.558594 22.476562 10.230469 22.488281 13.335938 22.476562 L 19.007812 22.441406 L 19.230469 22.160156 C 19.523438 21.808594 19.511719 21.269531 19.21875 20.976562 C 18.996094 20.753906 18.832031 20.742188 13.078125 20.742188 L 7.160156 20.742188 Z M 6.925781 21.046875 "/>
</g>
</svg>
