<?xml version="1.0" encoding="utf-8"?>
<!-- Generator: Adobe Illustrator 27.7.0, SVG Export Plug-In . SVG Version: 6.00 Build 0)  -->
<svg version="1.1" xmlns="http://www.w3.org/2000/svg" xmlns:xlink="http://www.w3.org/1999/xlink" x="0px" y="0px"
	 viewBox="0 0 750 500" style="enable-background:new 0 0 750 500;" xml:space="preserve">
<style type="text/css">
	
		.st0{opacity:0.8;fill:#ECD1AE;stroke:#ECD1AE;stroke-linecap:round;stroke-linejoin:round;stroke-miterlimit:10;enable-background:new    ;}
	.st1{fill:#D58129;}
	.st2{fill:none;stroke:#291D10;stroke-linecap:round;stroke-linejoin:round;stroke-miterlimit:10;}
	.st3{fill:#291D10;stroke:#291D10;stroke-linecap:round;stroke-linejoin:round;stroke-miterlimit:10;}
	.st4{fill:#FFFFFF;stroke:#291D10;stroke-linecap:round;stroke-linejoin:round;stroke-miterlimit:10;}
	.st5{fill:#BEAD99;stroke:#291D10;stroke-linecap:round;stroke-linejoin:round;stroke-miterlimit:10;}
	.st6{fill:#D58129;stroke:#291D10;stroke-linecap:round;stroke-linejoin:round;stroke-miterlimit:10;}
	.st7{fill:#291D10;}
	.st8{fill:none;stroke:#BCA48E;stroke-linecap:round;stroke-linejoin:round;stroke-miterlimit:10;}
</style>
<g id="Background_Simple">
	<path class="st0" d="M525.88,95.52C418.33,139.81,319.8,31.89,211.94,52.17c-53.87,10.13-100.19,47.51-129.96,92.43
		C50.11,192.69,34.07,255.43,55,311.08c5.83,15.49,14.48,29.81,25.19,42.41c60.98,71.76,190.62,111.05,279.4,74.56
		c0.41-0.17,0.82-0.34,1.23-0.51c98.44-41.63,170.32,9.7,255.41-14.45c96-27.24,118.92-160.91,84.53-241.98
		c-9.57-22.55-26.12-42.53-45.51-57.32C618.19,85.5,569.28,77.64,525.88,95.52z"/>
</g>
<g id="Floor">
	<ellipse class="st1" cx="375.62" cy="469.88" rx="269.95" ry="9.36"/>
</g>
<g id="Puzzle">
	<g>
		<path class="st2" d="M650.83,279.04c-15.67,5.81-30.59-4.87-36.14-10.44c-0.22-0.2-0.42-0.41-0.62-0.61
			c11.75,66.29,30.52,145.88,30.52,145.88s-77.78-14.1-112.46-23.28c0.16,1.18,0.52,2.49,1.14,3.98
			c5.73,13.44,16.13,31.94-6.17,50.53c-22.3,18.59-58.64,5.33-66.7-19.33c-5.19-15.88,6.07-30.37,11.84-35.7
			c4.44-4.09,9.31-9.96,6.38-14.55c-35.52-8.62-52.08-8.31-95.92-4.81c3.2-8.33,8.83-22.62,15.85-38.84
			c11.11-25.72,12.51-51.43,3.47-70.2c-9.04-18.76-17.38,19.46-45.88,11.81c-28.49-7.64-32.66-50.04-21.54-68.11
			c11.11-18.07,29.19-15.98,45.87-6.95c16.68,9.04,19.46,2.78,19.46,2.78s0-13.9-5.57-52.82c-3.64-25.53-10.27-47.47-14.41-59.55
			c4.03,0.54,22.95,1.87,26.73,2.17c99.36,7.84,210.07,3.75,210.07,3.75s-16.9,50.73-11.54,110.78c1.91,2.91,5.35,4.87,11.55,1.93
			c13.2-6.25,31.27-17.38,50.74,4.17C686.97,233.16,675.15,270,650.83,279.04z"/>
		<path class="st2" d="M398.55,331.86c-7.02,16.22-12.65,30.51-15.85,38.84c-21.67,1.73-43.88,5.86-66.17,13.28
			c-87.57,29.19-186.96,4.87-186.96,4.87s20.13-50.6,24.36-126.42c-3.34-2.38-7.06,2.08-11.16,6.18
			c-5.57,5.57-20.48,16.25-36.14,10.44C82.31,270,70.5,233.16,89.96,211.61c19.45-21.55,37.53-10.42,50.74-4.17
			c8.62,4.08,11.91-1.31,13.15-5.55c-3.62-78.4-15.94-100.09-15.94-100.09s42.79-6.87,96.12-11.65c4.19-1.43,9.6-4.96,5.03-13.47
			c-6.9-12.87-18.9-30.37,1.65-50.89c20.55-20.5,57.92-10.53,68.16,13.32c6.59,15.36-3.34,30.79-8.62,36.61
			c-3.5,3.88-7.33,7.46-6.18,10.49c30.63-1.15,60.96-0.75,85.89,2.6c4.14,12.08,10.77,34.01,14.41,59.55
			c5.57,38.92,5.57,52.82,5.57,52.82s-2.78,6.25-19.46-2.78c-16.68-9.03-34.75-11.11-45.87,6.95
			c-11.12,18.08-6.95,60.47,21.54,68.11c28.5,7.65,36.84-30.57,45.88-11.81C411.06,280.43,409.67,306.14,398.55,331.86z"/>
	</g>
</g>
<g id="Plants">
	<g>
		<g>
			<g>
				<path class="st3" d="M102.23,464.44c0.19,0.05,0.39-0.07,0.45-0.26c5.02-16.1,1.21-33.96-9.95-46.6
					c-0.14-0.16-0.38-0.17-0.54-0.03c-0.16,0.14-0.17,0.38-0.03,0.54c10.98,12.44,14.73,30.02,9.79,45.87
					c-0.06,0.2,0.05,0.42,0.25,0.48C102.21,464.43,102.22,464.44,102.23,464.44z"/>
			</g>
			<g>
				<g>
					<path class="st3" d="M97.68,448.59c4.69-0.35,6.49,7.04,6.32,7.13c-0.07,0.8-0.17,1.61-0.28,2.42c-0.22-1.06-2.13-2.92-5.4-4.3
						C95.13,452.35,93.2,448.75,97.68,448.59z"/>
				</g>
				<g>
					<path class="st3" d="M111.27,448.21c4.62-0.17,2.54,5.84-1.06,6.78c-3.49,1.04-5.84,2.24-6.42,3.15c0.17-0.8,0.32-1.6,0.45-2.4
						C104.4,455.83,106.91,448.54,111.27,448.21z"/>
				</g>
			</g>
			<g>
				<g>
					<path class="st3" d="M96.9,441.65c4.57-1.12,7.58,5.77,7.43,5.89c0.06,0.79,0.11,1.59,0.13,2.39c-0.4-0.99-2.6-2.48-6.05-3.27
						C95.02,445.76,92.51,442.57,96.9,441.65z"/>
				</g>
				<g>
					<path class="st3" d="M110.23,439c4.52-0.94,3.48,5.28,0.09,6.79c-3.27,1.6-5.37,3.16-5.79,4.13c0.03-0.8,0.04-1.6,0.03-2.4
						C104.73,447.59,105.98,440.06,110.23,439z"/>
				</g>
			</g>
			<g>
				<g>
					<path class="st3" d="M94.98,434.97c4.32-1.86,8.43,4.4,8.3,4.53c0.2,0.77,0.37,1.54,0.53,2.32c-0.56-0.9-2.97-1.99-6.51-2.18
						C93.8,439.33,90.8,436.61,94.98,434.97z"/>
				</g>
				<g>
					<path class="st3" d="M107.68,430.13c4.3-1.68,4.31,4.61,1.22,6.66c-2.96,2.11-4.77,4-5.02,5.02c-0.1-0.79-0.23-1.57-0.37-2.36
						C103.68,439.5,103.67,431.89,107.68,430.13z"/>
				</g>
			</g>
			<g>
				<g>
					<path class="st3" d="M91.96,428.7c3.95-2.56,9.05,2.95,8.94,3.09c0.32,0.72,0.62,1.45,0.91,2.19c-0.7-0.79-3.26-1.46-6.78-1.06
						C91.54,433.21,88.12,431.02,91.96,428.7z"/>
				</g>
				<g>
					<path class="st3" d="M103.67,421.8c3.96-2.38,5.03,3.85,2.32,6.38c-2.56,2.58-4.04,4.74-4.12,5.79
						c-0.23-0.76-0.48-1.51-0.76-2.26C101.31,431.72,100.02,424.21,103.67,421.8z"/>
				</g>
			</g>
			<g>
				<g>
					<path class="st3" d="M87.9,422.98c3.46-3.18,9.46,1.43,9.37,1.59c0.44,0.66,0.86,1.34,1.27,2.02c-0.83-0.66-3.46-0.9-6.87,0.08
						C88.27,427.52,84.51,425.91,87.9,422.98z"/>
				</g>
				<g>
					<path class="st3" d="M98.27,414.19c3.5-3.01,5.64,2.99,3.4,5.95c-2.09,2.98-3.18,5.36-3.08,6.41
						c-0.36-0.71-0.73-1.41-1.13-2.11C97.66,424.43,95.09,417.2,98.27,414.19z"/>
				</g>
			</g>
			<g>
				<path class="st3" d="M94.78,420.66c0.12,0.01-2.3-6.42-4.98-9.07c-2.56-2.68-5.17-1.39-5.55,0.18
					c-0.41,1.57,1.45,3.36,3.29,4.51C89.44,417.27,94.82,420.55,94.78,420.66z"/>
				<path class="st3" d="M94.72,420.91c0.01,0,0.02,0,0.03,0.01c0.11,0.01,0.21-0.05,0.26-0.15c0-0.01,0.01-0.01,0.01-0.02
					c0.02-0.07,0.04-0.12-0.01-0.2c-0.24-1.25-2.73-6.86-5.03-9.13c-1.26-1.32-2.74-1.87-4.07-1.52c-0.96,0.26-1.7,0.97-1.91,1.82
					c-0.55,2.13,2.46,4.2,3.4,4.79c1.86,0.96,6.76,3.95,7.17,4.31C94.61,420.85,94.66,420.89,94.72,420.91z M87.39,410.37
					c0.64,0.15,1.4,0.53,2.22,1.39c2.11,2.09,4.05,6.51,4.69,8.23c-0.45-0.3-1.17-0.73-2.28-1.41c-1.44-0.87-3.35-2-4.37-2.53
					c-1.76-1.1-3.53-2.79-3.16-4.22c0.16-0.67,0.77-1.24,1.55-1.45C86.35,410.3,86.82,410.24,87.39,410.37z"/>
			</g>
		</g>
		<g>
			<g>
				<path class="st3" d="M108.28,466.43c0.19,0.14,0.47,0.12,0.63-0.07c13.36-15.32,17.83-36.86,11.68-56.22
					c-0.08-0.24-0.34-0.38-0.58-0.3c-0.24,0.08-0.38,0.34-0.3,0.58c6.06,19.05,1.66,40.25-11.49,55.33
					c-0.17,0.19-0.15,0.49,0.04,0.65C108.27,466.42,108.27,466.42,108.28,466.43z"/>
			</g>
			<g>
				<g>
					<path class="st3" d="M110.97,446.74c5.34,1.9,3.74,10.91,3.5,10.93c-0.47,0.85-0.97,1.69-1.49,2.53
						c0.27-1.28-0.92-4.26-3.86-7.36C106.33,449.66,105.95,444.75,110.97,446.74z"/>
				</g>
				<g>
					<path class="st3" d="M126.13,452.94c5.17,2.05-0.04,7.68-4.47,6.96c-4.36-0.56-7.53-0.37-8.61,0.35
						c0.57-0.8,1.13-1.61,1.66-2.43C114.85,457.99,121.16,451.17,126.13,452.94z"/>
				</g>
			</g>
			<g>
				<g>
					<path class="st3" d="M113.48,438.72c5.58,0.98,5.55,10.05,5.33,10.1c-0.32,0.91-0.65,1.81-1.02,2.7
						c0.04-1.29-1.66-3.99-5.08-6.54C109.4,442.33,108.19,437.59,113.48,438.72z"/>
				</g>
				<g>
					<path class="st3" d="M129.47,442.27c5.44,1.16,1.27,7.51-3.2,7.53c-4.38,0.17-7.46,0.87-8.4,1.74c0.42-0.87,0.82-1.75,1.2-2.63
						C119.23,449.07,124.26,441.38,129.47,442.27z"/>
				</g>
			</g>
			<g>
				<g>
					<path class="st3" d="M114.61,430.42c5.66,0.04,7.15,8.95,6.95,9.03c-0.16,0.94-0.34,1.88-0.54,2.81
						c-0.18-1.27-2.31-3.64-6.11-5.56C111.19,434.65,109.2,430.2,114.61,430.42z"/>
				</g>
				<g>
					<path class="st3" d="M130.96,431.25c5.56,0.23,2.5,7.18-1.89,7.94c-4.29,0.89-7.2,2.09-7.98,3.09
						c0.27-0.92,0.51-1.84,0.74-2.78C122,439.63,125.68,431.24,130.96,431.25z"/>
				</g>
			</g>
			<g>
				<g>
					<path class="st3" d="M114.33,422.04c5.59-0.9,8.55,7.65,8.36,7.75c0,0.95-0.02,1.91-0.07,2.86c-0.39-1.21-2.88-3.19-6.96-4.46
						C111.67,426.8,108.97,422.72,114.33,422.04z"/>
				</g>
				<g>
					<path class="st3" d="M130.59,420.11c5.52-0.7,3.67,6.68-0.54,8.16c-4.08,1.6-6.75,3.26-7.35,4.38c0.11-0.95,0.2-1.9,0.26-2.86
						C123.16,429.91,125.39,421,130.59,420.11z"/>
				</g>
			</g>
			<g>
				<g>
					<path class="st3" d="M112.63,413.75c5.37-1.83,9.74,6.18,9.56,6.3c0.16,0.94,0.3,1.89,0.42,2.84
						c-0.59-1.13-3.38-2.68-7.61-3.25C110.83,418.94,107.46,415.34,112.63,413.75z"/>
				</g>
				<g>
					<path class="st3" d="M128.33,409.11c5.33-1.62,4.77,6.04,0.86,8.21c-3.75,2.27-6.11,4.37-6.51,5.57
						c-0.05-0.96-0.12-1.92-0.22-2.87C122.68,420.1,123.36,410.87,128.33,409.11z"/>
				</g>
			</g>
			<g>
				<path class="st3" d="M121.34,414.54c0.13,0.07,0.58-8.2-1.09-12.42c-1.52-4.19-5.02-4.05-6.21-2.5
					c-1.21,1.54-0.04,4.41,1.43,6.57C117.1,408.2,121.44,414.44,121.34,414.54z"/>
				<path class="st3" d="M121.16,414.78c0.01,0.01,0.02,0.02,0.03,0.02c0.11,0.06,0.26,0.05,0.36-0.04
					c0.01-0.01,0.01-0.01,0.02-0.02c0.06-0.06,0.1-0.11,0.08-0.23c0.34-1.49,0.32-8.89-1.11-12.51c-0.75-2.06-2.11-3.4-3.75-3.65
					c-1.18-0.18-2.35,0.24-2.99,1.08c-1.64,2.08,0.67,5.83,1.42,6.93c1.58,1.97,5.53,7.64,5.82,8.24
					C121.05,414.67,121.1,414.74,121.16,414.78z M118.19,399.61c0.63,0.47,1.29,1.27,1.77,2.61c1.32,3.33,1.3,9.15,1.18,11.35
					c-0.35-0.54-0.93-1.38-1.83-2.67c-1.17-1.67-2.72-3.83-3.59-4.91c-1.4-2.07-2.53-4.79-1.43-6.19c0.51-0.66,1.45-0.99,2.41-0.84
					C117.09,399.02,117.63,399.19,118.19,399.61z"/>
			</g>
		</g>
	</g>
	<g>
		<g>
			<g>
				<path class="st3" d="M663.65,467.56c-0.14,0.03-0.28-0.04-0.33-0.18c-3.77-11.49-1.23-24.33,6.63-33.51
					c0.1-0.12,0.27-0.13,0.39-0.03c0.12,0.1,0.13,0.27,0.03,0.39c-7.74,9.04-10.23,21.68-6.52,32.98c0.05,0.14-0.03,0.3-0.18,0.35
					C663.66,467.56,663.66,467.56,663.65,467.56z"/>
			</g>
			<g>
				<g>
					<path class="st3" d="M666.74,456.15c-3.37-0.2-4.58,5.11-4.45,5.18c0.06,0.58,0.14,1.15,0.23,1.73
						c0.15-0.76,1.49-2.12,3.82-3.14C668.61,458.82,669.95,456.22,666.74,456.15z"/>
				</g>
				<g>
					<path class="st3" d="M656.99,456.03c-3.31-0.07-1.76,4.22,0.83,4.85c2.52,0.71,4.21,1.54,4.64,2.19
						c-0.13-0.57-0.25-1.14-0.35-1.72C662.01,461.41,660.13,456.22,656.99,456.03z"/>
				</g>
			</g>
			<g>
				<g>
					<path class="st3" d="M667.22,451.17c-3.29-0.75-5.37,4.22-5.26,4.3c-0.04,0.57-0.06,1.14-0.07,1.72
						c0.28-0.71,1.83-1.81,4.3-2.41C668.62,454.09,670.38,451.78,667.22,451.17z"/>
				</g>
				<g>
					<path class="st3" d="M657.64,449.41c-3.25-0.63-2.43,3.82,0.01,4.87c2.36,1.11,3.89,2.2,4.2,2.9
						c-0.03-0.57-0.05-1.15-0.05-1.72C661.68,455.51,660.7,450.13,657.64,449.41z"/>
				</g>
			</g>
			<g>
				<g>
					<path class="st3" d="M668.53,446.36c-3.11-1.29-5.99,3.25-5.9,3.34c-0.13,0.55-0.25,1.11-0.35,1.67
						c0.39-0.65,2.11-1.46,4.64-1.63C669.42,449.47,671.54,447.49,668.53,446.36z"/>
				</g>
				<g>
					<path class="st3" d="M659.37,443.03c-3.1-1.16-3.04,3.35-0.8,4.79c2.14,1.48,3.46,2.81,3.66,3.54
						c0.07-0.57,0.15-1.13,0.24-1.69C662.34,449.7,662.27,444.25,659.37,443.03z"/>
				</g>
			</g>
			<g>
				<g>
					<path class="st3" d="M670.62,441.83c-2.86-1.79-6.46,2.21-6.38,2.31c-0.22,0.52-0.43,1.05-0.63,1.58
						c0.5-0.57,2.32-1.08,4.85-0.83C670.97,445.06,673.4,443.45,670.62,441.83z"/>
				</g>
				<g>
					<path class="st3" d="M662.15,437.01c-2.86-1.66-3.56,2.81-1.6,4.6c1.86,1.82,2.95,3.35,3.01,4.1c0.16-0.55,0.33-1.09,0.52-1.63
						C663.96,444.1,664.8,438.7,662.15,437.01z"/>
				</g>
			</g>
			<g>
				<g>
					<path class="st3" d="M673.47,437.68c-2.52-2.24-6.77,1.13-6.7,1.24c-0.31,0.48-0.6,0.97-0.89,1.46
						c0.59-0.49,2.47-0.68,4.92-0.02C673.26,440.95,675.94,439.75,673.47,437.68z"/>
				</g>
				<g>
					<path class="st3" d="M665.94,431.5c-2.54-2.12-4.01,2.2-2.37,4.3c1.53,2.11,2.34,3.81,2.28,4.56c0.25-0.51,0.51-1.02,0.79-1.52
						C666.49,438.83,668.26,433.62,665.94,431.5z"/>
				</g>
			</g>
			<g>
				<path class="st3" d="M668.51,436.1c-0.09,0.01,1.58-4.63,3.47-6.55c1.8-1.95,3.69-1.05,3.98,0.07c0.31,1.12-1,2.43-2.31,3.27
					C672.31,433.61,668.49,436.02,668.51,436.1z"/>
				<path class="st3" d="M668.56,436.27c-0.01,0-0.02,0-0.02,0c-0.08,0.01-0.15-0.03-0.19-0.1c0,0,0-0.01-0.01-0.02
					c-0.02-0.05-0.03-0.09,0.01-0.14c0.16-0.9,1.88-4.95,3.51-6.6c0.89-0.96,1.95-1.37,2.9-1.13c0.69,0.17,1.23,0.68,1.39,1.28
					c0.42,1.52-1.72,3.04-2.38,3.47c-1.32,0.71-4.8,2.91-5.1,3.17C668.64,436.24,668.6,436.26,668.56,436.27z M673.7,428.64
					c-0.46,0.11-1,0.4-1.58,1.02c-1.49,1.52-2.83,4.71-3.27,5.95c0.32-0.22,0.83-0.54,1.62-1.04c1.02-0.64,2.38-1.47,3.1-1.86
					c1.25-0.81,2.5-2.04,2.22-3.06c-0.12-0.48-0.56-0.88-1.12-1.02C674.44,428.58,674.11,428.54,673.7,428.64z"/>
			</g>
		</g>
		<g>
			<g>
				<path class="st3" d="M659.33,469.05c-0.14,0.11-0.33,0.09-0.45-0.04c-9.74-10.83-13.18-26.22-8.98-40.17
					c0.05-0.18,0.24-0.28,0.41-0.22c0.18,0.05,0.28,0.24,0.22,0.41c-4.14,13.72-0.75,28.87,8.84,39.53
					c0.12,0.14,0.11,0.35-0.02,0.47C659.35,469.04,659.34,469.05,659.33,469.05z"/>
			</g>
			<g>
				<g>
					<path class="st3" d="M657.19,454.97c-3.81,1.42-2.56,7.86-2.39,7.87c0.35,0.61,0.71,1.2,1.09,1.8
						c-0.21-0.91,0.62-3.06,2.69-5.32C660.55,457.01,660.77,453.48,657.19,454.97z"/>
				</g>
				<g>
					<path class="st3" d="M646.39,459.57c-3.69,1.53,0.11,5.5,3.28,4.94c3.12-0.45,5.39-0.34,6.18,0.16
						c-0.42-0.56-0.83-1.14-1.22-1.72C654.53,463.08,649.94,458.26,646.39,459.57z"/>
				</g>
			</g>
			<g>
				<g>
					<path class="st3" d="M655.31,449.24c-3.99,0.77-3.87,7.26-3.71,7.3c0.24,0.65,0.49,1.29,0.76,1.93
						c-0.04-0.92,1.14-2.88,3.57-4.74C658.27,451.79,659.09,448.38,655.31,449.24z"/>
				</g>
				<g>
					<path class="st3" d="M643.89,451.97c-3.89,0.89-0.83,5.4,2.38,5.37c3.14,0.07,5.36,0.54,6.04,1.16
						c-0.31-0.62-0.61-1.24-0.89-1.87C651.3,456.73,647.61,451.27,643.89,451.97z"/>
				</g>
			</g>
			<g>
				<g>
					<path class="st3" d="M654.41,443.31c-4.06,0.09-5.03,6.49-4.88,6.55c0.12,0.67,0.26,1.34,0.42,2.01
						c0.12-0.91,1.62-2.63,4.32-4.06C656.9,446.31,658.28,443.09,654.41,443.31z"/>
				</g>
				<g>
					<path class="st3" d="M642.7,444.08c-3.98,0.23-1.72,5.17,1.44,5.67c3.08,0.59,5.19,1.42,5.75,2.13
						c-0.2-0.66-0.39-1.32-0.56-1.98C649.21,450,646.48,444.02,642.7,444.08z"/>
				</g>
			</g>
			<g>
				<g>
					<path class="st3" d="M654.52,437.3c-4.02-0.58-6.05,5.58-5.91,5.65c0.01,0.68,0.04,1.37,0.08,2.05
						c0.27-0.87,2.03-2.32,4.94-3.27C656.48,440.68,658.37,437.73,654.52,437.3z"/>
				</g>
				<g>
					<path class="st3" d="M642.84,436.1c-3.96-0.44-2.56,4.83,0.48,5.84c2.94,1.1,4.88,2.26,5.32,3.06
						c-0.09-0.68-0.16-1.36-0.22-2.04C648.27,443.04,646.58,436.68,642.84,436.1z"/>
				</g>
			</g>
			<g>
				<g>
					<path class="st3" d="M655.65,431.34c-3.87-1.25-6.91,4.53-6.78,4.62c-0.11,0.68-0.19,1.36-0.27,2.04
						c0.41-0.82,2.39-1.96,5.42-2.41C656.99,435.04,659.37,432.42,655.65,431.34z"/>
				</g>
				<g>
					<path class="st3" d="M644.34,428.19c-3.84-1.1-3.35,4.38-0.53,5.89c2.71,1.59,4.43,3.06,4.73,3.92
						c0.02-0.69,0.07-1.37,0.13-2.06C648.51,436,647.92,429.4,644.34,428.19z"/>
				</g>
			</g>
			<g>
				<path class="st3" d="M649.41,432c-0.09,0.05-0.51-5.87,0.65-8.92c1.04-3.02,3.56-2.95,4.42-1.86c0.89,1.09,0.07,3.16-0.95,4.73
					C652.38,427.41,649.34,431.93,649.41,432z"/>
				<path class="st3" d="M649.54,432.17c-0.01,0.01-0.02,0.01-0.02,0.02c-0.08,0.05-0.19,0.04-0.26-0.02c0,0-0.01-0.01-0.01-0.02
					c-0.04-0.04-0.08-0.08-0.06-0.16c-0.26-1.07-0.33-6.37,0.66-8.98c0.51-1.49,1.48-2.46,2.65-2.66c0.84-0.14,1.69,0.15,2.15,0.74
					c1.2,1.47-0.42,4.19-0.94,4.98c-1.11,1.43-3.88,5.54-4.08,5.97C649.62,432.09,649.59,432.14,649.54,432.17z M651.5,421.26
					c-0.45,0.35-0.91,0.92-1.24,1.89c-0.91,2.4-0.83,6.57-0.72,8.15c0.25-0.39,0.65-1,1.28-1.93c0.82-1.21,1.91-2.77,2.52-3.56
					c0.98-1.5,1.76-3.46,0.96-4.45c-0.37-0.47-1.05-0.7-1.73-0.58C652.29,420.83,651.9,420.96,651.5,421.26z"/>
			</g>
		</g>
	</g>
</g>
<g id="Characters">
	<g>
		<polygon class="st4" points="382.68,230.36 377.95,230.04 377.47,243.44 382.68,243.12 		"/>
		<polygon class="st3" points="414.51,228.31 382.68,230.36 382.73,246.14 416.12,252.55 		"/>
		<path class="st4" d="M377.95,230.04c0,0-13.08-5.52-14.81-5.52c-1.73,0-6.93,6.93-8.35,9.3c-1.42,2.36-0.47,3.78,0.79,5.2
			s5.83,3.31,8.98,2.99c3.15-0.32,13.08-1.42,13.08-1.42L377.95,230.04z"/>
		<g>
			<g>
				<path class="st5" d="M259.96,451.1c0,0-3.17-0.2-3.37,0.79c-0.2,0.99,0.79,10.91,1.78,11.7c0.99,0.79,2.97,1.39,7.73,1.59
					s11.5-0.79,11.5-0.79l-0.79-11.3L259.96,451.1z"/>
				<path class="st4" d="M256.26,351.66c0,0,0,16.31-2.2,25.56c-2.2,9.26,1.45,28.88,4.1,39.9c2.64,11.02,2.2,20.28,2.2,20.28
					s-4.85,6.61-3.97,9.7c0.88,3.09,1.62,4.31,5.15,5.19c3.53,0.88,3.97-0.79,8.95,2.74c6.19,4.39,14.1,6.17,16.31,3.53
					c2.2-2.64-0.88-3.97-2.64-5.29c-1.76-1.32-5.73-7.49-8.82-11.9c-3.09-4.41-1.32-19.83-1.32-33.06s6.48-51.8,6.48-51.8
					L256.26,351.66z"/>
				<path class="st4" d="M273.45,354.75c0,0-5.29,22.48-3.53,32.62c1.76,10.14,2.77,38.13,2.33,49.59
					c-0.22,5.73-2.65,9.3-3.39,11.65c-0.94,2.98-0.33,6.29,1.85,8.52c1.16,1.18,2.6,2.09,4.31,2.09c4.85,0,5.61-0.23,12.22,2.85
					s13.66,3.09,17.19,1.32c3.53-1.76,2.2-3.09-1.76-4.85c-3.97-1.76-7.07-7.13-13.12-11.53c-3.35-2.43-3.35-12.48-3.35-12.48
					s7.97-56.44,9.73-67.02c1.76-10.58,1.32-18.51,1.32-18.51L273.45,354.75z"/>
				<path class="st5" d="M268.49,453.48l0.4,12.3c0,0,0.4,0.6,7.93,0.99c7.54,0.4,6.74-0.4,17.06,1.39
					c10.31,1.78,13.09-2.18,13.29-2.78s-0.2-3.77-0.2-3.77s-3.97,2.18-13.09,0.99c-9.12-1.19-12.3-3.37-16.26-5.95
					C273.64,454.07,268.49,453.48,268.49,453.48z"/>
				<path class="st6" d="M289.55,447.02l-3.21,13.4c0,0,4.16,2.18,7.54,2.18l3.37-8.33C297.24,454.27,294.15,448.9,289.55,447.02z"
					/>
			</g>
			<path class="st4" d="M313.57,219.19c0,0-0.17-1.88,1.03-4.11c1.2-2.22,0.17-4.28-1.71-2.74c-1.88,1.54-2.74,4.79-2.74,4.79
				L313.57,219.19z"/>
			
				<rect x="274.21" y="190.27" transform="matrix(0.992 0.1266 -0.1266 0.992 30.5693 -35.1879)" class="st4" width="35.94" height="65.38"/>
			<g>
				<path class="st6" d="M256.78,238.15c0,0-8.83,15.34-14.64,33.47c-5.81,18.13-4.18,84.61-3.95,85.31
					c0.23,0.7,4.42,3.02,13.25,3.02c8.83,0,15.11-0.46,15.11-0.46s5.81,3.02,12.09,2.79c6.28-0.23,13.25-3.02,13.25-3.02
					s0.93,0.93,5.35,0c4.42-0.93,8.37-3.02,8.37-3.02l4.18-2.32c0,0-3.25-30.45-6.04-41.38s-4.88-58.81-5.35-60.9
					c-0.46-2.09,0.46,4.18-0.46-2.09c-0.93-6.28-2.92-11.2-2.92-11.2L256.78,238.15z"/>
				<path class="st2" d="M252.19,300.82c0.57,1.26,1.17,2.47,1.81,3.58"/>
				<path class="st2" d="M245.63,278.13c0,0,1.84,10.88,5.52,20.2"/>
				<path class="st2" d="M248.89,300.68c0,0,2.56,4.65,6.28,10.69"/>
				<line class="st2" x1="267.02" y1="348.7" x2="267.02" y2="328.11"/>
				<line class="st2" x1="267.02" y1="357.63" x2="267.02" y2="353.59"/>
				<path class="st2" d="M274.22,255.11c-0.21,1.76-0.38,3.44-0.46,4.9"/>
				<path class="st2" d="M277.01,237.92c0,0-1.4,7.1-2.38,14.05"/>
				<line class="st2" x1="266.79" y1="238.62" x2="263.76" y2="250.47"/>
				<path class="st2" d="M303.28,321.14c0,0,1.63,21.15,0.93,27.89"/>
			</g>
			<path class="st3" d="M280.42,164.81c0,0,10.28,6.17,10.28,13.2c0,7.03-3.08,9.43-2.57,10.45c0.51,1.03,4.97-2.4,5.14,0.17
				c0.17,2.57-1.37,8.23-5.48,9.08c-4.11,0.86-9.43-1.54-13.2-11.82C270.82,175.61,278.19,164.81,280.42,164.81z"/>
			<path class="st6" d="M262.59,169.75c0,0-10.31,1.12-15.18,14.62c-4.87,13.49,7.5,42.73,8.43,44.79c0.94,2.06,0.94,9,0.94,9
				l38.23,0.19c0,0-1.12-22.87-2.81-32.42s-5.06-21.55-10.68-28.3S272.72,167.5,262.59,169.75z"/>
			<path class="st3" d="M256.41,231.6c0.37,2.81,0.37,6.56,0.37,6.56l38.23,0.19c0,0-0.17-3.37-0.47-8.06h-38.14V231.6z"/>
			<g>
				<path class="st4" d="M312.2,224.33c0,0,1.88-4.62,1.37-5.13c-0.51-0.51-3.94-3.25-4.79-3.25c-0.86,0-7.19,0.51-7.19,1.37
					c0,0.86,1.71,1.2,1.71,1.2s-1.54,1.03-1.37,1.88c0.17,0.86,3.17,1.61,3.17,1.61L312.2,224.33z"/>
				<path class="st4" d="M304.5,218.16c0,0,2.91-0.17,3.42,0c0.51,0.17,4.28,3.08,4.28,3.08"/>
			</g>
			<path class="st6" d="M258.45,193.63l27.74,42.71c0,0,4.26,2.05,7.09,3.31c2.84,1.26,11.19,0.63,18.91,0s38.01-5.36,38.01-5.36
				s1.89,2.84,3.78,4.57c1.89,1.73,5.36,3.94,6.46,4.1c1.1,0.16,4.1-0.95,4.1-0.95s1.73,1.26,3.15,1.1c1.42-0.16,2.05-0.47,2.21-1.1
				c0.16-0.63-0.47-5.52-0.95-6.93c-0.47-1.42-4.26-5.2-4.26-5.2s-5.52-4.73-6.46-4.89c-0.95-0.16-12.92,0.47-12.92,0.47L305.1,222
				c0,0,1.26-0.63-1.26-1.89c-2.52-1.26-5.04-1.42-5.04-1.42s-22.06-44.92-25.69-48.07c-3.62-3.15-11.03-1.89-15.76,2.52
				c-4.73,4.41-4.26,9.77-4.26,9.77"/>
			<path class="st4" d="M369.91,242.02c0.16-0.63-0.47-5.52-0.95-6.93c-0.47-1.42-4.26-5.2-4.26-5.2s-5.52-4.73-6.46-4.89
				c-0.95-0.16-12.92,0.47-12.92,0.47l-31.75-2.86l-2.94,17.17c0.52-0.04,1.04-0.08,1.55-0.13c7.72-0.63,38.01-5.36,38.01-5.36
				s1.89,2.84,3.78,4.57c1.89,1.73,5.36,3.94,6.46,4.1c1.1,0.16,4.1-0.95,4.1-0.95s1.73,1.26,3.15,1.1
				C369.12,242.96,369.75,242.65,369.91,242.02z"/>
			<path class="st2" d="M301.79,222.63c0,0-7.88,4.89-9.46,8.67"/>
			<path class="st2" d="M299.27,221.69c0,0-8.98,3.15-10.87,5.36"/>
			<polygon class="st4" points="283.16,161.21 278.36,171.67 271.5,159.33 273.56,156.93 			"/>
			<g>
				<path class="st4" d="M288.13,123.51c0,0,3.08,5.31,3.6,8.91c0.51,3.6,0.17,7.88,0.17,7.88s4.46,6,4.46,7.54s-3.6,3.08-3.6,3.08
					s-1.03,7.71-1.2,9.43c-0.17,1.71-1.71,3.6-3.43,3.6c-1.71,0-12.51-3.43-14.05-3.94c-1.54-0.51-6.34-13.37-2.74-22.45
					S288.13,123.51,288.13,123.51z"/>
				<path class="st7" d="M288.3,139.96c0,1.04-0.46,1.89-1.03,1.89c-0.57,0-1.03-0.84-1.03-1.89c0-1.04,0.46-1.89,1.03-1.89
					C287.84,138.08,288.3,138.92,288.3,139.96z"/>
				<path class="st4" d="M285.39,136.19c0,0,2.57-1.37,4.28,0.17"/>
				<path class="st4" d="M290.18,153.33c0,0-2.06,0.34-3.77-2.23"/>
			</g>
			<path class="st3" d="M292.76,118.03c0,0-3.94,5.31-10.28,15.77c-6.34,10.45-6.86,27.76-6.86,27.76s5.31,6.86,6.68,13.02
				s-1.71,8.91-1.71,8.91s-2.79-9.46-7.48-12.87c-4.69-3.41-9.49-3.66-10.51-0.88c-1.03,2.78,4.28,8.95,1.88,14.09
				c-2.4,5.14-11.65,9.94-10.97,15.6c0.69,5.66,4.97,10.11,3.6,16.97c-1.37,6.85-8.57,9.6-12.17,7.2c-3.6-2.4-2.23-4.46-1.89-4.97
				c0.34-0.51,1.89-2.57-0.51-4.97c-2.4-2.4-9.43-7.54-7.71-12.17c1.71-4.63,8.23-5.83,6.17-11.65
				c-2.06-5.83-10.28-14.05-6.86-20.57c3.43-6.51,10.63-7.2,8.91-15.6c-1.71-8.4-3.26-9.25-1.37-17.31
				c1.89-8.05,10.8-18.34,14.74-21.25c3.94-2.91,15.6-5.48,18.34-5.31s9.43,2.91,11.65,3.6S293.95,114.94,292.76,118.03z"/>
		</g>
		<g>
			<path class="st4" d="M350.9,231.74c0,0-3.61,4.16-3.05,5.13c0.55,0.97,2.5,1.66,2.5,1.66s2.08-3.33,2.36-5.27
				C352.98,231.33,352.15,231.19,350.9,231.74z"/>
			<path class="st4" d="M354.78,233.82c0,0-4.43,3.61-4.43,4.72c0,1.11,0.69,2.08,1.53,1.66c0.83-0.42,3.61-2.91,3.88-4.72
				C356.04,233.68,355.74,233.82,354.78,233.82z"/>
			<path class="st4" d="M355.78,236.64c0,0-3.23,2.99-3.07,3.78c0.16,0.79,1.26,1.34,1.89,1.34s2.75-2.12,3.3-3.7
				C358.46,236.48,357.59,235.38,355.78,236.64z"/>
			<path class="st4" d="M357.75,238.68c0,0-2.28,3.62-2.05,4.01c0.24,0.39,1.42,1.49,1.97,0.71c0.55-0.79,2.36-2.91,2.2-4.33
				C359.72,237.66,358.62,237.74,357.75,238.68z"/>
		</g>
		<g>
			<path class="st3" d="M434.76,170.02c0,0-8.25,7.05-9.06,9.26c-0.81,2.21-0.81,4.83-0.81,4.83s-10.87,12.48-11.68,18.32
				s2.21,16.11,2.21,16.11l24.36-47.51L434.76,170.02z"/>
			<g>
				<path class="st3" d="M493.22,460.93l-0.08,5.03c0,0-8.5,1.49-15.3,0.85l-0.21-3.61L493.22,460.93z"/>
				<path class="st3" d="M460.56,439.99c0,0-0.73,4.95-1.84,6.63c-1.12,1.67-2.62,3.98-7.37,5.93c-4.75,1.95-16.8,6.05-16.24,8.28
					c0.56,2.23,1.67,3.35,2.79,3.63c1.12,0.28,9.95,1.7,17.21,1.7s16.34,0.34,19.13-0.77c2.79-1.12,5.58-2.23,8.65-2.23
					s9.21-0.56,10.33-2.23c1.12-1.67-0.56-9.49-1.4-11.72s-1.97-5.67-1.97-5.67L460.56,439.99z"/>
			</g>
			<path class="st3" d="M471.53,300.18c0,0,0.98,61.45,1.3,66.98c0.33,5.53,7.15,34.79,12.35,49.09c5.2,14.31,5.6,29.8,5.6,29.8
				s-10.15,2.06-12.43,2.39c-2.28,0.33-11.38-1.95-11.38-1.95s-6.83-54.95-6.83-87.79c0-32.84,2.28-56.9,2.28-56.9L471.53,300.18z"
				/>
			<g>
				<path class="st3" d="M477.49,464.54l-0.08,5.03c0,0-8.5,1.49-15.3,0.85l-0.21-3.61L477.49,464.54z"/>
				<path class="st3" d="M444.84,443.6c0,0-0.73,4.95-1.84,6.63c-1.12,1.67-2.62,3.98-7.37,5.93c-4.75,1.95-16.8,6.05-16.24,8.28
					c0.56,2.23,1.67,3.35,2.79,3.63c1.12,0.28,9.95,1.7,17.21,1.7c7.26,0,16.34,0.34,19.13-0.77c2.79-1.12,5.58-2.23,8.65-2.23
					c3.07,0,9.21-0.56,10.33-2.23c1.12-1.67-0.56-9.49-1.4-11.72c-0.84-2.23-1.97-5.67-1.97-5.67L444.84,443.6z"/>
			</g>
			<path class="st3" d="M425.36,298.88c0,0,4.55,43.24,6.83,53.32c2.28,10.08,9.1,42.27,9.1,42.27s4.23,32.84,4.23,34.14
				c0,1.3,0,5.2,0,5.2s-3.46,3.62-3.46,5.24c0,1.63,1.58,9.05,1.58,9.05s6.12,1.8,14.25,2.77c8.07,0.97,17.58,0.28,17.58,0.28
				s0.28-20.17-1.99-39.03c-2.28-18.86-8.12-48.54-8.12-57.97s1.63-28.94,1.95-30.24c0.33-1.3,1.3-21.78,1.3-21.78L425.36,298.88z"
				/>
			<g>
				<path class="st4" d="M426.18,110.94c0,0-5.7,10.44-5.7,12.75c0,2.3,0.99,3.62,0.66,4.28c-0.33,0.66-5.43,7.73-5.76,9.54
					c-0.33,1.81,3.29,4.11,3.78,4.6c0.49,0.49,0.99,9.21,1.64,11.68c0.66,2.47,2.8,4.44,4.6,4.44c1.81,0,4.11-0.66,4.11-0.66
					l9.04,6.08l24.83-14.64l-0.33-5.26c0,0,7.66-12.79,8.16-15.26c0.49-2.47,0.84-13.51-1.63-17.62
					c-2.47-4.11-13.82-9.28-19.9-11.09c-6.08-1.81-17.43,2.94-19.89,4.59c-2.47,1.64-5.59,3.62-5.1,4.77
					C425.19,110.28,426.18,110.94,426.18,110.94z"/>
				<path class="st3" d="M469.59,110.87c-2.47-4.11-13.82-9.28-19.9-11.09c-6.08-1.81-17.43,2.94-19.89,4.59
					c-2.47,1.64-5.59,3.62-5.1,4.77c0.49,1.15,1.48,1.81,1.48,1.81s1.48,0.33,2.63-0.66c1.15-0.99,0.82-2.14,7.89-3.45
					c7.07-1.32,8.77,3.21,6.3,5.67c-2.47,2.47-7.07,5.59-6.25,8.22c0.82,2.63,8.22,5.92,8.22,5.92s-0.66,2.96,0,3.62
					c0.66,0.66,1.81,0.82,1.81,0.82s4.93-5.59,7.24-4.44c2.3,1.15,5.26,6.58,4.93,9.21c-0.33,2.63-4.28,7.4-4.28,7.4l-2.8,0.66
					c0,0,5.1,3.29,11.18-0.16c0,0,7.66-12.79,8.16-15.26C471.72,126.02,472.06,114.98,469.59,110.87z"/>
				<path class="st7" d="M426.4,129.6c0,1.09-0.4,1.97-0.9,1.97c-0.5,0-0.9-0.88-0.9-1.97c0-1.09,0.4-1.97,0.9-1.97
					C425.99,127.63,426.4,128.51,426.4,129.6z"/>
				<path class="st2" d="M422.78,125.33c0,0,3.45-2.3,5.76,0"/>
				<path class="st2" d="M422.78,143.42c0,0,3.29,0.33,5.76-1.64"/>
				<path class="st2" d="M423.93,132.56c0,0,1.48,2.96,3.62,2.96"/>
				<polygon class="st3" points="429.52,157.56 435.11,154.77 434.78,160.69 				"/>
			</g>
			<polygon class="st4" points="463.4,147.04 435.28,164.96 433.63,176.47 467.18,151.31 			"/>
			<path class="st3" d="M467.18,151.31c0,0-31.74,19.41-37.17,29.6c-5.43,10.2-16.12,23.68-16.45,32.07
				c-0.33,8.39,0,74.66-0.16,79.59c-0.16,4.93,16.12,14.97,33.55,16.61c17.43,1.64,34.53-6.08,36.18-7.07
				c1.64-0.99,4.93-3.95,4.93-3.95s-4.93-30.09-4.93-34.04c0-3.95-1.32-12.83-1.32-12.83l3.62-29.44c0,0-1.48-37.49-3.45-46.21
				c-1.97-8.72-10.85-23.85-10.85-23.85S469.48,150,467.18,151.31z"/>
			<path class="st8" d="M414.56,208.36c-0.22,0.65-0.41,1.28-0.56,1.9l2.36-3.52c0,0,14.14-13.81,17.93-18.75
				c3.78-4.93,11.51-11.18,11.51-11.18l1.15-4.77l1.64,2.63c0,0,6.91-8.22,11.84-11.35c4.93-3.12,11.18-6.58,11.18-6.58"/>
			
				<rect x="411.39" y="235.4" transform="matrix(0.9404 0.34 -0.34 0.9404 114.4122 -135.3489)" class="st6" width="63.97" height="46.72"/>
			<g>
				<path class="st4" d="M447.95,261.26c0,0-4.87,2.53-5.65,2.73c-0.78,0.19-11.3-1.17-12.27-0.78c-0.97,0.39-3.9,2.14-5.45,2.53
					s-0.97,2.92,0.97,3.51c1.95,0.58,6.82-0.78,6.82-0.78l1.36,1.56c0,0-4.09,11.49-3.12,12.47c0.97,0.97,1.75,1.95,2.73,1.56
					c0.97-0.39,2.73-0.97,2.73-0.97s4.48,1.75,5.45,2.14c0.97,0.39,4.29,0.58,5.07,0.19c0.78-0.39,1.56-1.36,2.34-2.53
					c0.78-1.17,4.09-10.71,4.09-10.71l1.36-3.51L447.95,261.26z"/>
				<path class="st3" d="M456.32,173.59c0,0-4.29,1.56-5.65,11.88c-1.36,10.32,1.95,18.51,3.9,21.43
					c1.95,2.92,18.02,25.06,18.02,25.06s-1.95,1.75-1.75,2.73c0.19,0.97,0.19,0.97,0.19,0.97l-25.81,25l9.94,10.13
					c0,0,31.74-15.23,39.26-21.49c6.02-5.01,9.16-15.39,8.96-17.54c-0.19-2.14-20.94-46.88-24.06-52.53s-6.62-9.16-9.35-9.94"/>
				<path class="st8" d="M472.79,234.89c0,0,15.39-3.9,15.97-1.95"/>
				<path class="st8" d="M491.49,231.39c0,0-4.68-2.14-8.57-1.36"/>
			</g>
			<path class="st8" d="M450.67,185.48c0,0,0.88,9.72,2.62,14.21c1.74,4.49,19.43,30.15,19.43,30.15s-2.99-0.5-2.49,1.25
				c0.5,1.74,0.6,3.62,0.6,3.62l-3.34,2.86"/>
		</g>
		<path class="st4" d="M373.85,229.09c0,0-7.41-4.1-9.77-5.83c-2.36-1.73-5.04-0.79-5.52-0.47c-0.47,0.32-3.62,5.36-4.1,6.3
			c-0.47,0.95,0.95,1.58,2.21,1.42c1.26-0.16,5.52-2.99,5.52-2.99l5.36,4.26"/>
	</g>
</g>
<g id="Gears">
	<path class="st2" d="M723.51,340.99v-10.74l-13.65-2.16c-0.68-2.55-1.69-4.96-2.99-7.19L715,309.7l-7.59-7.59l-11.19,8.13
		c-2.23-1.3-4.64-2.31-7.19-2.99l-2.16-13.65h-10.74l-2.16,13.65c-2.55,0.68-4.96,1.69-7.19,2.99l-11.19-8.13l-7.59,7.59l8.13,11.19
		c-1.3,2.23-2.31,4.64-2.99,7.19l-13.65,2.16v10.74l13.65,2.16c0.68,2.55,1.69,4.96,2.99,7.19l-8.13,11.19l7.59,7.59l11.19-8.13
		c2.23,1.3,4.64,2.31,7.19,2.99l2.16,13.65h10.74l2.16-13.65c2.55-0.68,4.96-1.69,7.19-2.99l11.19,8.13l7.59-7.59l-8.13-11.19
		c1.3-2.23,2.31-4.64,2.99-7.19L723.51,340.99z M681.48,352.21c-9.16,0-16.59-7.43-16.59-16.59c0-9.16,7.43-16.59,16.59-16.59
		c9.16,0,16.59,7.43,16.59,16.59C698.07,344.78,690.65,352.21,681.48,352.21z"/>
	<path class="st2" d="M580.34,158.85v-9.16l-11.65-1.85c-0.58-2.18-1.44-4.24-2.55-6.14l6.93-9.55l-6.48-6.48l-9.55,6.93
		c-1.9-1.11-3.96-1.97-6.14-2.55l-1.85-11.65h-9.16l-1.85,11.65c-2.18,0.58-4.24,1.44-6.14,2.55l-9.55-6.93l-6.48,6.48l6.93,9.55
		c-1.11,1.9-1.97,3.96-2.55,6.14l-11.65,1.85v9.16l11.65,1.85c0.58,2.18,1.44,4.24,2.55,6.14l-6.93,9.55l6.48,6.48l9.55-6.93
		c1.9,1.11,3.96,1.97,6.14,2.55l1.85,11.65h9.16l1.85-11.65c2.18-0.58,4.24-1.44,6.14-2.55l9.55,6.93l6.48-6.48l-6.93-9.55
		c1.11-1.9,1.97-3.96,2.55-6.14L580.34,158.85z M544.48,168.42c-7.82,0-14.16-6.34-14.16-14.16c0-7.82,6.34-14.16,14.16-14.16
		c7.82,0,14.16,6.34,14.16,14.16C558.64,162.09,552.3,168.42,544.48,168.42z"/>
	<path class="st2" d="M205.35,363.67v-6.77l-8.61-1.36c-0.43-1.61-1.07-3.13-1.88-4.54l5.12-7.05l-4.79-4.79l-7.05,5.12
		c-1.41-0.82-2.93-1.46-4.54-1.88l-1.36-8.61h-6.77l-1.36,8.61c-1.61,0.43-3.13,1.07-4.54,1.88l-7.05-5.12l-4.79,4.79l5.12,7.05
		c-0.82,1.41-1.46,2.93-1.88,4.54l-8.61,1.36v6.77l8.61,1.36c0.43,1.61,1.07,3.13,1.88,4.54l-5.12,7.05l4.79,4.79l7.05-5.12
		c1.41,0.82,2.93,1.46,4.54,1.88l1.36,8.61h6.77l1.36-8.61c1.61-0.43,3.13-1.07,4.54-1.88l7.05,5.12l4.79-4.79l-5.12-7.05
		c0.82-1.41,1.46-2.93,1.88-4.54L205.35,363.67z M178.85,370.74c-5.78,0-10.46-4.68-10.46-10.46c0-5.78,4.68-10.46,10.46-10.46
		c5.78,0,10.46,4.68,10.46,10.46C189.31,366.06,184.63,370.74,178.85,370.74z"/>
	<path class="st2" d="M134.63,93.95V84l-12.65-2.01c-0.63-2.36-1.57-4.6-2.77-6.66l7.53-10.36l-7.04-7.04l-10.36,7.53
		c-2.07-1.2-4.3-2.14-6.66-2.77l-2.01-12.65h-9.95l-2.01,12.65c-2.36,0.63-4.6,1.57-6.66,2.77l-10.36-7.53l-7.04,7.04l7.53,10.36
		c-1.2,2.07-2.14,4.3-2.77,6.66L56.77,84v9.95l12.65,2.01c0.63,2.36,1.57,4.6,2.77,6.66l-7.53,10.36l7.04,7.04l10.36-7.53
		c2.07,1.2,4.3,2.14,6.66,2.77l2.01,12.65h9.95l2.01-12.65c2.36-0.63,4.6-1.57,6.66-2.77l10.36,7.53l7.04-7.04l-7.53-10.36
		c1.2-2.07,2.14-4.3,2.77-6.66L134.63,93.95z M95.7,104.34c-8.49,0-15.37-6.88-15.37-15.37S87.21,73.6,95.7,73.6
		c8.49,0,15.37,6.88,15.37,15.37S104.19,104.34,95.7,104.34z"/>
</g>
</svg>
